<?xml version="1.0" encoding="UTF-8" standalone="no"?>
<svg
   xmlns:dc="http://purl.org/dc/elements/1.1/"
   xmlns:cc="http://creativecommons.org/ns#"
   xmlns:rdf="http://www.w3.org/1999/02/22-rdf-syntax-ns#"
   xmlns:svg="http://www.w3.org/2000/svg"
   xmlns="http://www.w3.org/2000/svg"
   viewBox="0 0 2800 2800"
   height="2800"
   width="2800"
   xml:space="preserve"
   id="svg2"
   version="1.1"><metadata
     id="metadata8"><rdf:RDF><cc:Work
         rdf:about=""><dc:format>image/svg+xml</dc:format><dc:type
           rdf:resource="http://purl.org/dc/dcmitype/StillImage" /></cc:Work></rdf:RDF></metadata><defs
     id="defs6"><clipPath
       id="clipPath20"
       clipPathUnits="userSpaceOnUse"><path
         id="path18"
         d="M 511.813,469.744 H 1577.35 V 1437.26 H 511.813 Z" /></clipPath><clipPath
       id="clipPath54"
       clipPathUnits="userSpaceOnUse"><path
         id="path52"
         d="M 427.402,1487.48 H 1673.48 v 225.78 H 427.402 Z" /></clipPath><clipPath
       id="clipPath108"
       clipPathUnits="userSpaceOnUse"><path
         id="path106"
         d="M 506.902,479.698 H 1599.46 V 1132.15 H 506.902 Z" /></clipPath><clipPath
       id="clipPath158"
       clipPathUnits="userSpaceOnUse"><path
         id="path156"
         d="M 519.037,341.206 H 1595.32 V 1101.81 H 519.037 Z" /></clipPath></defs><g
     transform="matrix(1.3333333,0,0,-1.3333333,0,2800)"
     id="g10"><g
       transform="matrix(1,0,0,-1,0,2100)"
       id="g12"><g
         id="g14"><g
           clip-path="url(#clipPath20)"
           id="g16"><g
             transform="translate(1098.5437,1039.8693)"
             id="g22"><path
               id="path24"
               style="fill:#000000;fill-opacity:1;fill-rule:nonzero;stroke:none"
               d="m 0,0 c -10.1101,-2.0288 -19.2825,-7.7402 -25.8972,-15.6167 -1.3128,-1.5515 -2.5235,-3.1882 -3.6145,-4.9102 -1.8071,-0.017 -3.5633,-0.1193 -5.2852,-0.4262 -1.7729,-0.3238 -3.5119,-0.8694 -5.2339,-1.8072 -4.3305,-2.3527 -7.655,-6.3762 -9.1381,-11.0647 -3.1031,-9.9052 2.5913,-20.7824 12.4797,-23.8854 9.0188,-2.8472 19.0266,1.6027 22.9988,10.1782 2.1482,4.6203 2.3357,10.0246 0.5114,14.7815 -0.8693,2.3186 -2.2163,4.4326 -3.904,6.2397 -0.9719,1.0401 -2.0459,1.9094 -3.1882,2.6939 0.1023,0.1533 0.2045,0.3237 0.3239,0.4773 0.9717,1.2956 1.9778,2.5231 3.0347,3.7507 1.3127,1.3127 2.6426,2.5403 4.0237,3.7507 1.091,0.8526 2.1992,1.6709 3.3415,2.438 1.1253,0.6648 2.2674,1.2957 3.1541,1.8071 1.5683,0.7161 3.1199,1.3811 4.7566,1.9436 1.5854,0.4773 3.1709,0.8526 4.7908,1.1424 1.0397,0.1194 2.0627,0.2046 2.6936,0.2556 0.1533,0.0171 0.3068,0.0171 0.4433,0.0171 0,0 0.0169,0 0.0169,0 0.8354,0 1.6538,-0.0342 2.2675,-0.0852 1.2276,-0.1194 2.4551,-0.3411 3.1031,-0.5457 0.426,-0.1191 0.8523,-0.2727 1.2785,-0.4092 0.5625,-0.2385 1.0911,-0.4943 1.6367,-0.767 0.2217,-0.1365 0.4263,-0.2728 0.6648,-0.4092 0.3411,-0.2559 0.6822,-0.5286 1.0059,-0.8184 0.2217,-0.2217 0.4434,-0.4602 0.648,-0.699 0.2558,-0.341 0.5114,-0.6989 0.7502,-1.0571 0.4602,-0.75 0.8865,-1.5344 1.2957,-2.3357 1.2446,-2.3867 4.3645,-3.2732 6.7172,-1.9946 2.3868,1.2956 3.2393,4.3132 1.9947,6.7002 -1.2615,2.4209 -3.4097,4.4668 -5.5579,6.0864 C 17.4751,-1.0571 11.7466,0.6138 5.9841,0.6138 3.9722,0.6138 1.9604,0.4092 0,0 Z" /></g><g
             transform="translate(1034.3547,1046.2626)"
             id="g26"><path
               id="path28"
               style="fill:#000000;fill-opacity:1;fill-rule:nonzero;stroke:none"
               d="m 0,0 c -2.6768,-0.0342 -5.541,-0.3579 -8.1152,-1.1763 -5.2683,-0.7502 -4.0066,-9.0359 1.2444,-8.1665 18.3276,6.1887 36.0412,-9.3086 39.2294,-27.0735 0.7842,-2.8471 3.9383,-4.5009 6.7515,-3.6655 7.9275,3.1541 1.2957,12.8547 -0.8184,18.0889 C 31.4854,-8.0513 16.825,0.0286 1.5801,0.0288 1.0535,0.0291 0.5276,0.0195 0,0 Z" /></g><g
             transform="translate(832.8542,940.7985)"
             id="g30"><path
               id="path32"
               style="fill:#000000;fill-opacity:1;fill-rule:nonzero;stroke:none"
               d="m 0,0 c -6.3252,-0.4604 -12.8379,-2.2166 -18.6514,-4.8591 -9.1042,-5.4556 -3.7678,-20.0152 6.7171,-18.2593 35.7175,-9.5813 73.634,-13.9971 104.3391,-36.4334 21.0554,-16.2646 46.5264,12.4288 27.7895,31.1824 -4.8928,4.3816 -10.1098,8.7461 -16.06,11.6785 C 78.7913,-3.8164 50.2534,0.8884 21.9309,0.8887 14.5854,0.8887 7.2568,0.572 0,0 Z" /></g><g
             transform="translate(1267.0374,938.7526)"
             id="g34"><path
               id="path36"
               style="fill:#000000;fill-opacity:1;fill-rule:nonzero;stroke:none"
               d="m 0,0 c -28.7102,-3.137 -57.5569,-12.9231 -80.3511,-30.9778 -9.2746,-8.03 -22.3681,-16.3669 -22.3,-30.0232 0.0171,-10.894 10.468,-19.8618 21.26,-18.0034 13.4004,3.1711 24.1069,13.0083 36.3823,18.9412 20.7996,11.167 44.5828,11.7978 66.7803,18.4128 10.1611,2.813 16.6738,13.4175 15.1052,23.7319 C 34.4744,-3.0378 21.8364,0.5132 9.1099,0.5132 6.0303,0.5132 2.9463,0.3054 0,0 Z" /></g><g
             transform="translate(1003.2063,1435.8632)"
             id="g38"><path
               id="path40"
               style="fill:#000000;fill-opacity:1;fill-rule:nonzero;stroke:none"
               d="m 0,0 c -17.2363,-0.9207 -34.4045,-2.6086 -51.4875,-5.1318 -17.441,-2.5745 -34.6602,-6.615 -51.6238,-11.3374 -34.7115,-9.6497 -68.0249,-23.5445 -99.9917,-40.065 -32.5291,-16.81 -62.6033,-38.0019 -90.7852,-61.2905 -26.8518,-22.1978 -51.0613,-47.7026 -72.9009,-74.7935 -22.1975,-27.5168 -41.531,-57.301 -58.7331,-88.1596 -17.407,-31.2334 -31.2847,-64.1719 -42.0086,-98.2696 -10.9795,-34.9502 -17.5603,-71.1447 -21.1916,-107.5781 -1.739,-17.3728 -2.4209,-35.0015 -2.0801,-52.4424 0.3582,-18.5832 1.7732,-36.9961 3.8191,-55.477 2.0288,-18.4468 5.7795,-36.7232 9.8372,-54.8291 3.7336,-16.7078 8.7119,-33.1089 14.0483,-49.3736 11.1499,-33.9611 26.4087,-66.9506 44.4121,-97.8093 17.8333,-30.5515 38.4963,-59.2275 61.6487,-85.9602 23.5615,-27.227 50.3965,-51.6411 79.0386,-73.4294 4.4668,-3.3929 8.9677,-6.7002 13.5368,-9.9224 0.0169,0.0339 0.034,0.051 0.0511,0.0852 1.2956,1.9094 2.6084,3.8359 3.9043,5.7454 4.4667,6.5639 9.0698,13.0254 13.7243,19.4529 0.1533,0.75 0.4431,1.466 0.8694,2.114 0.1194,0.5796 0.3411,1.1423 0.6309,1.6709 2.114,3.6652 4.3474,7.2456 6.6489,10.7917 -0.0852,0.0684 -0.1875,0.1365 -0.2727,0.1875 7.6889,12.6333 15.344,25.3005 23.0329,37.9338 7.3821,12.1387 15.3099,23.9537 22.283,36.3311 6.4956,11.5252 12.5649,23.3059 18.4468,35.1548 7.2458,14.5598 13.9631,29.3581 21.0725,43.9861 0.1191,0 0.2556,0 0.3921,0 0.4092,0 0.8352,0.0171 1.2275,0.0339 0.9036,-0.051 1.8242,-0.051 2.7617,-0.051 2.3528,-0.0171 4.7056,-0.0342 7.0584,-0.0513 16.8442,-0.1191 33.6885,-0.2385 50.5327,-0.3579 10.6216,-0.0852 21.2429,-0.1536 31.8813,-0.2388 2.4212,-0.0171 4.8421,-0.0171 7.263,-0.0171 6.4104,0 12.8376,0.0171 19.248,-0.375 14.0484,-0.8864 28.1136,-0.8864 42.179,-1.3127 11.9512,-0.375 23.9026,-0.8354 35.8537,-1.1763 9.752,-0.2729 19.4698,-1.04 29.2217,-1.1594 7.9619,-0.0852 15.9236,-0.2217 23.8855,-0.5286 0.6309,0.1707 1.3128,0.2559 1.9947,0.2559 0.2387,0 0.4604,0 0.6989,-0.0171 2.6768,-0.2388 5.3365,-0.4944 8.0132,-0.7671 0.2044,-0.0171 0.426,-0.0171 0.6306,-0.0342 10.9624,-0.6818 21.959,-1.7048 32.9043,-2.779 1.0401,-0.1023 2.0801,-0.2217 3.1201,-0.3408 5.251,-0.8015 10.4339,-1.9265 15.6167,-3.0689 1.5174,-0.1875 3.0347,-0.3921 4.535,-0.5798 3.9213,-0.4944 7.8254,-0.9888 11.7465,-1.4661 9.7181,-0.5796 19.4358,-1.1423 29.1536,-1.6877 8.0984,-0.4434 16.2307,-0.6138 24.3459,-0.9378 10.8602,-0.4091 21.7374,-0.8183 32.6143,-1.1594 4.0918,-0.1362 7.8425,-1.3979 10.8262,-4.2622 0.4262,-0.0339 0.8523,-0.051 1.2785,-0.0681 0.5967,-0.5796 1.1936,-1.1594 1.7903,-1.7219 1.7219,-1.722 3.4778,-3.3929 5.2168,-5.0977 1.6367,-1.7048 3.2393,-3.529 4.7227,-5.3533 1.1252,-1.5344 2.114,-3.1711 3.0688,-4.8078 4.2451,-7.3992 8.2515,-14.9859 12.3433,-22.5044 1.0911,-1.5344 2.0801,-3.1541 3.0517,-4.7398 1.8243,-2.9323 3.6143,-5.8818 5.3875,-8.8313 11.5249,-19.248 22.8455,-38.6154 34.2681,-57.9148 1.8755,-3.154 3.7338,-6.291 5.592,-9.4621 0.5286,-0.9036 1.0571,-1.8071 1.5857,-2.711 4.8247,-8.1833 9.6155,-16.4008 14.355,-24.6355 1.2275,-2.1481 2.4551,-4.2963 3.6826,-6.4614 16.1965,13.1275 31.5745,27.2781 46.1172,42.1277 24.7378,25.2835 46.7651,53.1243 65.6721,83.0278 12.9912,20.5269 24.3459,42.1448 33.8762,64.4788 2.0459,4.7566 3.836,9.6157 5.6944,14.4575 0.051,0.1194 0.1023,0.2388 0.1533,0.375 0.0852,0.1536 0.1704,0.3069 0.2387,0.4776 0,0 0.1534,0.3408 0.1534,0.3408 0.1194,0.2558 0.2387,0.5285 0.3581,0.7842 0.0171,0.017 0.0171,0.0341 0.034,0.0512 0.1877,0.4263 0.3752,0.8526 0.5798,1.2786 0.1875,0.4092 0.375,0.8354 0.5625,1.2617 0.0513,0.0852 0.0852,0.1533 0.1194,0.2388 3.1369,6.99 6.1377,14.0481 8.9848,21.1745 1.8243,4.535 3.5972,9.1211 5.2681,13.7244 0.0681,0.1704 0.1191,0.3411 0.1704,0.5115 2.762,7.5527 5.3362,15.1733 7.7573,22.8454 1.1421,3.6485 2.7449,7.1265 3.9383,10.7749 2.1311,6.4275 3.9895,12.94 5.9499,19.4017 1.9436,6.2058 3.9724,12.3603 5.575,18.6684 1.7051,6.6831 3.0346,13.4685 4.3474,20.22 3.0688,15.7019 5.2512,31.4551 6.5981,47.3957 1.3296,15.719 1.773,31.4893 1.5513,47.2596 -0.2046,16.0939 -1.3467,32.154 -1.9094,48.2651 -0.2727,7.9448 -0.5796,15.8725 -1.3299,23.8003 -0.8012,8.5415 -2.2844,16.9807 -3.8701,25.4199 -3.154,16.7761 -7.4333,33.3987 -12.3774,49.7485 -9.7859,32.41 -23.5274,63.865 -39.792,93.5472 -16.8101,30.6367 -37.8145,59.0571 -60.3189,85.7385 -21.7883,25.8291 -46.1342,49.4419 -72.3894,70.6846 -26.6132,21.5156 -55.0166,40.6445 -84.9375,57.2331 -30.3979,16.8442 -62.6716,30.1253 -95.7805,40.6104 -31.9836,10.1269 -64.956,16.6567 -98.2524,20.6291 C 82.3291,0.1704 61.7,1.1421 41.0879,1.1421 27.3635,1.1421 13.6392,0.7161 0,0 Z m -269.9685,-902.396 c -16.7249,13.9971 -32.5464,28.8977 -47.6345,44.668 -14.6961,15.9748 -28.3523,32.6997 -41.2071,50.2087 -13.0083,18.6687 -24.8574,37.9339 -35.5981,58.0003 -10.3997,20.5268 -19.4355,41.5139 -27.3633,63.0979 -6.4617,18.9411 -11.9514,38.0358 -16.5544,57.5058 -2.4893,11.866 -4.7566,23.7661 -6.5808,35.7515 -1.8245,12.1216 -3.1031,24.2944 -4.1941,36.5014 -1.5174,22.2659 -1.9607,44.4634 -1.1595,66.7806 0.5628,9.6836 1.3128,19.2993 2.2334,28.9489 1.0059,10.2974 2.6087,20.5267 4.2112,30.7561 2.0117,10.9624 4.0916,21.8907 6.6831,32.7337 2.8301,11.6955 6.0523,23.2546 9.4793,34.7969 6.6489,20.7143 14.3039,41.0024 23.1692,60.8813 7.7573,16.5715 16.4011,32.5464 25.8972,48.1973 10.9966,17.0656 22.8625,33.3987 35.6833,49.1687 13.1448,15.4975 26.9031,30.4834 41.4629,44.0373 2.2845,2.097 4.552,4.2281 6.0523,5.6089 14.3891,13.3152 29.9377,25.3518 45.708,36.9619 10.7068,7.5017 21.5327,14.7815 32.7168,21.5669 11.508,6.9561 23.2204,13.4346 35.1206,19.6743 9.394,4.6375 18.822,9.1382 28.4375,13.3152 9.6155,4.177 19.3503,7.9619 29.1535,11.6614 13.5708,4.7056 27.1758,9.1724 41.0196,13.0254 14.1845,3.9382 28.4885,7.3821 42.8608,10.5193 17.7307,3.5461 35.4956,6.4443 53.4993,8.1662 18.9582,1.5174 37.8655,1.7903 56.8579,0.9888 21.3623,-1.2104 42.52,-3.6313 63.1831,-7.1604 20.6121,-3.8359 40.8491,-8.7632 60.9155,-14.7815 21.5327,-6.8025 42.503,-14.8323 63.0637,-24.1921 19.4529,-9.1724 38.2747,-19.3677 56.5853,-30.688 16.3327,-10.3657 31.8303,-21.7373 46.2705,-33.3648 0.2898,-0.2385 0.5627,-0.4773 0.8525,-0.6989 0,0 0.0171,-0.0169 0.0171,-0.0169 16.7248,-13.9802 32.5122,-28.915 47.3787,-44.8557 13.9631,-15.3098 26.9372,-31.3528 39.059,-48.146 6.2058,-8.9165 12.1558,-17.9524 17.7989,-27.2099 5.5068,-9.0188 10.5193,-18.3616 15.1565,-27.1587 0.1193,-0.2046 0.2216,-0.4092 0.3239,-0.6138 0,0 0.1534,-0.2898 0.1534,-0.2898 12.1047,-23.4082 22.8796,-47.3108 31.9326,-72.0657 7.9619,-22.709 14.4575,-45.7248 19.7426,-69.2012 3.2393,-15.3269 6.1546,-30.7221 9.479,-46.049 1.6197,-7.689 2.7449,-15.395 3.5291,-23.2205 0,0 0.1707,-2.1824 0.1707,-2.1824 1.3637,-19.4526 1.3979,-38.9907 0.5285,-58.4946 -0.8867,-16.7419 -2.4721,-33.4497 -4.4839,-50.1064 -0.9719,-8.1324 -2.2505,-16.2137 -3.6316,-24.2947 -1.1933,-7.0242 -2.1821,-14.0823 -3.3584,-21.1065 -1.9096,-9.9055 -4.893,-19.572 -6.6662,-29.1706 -0.051,-0.2217 -0.1023,-0.4263 -0.0681,-0.4434 -3.8701,-12.2751 -8.1494,-24.3967 -12.8889,-36.3481 -3.1883,-7.9959 -6.5979,-15.8894 -10.1272,-23.7319 -2.5572,-5.2 -5.6089,-10.127 -8.5755,-15.0713 -3.4097,-5.6941 -6.8706,-11.3545 -9.5303,-15.6678 -13.4516,-21.4646 -28.0966,-41.9231 -43.969,-61.6315 -15.2587,-18.3277 -31.4892,-35.5982 -48.7768,-52.0162 -7.9107,-7.2116 -15.9749,-14.1845 -24.0388,-20.7656 -0.3582,3.0347 -1.5515,5.8989 -3.2053,8.5244 -1.1592,1.8242 -2.5403,3.5462 -3.7847,5.3023 -2.7791,3.9382 -5.6944,7.7744 -7.4675,10.0759 -2.438,3.1541 -4.927,6.2739 -7.3821,9.4109 -2.8472,3.802 -5.1829,7.8938 -7.6038,11.9853 -1.9949,3.3587 -4.3135,6.5298 -5.5068,8.5415 -4.4326,7.9107 -9.1895,15.5828 -14.0655,23.2376 -4.8928,7.7231 -9.9394,15.3953 -14.5253,23.3059 -0.6309,1.1423 -1.2276,2.3015 -1.7561,3.4949 -0.8355,2.1311 -1.6197,4.3305 -2.2505,6.5298 -0.1023,0.392 -0.1875,0.8012 -0.2898,1.1933 -3.9724,6.5469 -7.7574,13.2129 -11.6104,19.845 -0.8183,1.3979 -1.6196,2.7959 -2.438,4.1941 -1.5173,0.7329 -3.1711,1.2615 -4.9441,1.6196 -4.1599,0.8184 -8.3881,1.5173 -12.582,2.1482 -7.5527,1.125 -15.0371,2.5232 -22.3511,3.7166 -0.6818,0.0341 -1.364,0.0681 -2.0459,0.1193 -1.5515,0.034 -3.1027,0.0852 -4.6714,0.1194 -3.6655,0.1192 -7.3139,0.375 -10.9794,0.5967 -5.6092,0.3408 -11.2181,0.699 -16.8272,1.0398 -2.7109,0.1707 -5.4387,0.3752 -8.1665,0.6138 -0.4263,0.0171 -0.8523,0.0512 -1.2956,0.0683 0,0 0.017,0 0.0341,0 -0.1877,0.0171 -0.3581,0.0171 -0.5285,0.034 -0.0171,0 -0.0513,0 -0.0681,0 -2.2166,0.1194 -4.45,0.2046 -6.6663,0.3581 0.0852,0 0.1704,0 0.2559,0 -0.1194,0 -0.2217,0.0171 -0.3411,0.0171 0.0171,0 0.0342,0 0.051,0 -0.0339,0 -0.0852,0 -0.1362,0 -0.0171,0 -0.0342,0 -0.0681,0 0.0168,0 0.0339,0 0.051,0 -0.0681,0.0171 -0.1194,0.0171 -0.1875,0.0171 0.051,0 0.0852,0 0.1365,-0.0171 -15.3953,0.7161 -30.7732,1.5855 -46.1172,2.9666 0.0168,0 0.0339,0 0.051,0 -0.1023,0.0168 -0.2046,0.0168 -0.3069,0.0339 -0.1533,0.0171 -0.3069,0.0171 -0.4431,0.0342 0.0168,0 0.051,0 0.0852,0 -1.9949,0.1875 -3.9895,0.375 -5.9841,0.5625 -1.0059,0.1023 -1.9265,0.4433 -2.728,0.9719 -0.0511,-0.0171 -0.1023,-0.0171 -0.1534,-0.0171 -0.7331,-0.0681 -1.4492,-0.1194 -2.1823,-0.1875 0.0512,0.6477 0.1023,1.2957 0.1193,1.9605 0.0171,0.29 0.0171,0.5798 0.0171,0.8696 -0.3239,0.7671 -0.4773,1.6367 -0.4262,2.5574 0.0341,0.375 0.1023,0.7329 0.1875,1.091 0,0.0681 0,0.1194 -0.0169,0.1875 -0.2729,3.0518 -0.6479,6.1035 -0.8696,8.4734 -0.6648,7.8765 -1.739,15.7019 -3.2051,23.4763 -1.6196,8.4903 -3.4438,16.9466 -5.1489,24.482 -0.8865,4.0407 -1.7559,8.0813 -2.489,11.3205 -1.5855,7.1436 -3.0689,14.3382 -4.3816,21.5327 -0.324,1.773 -0.6309,3.5462 -0.9207,5.3194 -0.2727,1.6877 -0.4944,3.4096 -0.9206,5.0805 -0.7332,2.813 -3.4439,4.8247 -6.3763,3.9383 -2.5231,-0.7503 -3.4096,-3.2393 -4.2963,-5.2 -3.9554,-8.405 -7.4673,-17.0149 -11.2351,-25.5051 -3.9554,-8.8823 -7.8936,-17.7649 -11.815,-26.6643 -1.9094,-4.3306 -3.8359,-8.678 -5.7453,-13.0254 -0.8865,-1.9946 -1.7732,-4.0066 -2.6597,-6.0183 -0.0852,-0.1704 -0.1533,-0.3408 -0.2217,-0.5115 -0.5286,2.5403 -1.0059,5.0806 -1.4831,7.638 -0.972,5.1828 -2.097,10.3486 -3.2393,15.4121 -0.0852,0.3752 -0.1707,0.7502 -0.1875,0.8183 -3.2393,14.4405 -6.7515,28.8296 -9.9395,42.929 -0.1877,0.8696 -0.3923,1.739 -0.5114,2.2676 -0.4776,2.1311 -0.9378,4.2793 -1.4153,6.4104 -0.1875,0.7841 -0.4944,1.5686 -1.074,2.114 -0.5625,0.5285 -1.2786,0.8012 -1.9946,0.8012 -0.6651,0 -1.3128,-0.2385 -1.8584,-0.6648 -1.0401,-0.8525 -1.4321,-2.4038 -1.9436,-3.5974 -0.4602,-1.1252 -0.9378,-2.2334 -1.398,-3.3415 -0.9377,-2.1992 -1.8584,-4.3816 -2.779,-6.5637 -3.6995,-8.729 -7.3992,-17.458 -11.1328,-26.1531 -3.1883,-7.4673 -6.4104,-14.9177 -9.5816,-22.3679 -1.5344,-3.5804 -3.0517,-7.1436 -4.5862,-10.7239 -0.4091,-0.9546 -0.8012,-1.9094 -1.1933,-2.8643 -0.2898,2.3018 -0.5796,4.5862 -0.9036,6.888 -0.699,4.8759 -1.4661,9.7348 -2.2163,14.6108 -1.4321,9.3599 -2.9495,18.7195 -4.3303,28.0964 -0.4946,3.4097 -0.989,6.8196 -1.4834,10.2293 -0.2388,1.688 -0.4773,3.3928 -0.699,5.0976 -0.2727,2.0118 -0.2556,4.4158 -1.3298,6.1888 -1.0059,1.6709 -3.2051,2.83 -5.1658,2.3869 -1.1934,-0.2558 -2.2334,-0.6821 -3.0859,-1.5857 -0.7161,-0.7331 -1.1763,-1.6367 -1.5345,-2.5913 -0.4431,-1.1081 -0.8523,-2.2334 -1.2614,-3.3586 -0.8355,-2.2505 -1.6197,-4.5181 -2.4038,-6.7683 -1.5345,-4.3987 -3.035,-8.8145 -4.501,-13.23 -3.103,-9.4111 -6.2058,-18.8049 -9.2747,-28.199 -3.0688,-9.4109 -6.1716,-18.7878 -9.1721,-28.2158 -2.9326,-9.2234 -5.8989,-18.4468 -8.4392,-27.7896 -0.1707,-0.6308 -0.3411,-1.2785 -0.5115,-1.9094 -0.6479,-0.0171 -1.3127,-0.0512 -1.9607,-0.0852 -1.2617,-0.0683 -2.5061,-0.1365 -2.5403,-0.1706 -35.9731,0.2729 -71.9462,0.5114 -107.9362,0.7844 -2.1993,0.0168 -4.3987,0.0339 -6.615,0.051 -3.512,0.0171 -7.1946,0.2898 -10.6214,-0.6648 -6.8025,-1.9265 -9.394,-9.07 -12.3945,-14.7644 -3.154,-6.0354 -6.3423,-12.0705 -9.5815,-18.0718 -5.7286,-10.6726 -11.4739,-21.3281 -16.8272,-32.2053 -5.6772,-11.508 -11.0307,-23.2034 -17.2705,-34.4045 -11.8491,-20.5779 -24.2434,-40.8833 -36.6721,-61.1372 -5.251,3.9382 -10.417,7.9787 -15.5315,12.1047 z" /></g><g
             transform="translate(1016.334,1416.0011)"
             id="g42"><path
               id="path44"
               style="fill:#c7c7c7;fill-opacity:1;fill-rule:nonzero;stroke:none"
               d="m 0,0 c -18.0037,-1.739 -35.7686,-4.6372 -53.4993,-8.1833 -14.3723,-3.137 -28.6762,-6.5809 -42.8608,-10.5022 -13.8438,-3.8531 -27.4487,-8.3199 -41.0195,-13.0254 -9.8033,-3.7166 -19.5381,-7.5015 -29.1536,-11.6614 -9.6155,-4.1939 -19.0435,-8.6948 -28.4375,-13.332 -11.9001,-6.24 -23.6126,-12.7186 -35.1206,-19.6746 -11.1841,-6.7854 -22.01,-14.0481 -32.7168,-21.5498 -15.7703,-11.6272 -31.3189,-23.6636 -45.708,-36.9619 -1.5003,-1.398 -3.7678,-3.512 -6.0523,-5.626 -14.5598,-13.5369 -28.3181,-28.5398 -41.4628,-44.0203 -12.8209,-15.7871 -24.6868,-32.1198 -35.6834,-49.1687 -9.4961,-15.6508 -18.1399,-31.6428 -25.8972,-48.2143 -8.8653,-19.8789 -16.5203,-40.167 -23.1692,-60.8643 -3.427,-11.5593 -6.6492,-23.1184 -9.4793,-34.8139 -2.5915,-10.8431 -4.6713,-21.7542 -6.6831,-32.7337 -1.6025,-10.2292 -3.2053,-20.4587 -4.2111,-30.7561 -0.9207,-9.6496 -1.6707,-19.2654 -2.2334,-28.949 -0.8013,-22.3 -0.3579,-44.4975 1.1594,-66.7634 1.091,-12.207 2.3696,-24.3799 4.1941,-36.5185 1.8242,-11.9683 4.0915,-23.8685 6.5808,-35.7344 4.603,-19.47 10.0928,-38.5647 16.5544,-57.523 7.9278,-21.5837 16.9637,-42.5539 27.3633,-63.0808 10.7407,-20.0835 22.5899,-39.3486 35.5982,-58.0002 12.8547,-17.5261 26.5109,-34.2339 41.207,-50.2259 15.0881,-15.7531 30.9097,-30.6538 47.6345,-44.6679 5.1145,-4.1258 10.2805,-8.1494 15.5315,-12.1048 12.4287,20.2542 24.823,40.5765 36.6721,61.1372 6.2398,11.2183 11.5933,22.9136 17.2705,34.4046 5.3533,10.8772 11.0987,21.5498 16.8272,32.2224 3.2392,6.0012 6.4275,12.0364 9.5815,18.0718 3.0005,5.6943 5.5921,12.8208 12.3946,14.7644 3.4267,0.9546 7.1093,0.6819 10.6213,0.6477 2.2163,0 4.4158,-0.034 6.615,-0.034 35.99,-0.2729 71.9631,-0.5114 107.9363,-0.7844 0.0341,0.0342 1.2785,0.1023 2.5402,0.1707 0.648,0.0339 1.3128,0.0681 1.9607,0.0681 0.1704,0.6479 0.3409,1.2956 0.5115,1.9094 2.5403,9.3428 5.5066,18.5833 8.4392,27.7896 3.0005,9.445 6.1033,18.822 9.1721,28.2329 3.0689,9.3769 6.1717,18.7878 9.2747,28.199 1.4661,4.3984 2.9666,8.8313 4.501,13.2299 0.7842,2.2503 1.5683,4.5008 2.4038,6.7513 0.4092,1.1252 0.8183,2.2504 1.2615,3.3757 0.3581,0.9546 0.8183,1.8413 1.5344,2.5913 0.8525,0.8867 1.8926,1.3298 3.0859,1.5686 1.9607,0.4431 4.1599,-0.7161 5.1658,-2.387 1.0742,-1.7729 1.0571,-4.1599 1.3298,-6.1716 0.2217,-1.7048 0.4602,-3.4097 0.699,-5.1147 0.4944,-3.4097 0.9888,-6.8194 1.4834,-10.2293 1.3809,-9.3767 2.8982,-18.7195 4.3303,-28.0964 0.7503,-4.876 1.5174,-9.7178 2.2163,-14.5938 0.324,-2.3188 0.6138,-4.6032 0.9036,-6.8879 0.3921,0.9548 0.7842,1.9097 1.1934,2.8642 1.5344,3.5804 3.0517,7.1265 4.5861,10.7068 3.1712,7.4673 6.3933,14.9007 9.5816,22.368 3.7336,8.695 7.4333,17.424 11.1328,26.153 0.9206,2.1822 1.8413,4.3645 2.779,6.5808 0.4602,1.0911 0.9378,2.2163 1.398,3.3416 0.5115,1.1936 0.9036,2.7278 1.9436,3.5803 0.5456,0.4434 1.1934,0.6819 1.8584,0.6819 0.7161,0 1.4321,-0.2727 1.9946,-0.8184 0.5796,-0.5454 0.8865,-1.3298 1.074,-2.114 0.4775,-2.114 0.9377,-4.2622 1.4153,-6.4104 0.1191,-0.5114 0.3237,-1.3979 0.5115,-2.2505 3.1879,-14.1164 6.7001,-28.5056 9.9394,-42.9289 0.0169,-0.0681 0.1023,-0.4431 0.1875,-0.8184 1.1423,-5.0805 2.2673,-10.2292 3.2393,-15.4121 0.4773,-2.5574 0.9546,-5.1147 1.4831,-7.6379 0.0684,0.1706 0.1365,0.341 0.2217,0.5114 0.8865,2.0118 1.7732,4.0237 2.6597,6.0013 1.9094,4.3645 3.8359,8.6948 5.7453,13.0254 3.9214,8.8994 7.8596,17.799 11.815,26.6643 3.7678,8.4904 7.2798,17.1172 11.2351,25.5051 0.8867,1.9778 1.7732,4.4668 4.2964,5.217 2.9323,0.8865 5.643,-1.1252 6.3762,-3.9553 0.4263,-1.6709 0.6479,-3.3757 0.9206,-5.0806 0.2898,-1.7731 0.5967,-3.5461 0.9207,-5.3193 1.3127,-7.1946 2.7961,-14.3892 4.3816,-21.5156 0.7331,-3.2393 1.6025,-7.2969 2.489,-11.3206 1.7051,-7.5354 3.5293,-15.9917 5.1489,-24.4819 1.4661,-7.7744 2.5403,-15.6169 3.2051,-23.4934 0.2217,-2.3528 0.5967,-5.4216 0.8696,-8.4563 0.0169,-0.0681 0.0169,-0.1365 0.0169,-0.2046 -0.0852,-0.3411 -0.1533,-0.7161 -0.1875,-1.0911 -0.051,-0.9206 0.1023,-1.7732 0.4262,-2.5573 0,-0.2727 0,-0.5796 -0.017,-0.8526 -0.0171,-0.6819 -0.0682,-1.3296 -0.1194,-1.9775 0.7331,0.0681 1.4492,0.1365 2.1823,0.2046 0.0511,0 0.1023,0 0.1534,0 0.8015,-0.5115 1.7221,-0.8526 2.728,-0.9549 1.9946,-0.2046 3.9893,-0.375 5.9841,-0.5796 0.1023,0 0.2385,0 0.3579,-0.0341 0.1023,0 0.2046,0 0.3069,-0.034 15.3269,-1.364 30.688,-2.2505 46.0662,-2.9665 0,0 -0.0171,0.0171 -0.0171,0.0171 0.0171,0 0.051,0 0.0681,-0.0171 0.0171,0 0.0171,0 0.0171,0 0.051,0 0.1023,0 0.1362,0 0.0171,0 0.0171,0 0.0342,0 2.2163,-0.1704 4.4497,-0.2388 6.6663,-0.375 0.0168,0 0.051,0 0.0681,0 0.1704,0 0.3408,0 0.5285,-0.0342 0.4261,0 0.8523,-0.0342 1.2615,-0.0681 2.7278,-0.2388 5.4556,-0.4434 8.1665,-0.6138 5.6092,-0.341 11.218,-0.6821 16.8272,-1.0229 3.6655,-0.2388 7.3139,-0.4776 10.9795,-0.6138 1.5686,-0.0342 3.1198,-0.0684 4.6714,-0.1023 0.6818,-0.0684 1.364,-0.1023 2.0458,-0.1365 7.314,-1.1933 14.7984,-2.5913 22.3511,-3.7165 4.1939,-0.6138 8.4221,-1.3299 12.5821,-2.1482 1.7729,-0.3411 3.4267,-0.8696 4.944,-1.6026 0.8184,-1.3982 1.6197,-2.8132 2.438,-4.194 3.836,-6.6321 7.6209,-13.2981 11.5933,-19.845 0.1023,-0.3921 0.2046,-0.8013 0.3069,-1.1934 0.6308,-2.2163 1.415,-4.3987 2.2505,-6.5466 0.5285,-1.1936 1.1252,-2.3528 1.7561,-3.478 4.5859,-7.9107 9.6325,-15.5828 14.5254,-23.3228 4.8759,-7.6379 9.6328,-15.3101 14.0654,-23.2207 1.1934,-2.0117 3.512,-5.1829 5.5068,-8.5586 2.4209,-4.0915 4.7566,-8.1833 7.6038,-11.9683 2.4551,-3.1369 4.9441,-6.2739 7.3821,-9.4108 1.7732,-2.3186 4.6884,-6.1377 7.4675,-10.0931 1.2444,-1.739 2.6255,-3.4777 3.7847,-5.2851 1.6538,-2.6255 2.8471,-5.4898 3.2053,-8.5244 8.064,6.581 16.1282,13.5368 24.0388,20.7656 17.2876,16.4009 33.5181,33.6885 48.7769,51.999 15.8723,19.7085 30.5173,40.167 43.969,61.6487 2.6596,4.2961 6.1206,9.9565 9.5302,15.6509 2.9666,4.9441 6.0183,9.8882 8.5755,15.071 3.5293,7.8426 6.9389,15.7532 10.1272,23.7322 4.7395,11.9683 9.0188,24.0728 12.8889,36.3481 -0.0342,0.034 0.0171,0.2386 0.0681,0.4432 1.7732,9.6157 4.7566,19.2653 6.6663,29.1877 1.1762,7.0242 2.165,14.0823 3.3584,21.1065 1.3811,8.081 2.6596,16.1623 3.6315,24.2775 2.0118,16.6739 3.5972,33.3816 4.4839,50.1236 0.8694,19.5039 0.8352,39.042 -0.5285,58.4775 0,0 -0.1707,2.1824 -0.1707,2.1824 -0.7842,7.8425 -1.9094,15.5486 -3.529,23.2204 -3.3245,15.344 -6.2398,30.7222 -9.479,46.0662 -5.2852,23.4592 -11.7808,46.4751 -19.7427,69.1841 -9.053,24.7551 -19.8279,48.6575 -31.9326,72.0828 0,0 -0.1534,0.2727 -0.1534,0.2727 -0.1022,0.2046 -0.2045,0.4091 -0.3239,0.6137 -4.6372,8.7971 -9.6497,18.1399 -15.1565,27.1758 -5.6431,9.2405 -11.593,18.2764 -17.7989,27.21 -12.1218,16.7761 -25.0959,32.8362 -39.059,48.146 -14.8665,15.9236 -30.6538,30.8584 -47.3787,44.8386 0,0 -0.0171,0.0339 -0.0171,0.0339 -0.2898,0.2046 -0.5627,0.4434 -0.8525,0.6822 -14.4402,11.6272 -29.9378,23.0158 -46.2705,33.3815 -18.3106,11.3204 -37.1324,21.5157 -56.5852,30.688 -20.5608,9.3428 -41.531,17.3897 -63.0638,24.1753 -20.0664,6.0352 -40.3034,10.9453 -60.9155,14.7984 C 99.3779,-2.6597 78.2202,-0.2385 56.8579,0.9888 50.0117,1.2715 43.1758,1.417 36.3452,1.417 24.2271,1.417 12.1245,0.9595 0,0 Z m 9.9055,-370.9319 c 2.5742,0.8184 5.4385,1.1592 8.1153,1.1763 15.8042,0.5967 31.2504,-7.5525 38.2917,-21.9758 6.6318,7.8593 15.7871,13.5708 25.8972,15.5996 1.9605,0.4091 3.9722,0.6137 5.9841,0.6137 5.7625,0 11.491,-1.6709 16.1282,-5.1828 2.1482,-1.6197 4.2964,-3.6656 5.5579,-6.0865 1.2446,-2.3869 0.3921,-5.4045 -1.9946,-6.7001 -2.3528,-1.2786 -5.4727,-0.3921 -6.7173,1.9946 -0.4092,0.8012 -0.8355,1.5857 -1.2957,2.3357 -0.2388,0.3581 -0.4944,0.716 -0.7502,1.0571 -0.2046,0.2388 -0.4263,0.4773 -0.648,0.699 -0.3237,0.2898 -0.6648,0.5625 -1.0058,0.8183 -0.2386,0.1365 -0.4432,0.2727 -0.6648,0.4092 -0.5457,0.2727 -1.0743,0.5286 -1.6368,0.7671 -0.4262,0.1365 -0.8525,0.29 -1.2785,0.4092 -0.648,0.2046 -1.8755,0.4263 -3.103,0.5456 -0.6138,0.0511 -1.4322,0.0852 -2.2676,0.0852 0,0 -0.0169,0 -0.0169,0 -0.1364,0 -0.29,0 -0.4433,-0.017 -0.6309,-0.0511 -1.6538,-0.1363 -2.6936,-0.2557 -1.6199,-0.2898 -3.2054,-0.665 -4.7908,-1.1423 -1.6367,-0.5625 -3.1882,-1.2275 -4.7566,-1.9436 -0.8867,-0.5115 -2.0288,-1.1423 -3.154,-1.8071 -1.1424,-0.7671 -2.2505,-1.5855 -3.3416,-2.438 -1.3811,-1.2105 -2.7109,-2.438 -4.0237,-3.7507 -1.0569,-1.2276 -2.063,-2.4551 -3.0346,-3.7508 -0.1194,-0.1535 -0.2217,-0.324 -0.324,-0.4773 1.1423,-0.7844 2.2163,-1.6538 3.1882,-2.6938 1.6878,-1.8072 3.0347,-3.9212 3.9041,-6.2398 1.8242,-4.7568 1.6367,-10.1611 -0.5115,-14.7815 -3.9722,-8.5754 -13.98,-13.0254 -22.9988,-10.1782 -9.8884,3.103 -15.5828,13.9802 -12.4797,23.8855 1.4831,4.6885 4.8076,8.7119 9.1382,11.0647 1.7219,0.9378 3.4609,1.4834 5.2338,1.8071 -6.4956,13.4859 -21.1745,23.1014 -36.2629,18.0037 -0.262,-0.0432 -0.5142,-0.064 -0.7559,-0.064 -4.6213,0 -5.5107,7.5169 -0.4885,8.2134 z m -212.0537,-109.1299 c 5.8306,2.6258 12.3433,4.3987 18.6514,4.8592 35.2571,2.7788 72.2361,-0.4776 104.1345,-16.691 5.9499,-2.9323 11.167,-7.2968 16.0598,-11.6784 18.7539,-18.7537 -6.7341,-47.447 -27.7725,-31.1824 -30.7219,22.4363 -68.6215,26.8521 -104.3391,36.4334 -0.5905,-0.0989 -1.165,-0.146 -1.7212,-0.146 -9.3193,-3e-4 -13.5881,13.2409 -5.0129,18.4052 z m 350.2004,-58.2046 c -0.0681,13.6731 13.0254,22.0101 22.3001,30.023 22.7942,18.0718 51.6409,27.8579 80.3511,30.9778 15.1223,1.5683 33.8933,0.5796 36.8767,-17.9185 1.5686,-10.3144 -4.9441,-20.9189 -15.1052,-23.7319 -22.1976,-6.5979 -45.9808,-7.2459 -66.7803,-18.3958 -12.2754,-5.9328 -22.982,-15.77 -36.3823,-18.9582 -0.9598,-0.1653 -1.9178,-0.2449 -2.865,-0.2449 -9.7041,-5e-4 -18.3794,8.3386 -18.3951,18.2485 z" /></g></g></g></g><g
       transform="matrix(1,0,0,-1,0,2100)"
       id="g46"><g
         id="g48"><g
           clip-path="url(#clipPath54)"
           id="g50"><g
             transform="translate(783.6289,1660.1445)"
             id="g56"><path
               id="path58"
               style="fill:#ffffff;fill-opacity:1;fill-rule:nonzero;stroke:none"
               d="m 0,0 c 3.0898,24.6289 -16.8477,51.9141 -42.207,51.9141 -1.7696,0 -3.5586,-0.1211 -5.3672,-0.3985 -28.8828,-5.3672 -37.7031,-38.0547 -50.3985,-60.4414 -6.5664,-13.2695 12.8321,-24.3672 20.9258,-11.9844 4.8281,7.8165 9.8321,15.543 14.5547,23.4297 5.4531,7.2266 10.2813,20.2696 20.7539,20.0782 17.0742,-6.8633 13.8789,-28.1368 5.3867,-40.7657 -15.7187,-33.0156 -71.2968,-51.9101 -56.2382,-94.9297 7.539,-19.6796 44.1132,-41.0078 55.1601,-13.8437 2.6406,6.4609 6.5469,27.2344 -4.7422,26.625 -9.9844,-3.3008 2.6914,-13.1133 -7.4844,-24.0391 0,0 0.0508,-0.0508 0.0508,-0.0508 -9.2226,-3.7695 -18.4101,7.6602 -22.3008,15.0079 -8.5976,22.4882 31.8204,39.4414 43.3165,55.7656 C -14.8359,-38.7305 -2.3281,-20.6133 0,0 Z" /></g><g
             transform="translate(829.4609,1678.5391)"
             id="g60"><path
               id="path62"
               style="fill:#ffffff;fill-opacity:1;fill-rule:nonzero;stroke:none"
               d="m 0,0 c 1.582,9.4648 -5.6094,15.0898 -12.7305,15.0898 -5.332,0 -10.6289,-3.125 -12.2265,-10.125 -3.2813,-29.5937 -4.9844,-59.3984 -7.6602,-89.0781 -0.5898,-8.7539 -1.4766,-17.5234 -1.582,-26.3125 0.0351,-3.6289 -0.3125,-7.5547 1.4258,-10.8711 0.7812,-1.6875 3.4375,-1.7383 4.2031,-0.0195 0.625,1.1289 0.957,2.3437 1.2148,3.6289 4.1875,14.9375 7.4883,30.1016 10.8203,45.2461 C -11.4453,-48.1953 -6.0078,-24.0195 0,0 Z" /></g><g
             transform="translate(812.1797,1513.5234)"
             id="g64"><path
               id="path66"
               style="fill:#ffffff;fill-opacity:1;fill-rule:nonzero;stroke:none"
               d="m 0,0 c 0.2617,4.3594 -1.2344,8.7031 -4.1328,11.9492 -2.7109,3.0235 -7,5.4024 -11.1524,5.4024 -4.4609,0 -8.5429,-1.0938 -11.9296,-4.1329 -3.1797,-2.832 -5.1602,-6.8945 -5.4375,-11.1484 -0.2579,-4.3437 1.25,-8.6875 4.1523,-11.9336 2.6914,-3.0234 6.9805,-5.4179 11.1484,-5.4179 4.4493,0 8.5469,1.0937 11.9336,4.1328 C -2.2383,-8.3008 -0.2773,-4.2539 0,0 Z" /></g><g
             transform="translate(937.4375,1549.1484)"
             id="g68"><path
               id="path70"
               style="fill:#ffffff;fill-opacity:1;fill-rule:nonzero;stroke:none"
               d="m 0,0 c 1.3359,6.4258 1.3359,13.1445 1.4922,19.6953 -3.75,18.8242 -28.8828,10.2461 -21.0469,-8.8945 1.6836,-10.9063 -9.3633,-10.9922 -16.2734,-6.461 -8.7383,5.1055 -15.2696,13.3907 -19.3164,22.5782 -12,27.5117 -2.1016,63.289 25.914,76.3515 3.9063,-2.6914 7.3282,-6.0468 10.8555,-9.207 8.8047,-8.1641 23.2031,3.1445 17.418,13.6523 -6.0938,12.0508 -15.5078,25.375 -30.1836,25.375 -0.625,0 -1.25,-0.0195 -1.9102,-0.0703 C -96.7383,121.9023 -110.3906,25.8594 -61.6406,-11.3945 -42.9844,-28.7461 -5.957,-29.8555 0,0 Z" /></g><g
             transform="translate(1141.0078,1651.5469)"
             id="g72"><path
               id="path74"
               style="fill:#ffffff;fill-opacity:1;fill-rule:nonzero;stroke:none"
               d="m 0,0 c 0.1367,21.3477 -20.4766,36.4727 -40.6406,36.4727 -0.9024,0 -1.8086,-0.0157 -2.711,-0.086 -19.9023,-0.5195 -34.2148,-16.289 -45.3632,-31.0898 -6.5157,-8.25 -18.7227,-19.8321 -7.7657,-29.5938 17.4375,-14.2226 33.3125,26.5899 49.9492,31.6953 47.5196,7.7461 2.7305,-51.3906 -11.6328,-64.2929 -75.3281,-67.3203 36.3321,-106.918 45.2227,-50.836 -1.1094,32.5977 -26.8477,22.9571 -17.9414,9.1328 2.9844,-1.9531 4.0898,-5.7187 3.164,-9.1054 -0.5,-1.6719 -1.3281,-3.1641 -2.6406,-4.2852 -0.164,-0.1484 -0.3398,-0.2851 -0.5234,-0.414 0.1758,0.1367 0.3476,0.2773 0.5234,0.414 0.1719,0.1914 0.3477,0.3477 0.5196,0.5391 -11.0469,-10.5938 -37.793,-3.4571 -34.4415,14.1211 7.1055,17.1953 24.7344,27.0429 36.1094,41.2304 C -14.8672,-40.1523 -0.7461,-21.5352 0,0 Z" /></g><g
             transform="translate(1282.0352,1683.2109)"
             id="g76"><path
               id="path78"
               style="fill:#ffffff;fill-opacity:1;fill-rule:nonzero;stroke:none"
               d="m 0,0 c 3.4219,9.8828 -4.8633,17.332 -13.043,17.332 -4.414,0 -8.789,-2.1718 -11.3086,-7.2773 -5.3437,-11.0586 -8.3086,-22.9219 -10.6484,-34.9531 -0.8203,0.2734 -1.6875,0.4531 -2.5859,0.5312 -3.5938,0.293 -7.2071,0.293 -10.8204,0.2774 -6.164,-0.1055 -12.2968,0.3984 -18.4257,1.0429 -2.8711,0.3867 -5.7461,0.8242 -8.625,1.2774 0.5507,2.3086 1.1093,4.6132 1.6757,6.9179 3.0235,8.3047 5.5586,19.5586 -4.3398,24.1758 -1.7734,0.8867 -3.75,1.3047 -5.7148,1.3047 -4.3086,0 -8.5977,-2.0312 -10.9414,-5.8203 -4.0977,-6.0781 -3.7696,-13.8945 -4.9844,-20.8906 -0.1055,-0.7774 -0.2149,-1.5547 -0.3203,-2.336 -3.1368,0.2539 -6.2774,0.4063 -9.4219,0.4063 -2.6758,0 -5.3516,-0.1055 -8.043,-0.3477 -3.4922,0.5235 -6.3398,-3.6133 -4.6875,-6.8437 1.1289,-2.2227 3.6446,-2.9336 5.7305,-2.2578 3.5937,0.1406 7.1562,-0.2579 10.7344,-0.6602 1.4179,-0.207 2.8281,-0.4375 4.2343,-0.6875 -1.5117,-10.7187 -3.0273,-21.4375 -4.3242,-32.1875 -3.1406,-30.4805 -7.5547,-61.3633 -6.1484,-92.0156 1.5976,-12.9219 21,-6.4805 14.5039,4.8086 3.8281,38.2109 10.5156,76.1562 19.0508,113.6211 12.6836,-3.8516 25.1992,-8.3828 38.0195,-11.6172 0.5195,-0.0977 1.043,-0.1563 1.5625,-0.1797 -0.3359,-1.8164 -0.6797,-3.625 -1.0391,-5.4297 -5.3867,-34.3711 -12.9218,-68.832 -13.7929,-103.6875 -0.5039,-9.293 12.4023,-9.1719 13.164,-0.1914 3.0743,16.5352 6.6875,32.9297 10.7188,49.2383 C -21.3125,-70.5508 -12.7656,-34.6328 0,0 Z" /></g><g
             transform="translate(1378.4805,1584.8047)"
             id="g80"><path
               id="path82"
               style="fill:#ffffff;fill-opacity:1;fill-rule:nonzero;stroke:none"
               d="m 0,0 c -0.9375,-5.4219 0.9375,-11.4648 5.5742,-14.5898 -3.5078,-15.2149 -16.6406,-23.8633 -29.4375,-23.8633 -10.6328,0 -21,5.9375 -25.4453,19.0156 C -61.1211,2.5 -54,65.9102 -26.8008,72.7891 -9.1719,68.3398 -5.7695,45.0156 -2.1562,29.7656 -0.9219,19.9023 -0.1562,9.9336 0,0 Z m 56.9492,82.8594 c 2.1524,6.9297 7.9375,13.3594 6.0938,20.9648 -1.3008,7.6406 -8.4922,12.0899 -15.5274,12.0899 -4.8633,0 -9.6562,-2.1211 -12.4179,-6.7735 C 28.2734,96.2188 24.2617,81.8867 19.0703,68.2539 9.6367,92.3945 -17.2656,112.7852 -43.2305,100.2109 -75.6914,82.9648 -85.0859,40.9883 -84.5156,6.9102 c 1.4609,-23.8985 10.1601,-51.0625 31.8554,-63.8282 31.2618,-19.5195 74.3672,5.6289 74.7696,42.0313 7.7109,5.1406 6.3047,15.7695 9.4101,23.6054 3.5782,12.7461 7.4336,25.3399 11.7071,37.8438 4.1875,12.2617 8.8047,24.332 13.7226,36.2969 z" /></g><g
             transform="translate(1480.9844,1607.8672)"
             id="g84"><path
               id="path86"
               style="fill:#ffffff;fill-opacity:1;fill-rule:nonzero;stroke:none"
               d="M 0,0 C 11.1328,-9.0117 23.6367,-21.4141 21.5,-36.9766 19.4531,-51.2695 7,-65.9961 -8.043,-65.9961 c -0.9531,0 -1.9101,0.0508 -2.8828,0.1719 0.1914,0.9883 0.3672,1.9804 0.5039,2.9687 C -7.6758,-41.7852 -3.8398,-20.8945 0,0 Z M 82.4961,59.625 C 87.4141,68.7617 77.3555,80.1367 67.6992,76.2109 46.6484,67.1641 26.8672,55.1602 7.4336,43.0742 8.043,51.4453 17.957,87.9531 4.3242,87.9531 c -1.1094,0 -2.3789,-0.2461 -3.8203,-0.7656 -1.0781,-0.7305 -1.875,-1.8242 -2.293,-3.0391 0,0.0157 0,0.0157 0,0.0157 -9.4492,-31.2266 -21.2773,-61.7071 -28.4843,-93.6446 -4.461,-20.7383 -12.6094,-42.1367 -10.1758,-63.5664 9.0312,-30.9844 52.3125,-25.707 71.1367,-6.9336 34.7539,30.7969 25.707,82.6055 -14.7617,103.3047 18.707,11.4141 41.164,17.6485 59.2617,29.7344 2.9844,1.668 5.8008,3.3867 7.3086,6.5664 z" /></g><g
             transform="translate(1629.8789,1603.9258)"
             id="g88"><path
               id="path90"
               style="fill:#ffffff;fill-opacity:1;fill-rule:nonzero;stroke:none"
               d="M 0,0 C 8.0586,-3.3164 8.7734,-6.0781 7.5898,-14.3633 6.3242,-23.1016 3.7539,-31.5742 0.625,-39.8242 c -2.5859,-6.1133 -5.9922,-11.8985 -10.543,-16.7969 -1.3867,-1.3516 -3.125,-2.8984 -5,-3.332 -0.7812,-0.1563 -1.5625,-0.2461 -2.3086,-0.2461 -7.1406,0 -12.2461,7.2969 -14.9882,13.3398 -7,18.0821 -4.7969,38.3125 -0.0352,56.7071 C -21.3633,7.0859 -10.6094,3.5937 0,0 Z m 23.7422,31.0195 c 6.8789,-7.8672 19.6094,0.8516 14.8516,10.1758 -9.086,18.5664 -21.5547,43.3008 -43.75,43.3008 -3.004,0 -6.1836,-0.4531 -9.5547,-1.4414 -24.75,-8.6328 -32.0782,-38.9414 -38.1563,-61.6211 -5.4531,-24.7852 -5.8711,-52.0352 5.3164,-75.3086 10.6445,-21.6602 34.9766,-31.5938 53.5078,-12.5742 15.8047,13.8242 34.1993,58.6523 17.6993,76.2265 -9.8321,10.2461 -23.7071,10.1602 -37.2891,10.0547 -5.2266,-0.0312 -10.4375,-0.0664 -15.3203,0.5039 4.6914,11.9493 11.1875,31.4375 23.5508,37.0313 7.8515,0.6406 15.9101,-12.4375 21.3281,-17.4375 2.6758,-2.9024 5.3515,-5.8008 7.8164,-8.9102 z" /></g><g
             transform="translate(571.8789,1694.9336)"
             id="g92"><path
               id="path94"
               style="fill:#ffffff;fill-opacity:1;fill-rule:nonzero;stroke:none"
               d="m 0,0 c 2.1875,9.9531 -6.1484,16.3945 -14.2266,16.3945 -5.332,0 -10.5429,-2.7773 -12.5742,-9.2226 -5.75,-20.6133 -10.5234,-41.5625 -15.0234,-62.4883 -4.4453,-20.6524 -8.1953,-41.457 -12.2422,-62.1953 -4.4141,31.6797 -4.3945,66.6562 -7.3125,97.9023 0.1562,19.4688 -21.1211,33.3281 -33.6094,14.0703 -12.207,-27.164 -18.0078,-56.8828 -25.8086,-85.5547 -1.4062,28.8477 -1.7187,57.7657 -0.9375,86.6485 7.1758,10.543 -8.8554,22.5234 -16.9492,12.6601 -4.5508,-4.6718 -1.3398,-10.6132 -1.4414,-16.1171 -0.0898,-45.1407 -4.1016,-90.7813 2.6406,-135.625 1.4571,-14.1914 19.6602,-14.2071 23.9649,-1.5469 11.4453,27.0781 17.8047,56.0469 27.3047,83.8515 2.9843,-26.625 5.4335,-53.7695 14.832,-79.0585 6.2851,-22.3868 25.2187,-25.0118 32.7187,-1.7383 9.2422,28.5039 14.4336,58.1484 22.6133,86.9804 C -10.9453,-36.6133 -4.6562,-18.5508 0,0 Z" /></g><g
             transform="translate(657.8672,1601.2148)"
             id="g96"><path
               id="path98"
               style="fill:#ffffff;fill-opacity:1;fill-rule:nonzero;stroke:none"
               d="m 0,0 c 5.4531,29.6836 7.3789,64.4531 -13.668,88.7344 -4.8633,5.6953 -12.1601,9.0664 -19.4726,9.0664 -0.0157,0 -0.0352,0 -0.0508,0 -3.8047,0 -7.5899,-0.9219 -11.0469,-2.9024 C -54,89.4805 -60.2344,79.5625 -65.0977,69.8203 -82.9336,33.625 -84.8789,-7.8164 -86.8047,-47.4141 c -0.0703,-1.8945 2.4649,-3.3007 3.8203,-1.5781 2.8125,3.9219 3.7149,8.8399 5.2266,13.3555 9.2578,31.8672 16.3789,87.8633 44.793,107.957 18.5468,-19.1367 11.0781,-49.1523 6.4765,-72.5469 -3.1445,-13.7031 -7.1562,-27.039 -10.8359,-40.3632 -3.4727,-9.375 6.5312,-19.293 15.875,-15.629 2.8633,1.0235 5.7461,3.3165 6.9453,6.2188 7,15.9609 11.8437,32.7734 14.5039,50 z" /></g></g></g></g><g
       transform="matrix(1,0,0,-1,0,2100)"
       id="g100"><g
         id="g102"><g
           clip-path="url(#clipPath108)"
           id="g104"><g
             transform="translate(528.8541,703.3524)"
             id="g110"><path
               id="path112"
               style="fill:#000000;fill-opacity:1;fill-rule:nonzero;stroke:none"
               d="m 0,0 c -9.0394,-3.8276 -15.1418,-12.2571 -18.3436,-21.2804 -1.5567,-4.4053 -2.2748,-9.0393 -2.8325,-13.6733 -0.5256,-4.2489 -0.333,-8.6543 -0.1404,-12.9232 0.2086,-4.3692 0.8385,-8.7063 1.4845,-13.0434 2.4674,-16.4378 8.3091,-32.2295 14.8288,-47.4396 3.2699,-7.6591 7.2219,-15.0736 11.3143,-22.3155 3.8115,-6.6963 7.8878,-13.3244 12.3132,-19.6194 4.7705,-6.7845 9.6693,-13.4447 14.9653,-19.812 5.264,-6.3271 10.8248,-12.3613 16.6304,-18.203 3.4624,-3.4625 7.1335,-6.7484 10.913,-9.8779 0.3249,-0.2728 0.6459,-0.5256 0.7502,-0.6138 6.3673,-5.264 13.1318,-10.3674 20.4941,-14.1469 10.9652,-5.6129 23.6074,-10.4556 36.041,-7.1335 4.2649,1.1554 8.0443,3.1294 11.4707,5.9299 3.4425,2.7965 6.1908,6.8888 7.9721,10.909 1.7333,3.8998 2.8688,7.9761 3.5669,12.1728 1.2076,7.3061 1.1194,14.9653 -0.2608,22.2593 -0.0522,0.297 -0.1043,0.5778 -0.1565,0.8747 0.1203,0.3491 0.2086,0.7142 0.2447,1.0993 0.2247,1.8737 -0.682,3.7955 -2.2026,4.8788 -1.2238,1.6089 -3.6752,1.978 -5.3883,0.9107 -0.7503,-0.4734 -1.2919,-1.1715 -1.6089,-1.9578 -0.7703,-0.8948 -1.2237,-2.0302 -1.2037,-3.3743 0.0321,-0.9268 0.313,-1.8215 0.7664,-2.5717 0.0361,-0.666 0.0722,-1.312 0.0722,-1.9419 0.0682,-3.1656 0.0521,-6.3312 -0.0522,-9.4928 -0.1605,-2.6961 -0.4213,-5.3521 -0.6821,-7.3302 -0.4052,-2.1825 -0.8946,-4.317 -1.4524,-6.4514 -0.5255,-1.5728 -1.1033,-3.1135 -1.7653,-4.634 -0.4734,-0.9068 -0.9789,-1.8015 -1.5206,-2.6761 -0.3851,-0.5738 -0.8064,-1.1355 -1.2277,-1.6772 -0.5216,-0.6298 -1.0833,-1.2236 -1.661,-1.8014 -0.3491,-0.333 -0.7141,-0.6459 -1.0993,-0.9268 -0.646,-0.4534 -1.2959,-0.8907 -1.3481,-0.9428 -0.7342,-0.4213 -1.5046,-0.7864 -2.291,-1.1034 -0.9789,-0.349 -1.9579,-0.6459 -2.9729,-0.9107 -0.7503,-0.1364 -1.5006,-0.2448 -2.2549,-0.3491 -1.344,-0.0843 -2.676,-0.1204 -3.2498,-0.0843 -1.332,0.0843 -2.6601,0.2448 -3.9881,0.4534 -1.7132,0.333 -3.3943,0.7704 -5.0553,1.2759 -1.9579,0.666 -3.8637,1.4524 -5.7694,2.2388 -3.3743,1.661 -6.6281,3.4424 -9.8258,5.4043 -3.3942,2.2548 -6.7684,4.5779 -9.7776,7.0092 -0.1925,0.1766 -0.3851,0.333 -0.5937,0.5096 -0.0161,0.016 -0.0362,0.016 -0.0161,0.016 -0.8747,0.7342 -1.7493,1.4524 -2.6079,2.1666 -5.1556,4.5497 -10.0344,9.3041 -14.7566,14.2872 -5.7896,6.3994 -11.226,13.1157 -16.3696,20.0246 -7.3262,10.3152 -13.898,21.0356 -19.4428,31.1944 -2.5718,4.8787 -5.0032,9.8097 -7.3262,14.8088 -2.3431,5.0553 -4.4415,10.247 -6.5077,15.4066 -1.677,4.6501 -3.2699,9.3042 -4.7905,14.0265 -1.4484,4.5096 -2.4835,9.2118 -3.5668,13.8459 -0.8024,4.4615 -1.5046,8.9029 -2.0983,13.3965 -0.1565,2.1144 -0.333,4.2328 -0.3852,6.3632 -0.0161,2.0824 0.0201,4.1646 0.0722,6.243 0.2087,2.0662 0.4534,4.0924 0.7503,6.1225 0.3851,1.7292 0.8225,3.4263 1.312,5.1235 0.2969,0.8024 0.6138,1.5888 0.9428,2.3752 0.5256,1.0351 1.0873,2.0301 1.6811,3.0251 0.2247,0.317 0.4694,0.6299 0.7142,0.9469 0.4052,0.4534 0.8224,0.9068 1.2598,1.3441 0.2648,0.2287 0.5416,0.4574 0.8225,0.666 0.4734,0.3129 0.9428,0.6299 1.4524,0.9268 0.5255,0.2447 1.0471,0.4894 1.5727,0.6981 0.4013,0.1404 0.7864,0.2648 1.1876,0.3691 0.8747,0.1565 1.7493,0.2969 2.644,0.4012 0.8706,0.0361 1.7453,0.0522 2.62,0.0361 1.0511,-0.0722 2.0662,-0.1925 3.0973,-0.333 1.6931,-0.333 3.3381,-0.7703 4.9991,-1.2237 2.311,-0.8225 4.5658,-1.7333 6.8046,-2.7122 3.2499,-1.6409 6.3994,-3.4263 9.4927,-5.3322 4.0925,-2.7643 8.0284,-5.6811 11.876,-8.7584 4.7022,-3.9881 9.248,-8.0965 13.6212,-12.4016 2.0262,-1.99 4.0041,-4.0201 5.9982,-6.0302 1.2557,-1.2759 2.5517,-2.6079 4.1445,-3.4785 2.2027,-1.2277 4.5458,-1.5567 6.8166,-1.1194 0.5096,-0.1244 1.0312,-0.1926 1.5929,-0.2126 3.0251,-0.0522 5.629,2.5356 5.962,5.4404 0.0722,0.3852 0.0883,0.7864 0.0722,1.1716 0.2608,0.682 0.4373,1.4162 0.5216,2.2026 0.2127,1.9579 -0.2086,3.7233 -0.9268,5.5608 -0.7663,1.958 -2.4634,3.7073 -3.7914,5.3322 -2.4675,3.0251 -5.1236,5.8938 -7.7836,8.7424 -5.4204,5.7735 -11.3664,10.9813 -17.5371,15.9322 -3.2899,2.624 -6.7845,4.9831 -10.3353,7.2379 -3.4986,2.2027 -7.1335,4.285 -10.913,5.93 C 34.0269,-0.9067 30.059,0.5096 25.8983,1.629 22.4519,2.5557 18.849,3.0092 15.2662,3.0092 10.0383,3.0092 4.7905,2.0302 0,0 Z" /></g><g
             transform="translate(1565.6035,711.3445)"
             id="g114"><path
               id="path116"
               style="fill:#000000;fill-opacity:1;fill-rule:nonzero;stroke:none"
               d="m 0,0 c -4.8108,-0.3491 -9.6011,-2.0622 -13.9705,-4.0923 -3.1655,-1.4845 -6.2107,-3.2178 -9.1477,-5.1396 -6.3991,-4.1807 -12.3774,-9.0594 -17.8339,-14.3916 -2.5196,-2.4474 -4.8989,-4.9991 -7.2579,-7.5869 -1.9941,-2.1706 -3.9519,-4.3572 -5.5769,-6.6281 -0.4373,-0.5938 -0.8947,-1.1394 -1.2599,-1.5768 -0.0521,-0.0521 -0.1043,-0.1043 -0.1765,-0.1564 0,0 -0.0521,-0.0683 -0.0521,-0.0683 -1.5568,-1.6449 -3.1295,-3.2699 -4.614,-5.0031 -1.3842,-1.5727 -2.7283,-3.1977 -4.1445,-4.7383 -0.6822,-0.6981 -1.4163,-1.328 -2.0823,-2.0462 -0.1204,-0.1204 -0.2448,-0.2247 -0.3651,-0.333 -2.0302,-1.7653 -1.7493,-5.1395 0.2607,-6.7645 2.0984,-1.7132 5.2278,-1.1194 6.6602,1.1194 0.0361,0.0682 0.0722,0.1204 0.1084,0.1926 0.4693,0.5938 0.9427,1.2036 1.0832,1.3802 0.682,0.9789 1.5045,1.8375 1.942,2.327 1.2918,1.3802 2.6399,2.7082 3.9679,4.0723 1.5367,1.6089 3.0412,3.286 4.7384,4.7383 1.2076,0.963 2.4994,1.8176 3.7071,2.8166 2.1145,1.7654 4.2849,3.4785 6.5038,5.1235 5.0191,3.7754 10.1065,7.4305 15.3543,10.8568 3.5508,2.1706 7.2058,4.1807 10.9654,5.9821 2.0783,0.8747 4.1606,1.645 6.2749,2.3431 1.1193,0.2809 2.2387,0.5617 3.3581,0.8065 0.8748,0.1203 1.7493,0.2086 2.624,0.2768 0.5938,-0.016 1.1717,-0.0321 1.7654,-0.0682 0.4534,-0.0521 0.9268,-0.1244 1.3801,-0.2086 0.4053,-0.1244 0.8064,-0.2287 1.2078,-0.3692 0.2285,-0.1043 0.4373,-0.1925 0.666,-0.2968 0.1563,-0.1043 0.3128,-0.2087 0.4693,-0.2969 0.2126,-0.1766 0.4214,-0.3491 0.6298,-0.5096 0.1766,-0.1725 0.3331,-0.3491 0.5096,-0.5215 0.1565,-0.2127 0.313,-0.4053 0.4533,-0.6139 0.2449,-0.4173 0.4737,-0.8385 0.6822,-1.2598 0.1926,-0.4895 0.3852,-0.979 0.5576,-1.4684 0.2287,-0.8547 0.4375,-1.7132 0.614,-2.5679 0.2085,-1.5928 0.3491,-3.1856 0.4534,-4.7744 0,-2.5036 -0.1204,-4.9831 -0.313,-7.4666 -0.5095,-3.8998 -1.1875,-7.7314 -1.958,-11.579 -1.8216,-7.3061 -3.9881,-14.4598 -6.4715,-21.3326 -2.1145,-5.5608 -4.3894,-11.0494 -6.8527,-16.4698 -2.5357,-5.5448 -5.3001,-10.9652 -8.0965,-16.3856 -7.3784,-13.7255 -15.6514,-26.9135 -24.3418,-39.327 -0.1404,-0.1766 -0.2607,-0.3491 -0.4012,-0.5256 0,0 -0.02,-0.0361 -0.02,-0.0361 -3.8116,-5.2599 -7.7275,-10.4557 -11.8038,-15.5069 -4.3531,-5.3522 -8.8829,-10.4918 -13.4968,-15.5832 -5.5288,-5.8056 -11.2261,-11.3463 -17.2602,-16.6103 -4.9309,-4.0562 -9.9502,-7.8156 -14.7568,-10.929 -2.0982,-1.2438 -4.1966,-2.3953 -6.3511,-3.5507 -2.2348,-1.0312 -4.4415,-2.0102 -6.7846,-2.7965 -1.2759,-0.3691 -2.5516,-0.6821 -3.8436,-0.9469 -0.999,-0.1364 -1.994,-0.2447 -3.0091,-0.3129 -0.6821,-0.0161 -1.3641,0 -1.6088,0 -0.5417,0.0682 -1.0673,0.1404 -1.6089,0.2287 -0.7343,0.1926 -1.4324,0.4012 -2.1345,0.662 -0.3331,0.1244 -0.6459,0.2808 -0.9428,0.4373 -0.1926,0.1244 -0.3853,0.2448 -0.5778,0.3491 -0.3651,0.2808 -0.7342,0.5777 -1.0833,0.8947 -0.1765,0.1725 -0.333,0.349 -0.5055,0.5215 -0.2127,0.2809 -0.4213,0.5617 -0.6299,0.8426 -0.4053,0.6459 -0.7704,1.328 -1.1034,2.0101 -0.333,0.8545 -0.6299,1.6971 -0.9268,2.5517 -0.2286,1.015 -0.4533,2.01 -0.646,3.0411 -0.1243,1.1917 -0.2286,2.3793 -0.3168,3.5869 -0.0522,3.1455 0.1243,6.2269 0.3851,8.8147 0.6139,4.4214 1.4685,8.7585 2.3631,12.57 1.5889,6.0704 3.4786,11.9803 5.5929,17.8701 0.3853,0.999 0.7704,1.994 1.0152,2.6079 1.0511,2.6239 2.2226,5.1757 3.322,7.7635 0.9429,2.2388 0.0361,4.8787 -2.2188,5.9099 -2.1705,0.9789 -4.967,0.016 -5.9099,-2.2187 -0.1925,-0.4373 -0.353,-0.8947 -0.5095,-1.3481 -2.2909,-5.962 -4.65,-11.908 -6.6079,-18.0266 -2.1505,-6.7323 -3.8838,-13.553 -5.0553,-20.5301 -1.0994,-6.4876 -1.4003,-13.2561 -0.2609,-19.7597 0.7143,-4.1085 2.3432,-8.1648 4.9109,-11.4547 4.4414,-5.629 11.7877,-7.1176 18.5883,-6.5238 4.9149,0.4374 9.5328,2.2589 14.0425,4.1807 2.4995,1.0833 5.0191,2.4314 7.3462,3.8637 4.931,3.0452 9.7054,6.295 14.2512,9.9341 9.0032,7.2218 17.5008,15.1417 25.2323,23.5351 9.268,10.0544 18.151,20.478 26.2274,31.5114 8.4136,11.4868 16.1931,23.3105 23.4148,35.5676 3.7795,6.4355 7.1899,13.0796 10.512,19.7398 3.1455,6.279 6.0141,12.7666 8.4455,19.1138 0.052,0.1404 0.1043,0.2808 0.1043,0.2808 0.0361,0.1204 0.0883,0.2448 0.1403,0.3852 0.4373,1.1194 0.8548,2.2709 0.9429,2.4835 0,0 0.2608,0.6821 0.2608,0.6821 2.4836,6.4876 4.582,13.22 5.9982,20.0206 1.5247,7.274 2.5357,14.6001 2.0301,22.0507 -0.3491,5.1596 -1.7493,10.5961 -4.7583,14.865 -2.6199,3.6871 -6.0503,6.4515 -10.2271,8.2008 C 9.2158,-0.333 5.998,0.1043 2.7803,0.1043 1.8535,0.1043 0.9106,0.0723 0,0 Z" /></g><g
             transform="translate(1551.613,690.012)"
             id="g118"><path
               id="path120"
               style="fill:#000000;fill-opacity:1;fill-rule:nonzero;stroke:none"
               d="m 0,0 c -29.7781,2.9569 -65.0488,-62.7941 -72.8806,-87.7295 -9.5488,-5.8216 -13.7816,-16.4538 -18.5562,-25.8262 -17.5892,-1.4002 -25.3005,-26.6325 -28.6747,-41.305 -3.1295,-15.6152 6.2067,-33.3809 22.3998,-36.6869 22.2232,-4.947 40.2859,17.541 45.1125,37.036 17.3123,9.4446 28.5744,27.3668 41.6541,41.7263 15.8079,20.161 31.2466,41.4775 39.0823,66.1482 C 35.8164,-26.8693 28.1492,0.4132 5.0874,0.4172 3.4666,0.4172 1.7734,0.2808 0,0 Z" /></g><g
             transform="translate(701.0431,1103.1783)"
             id="g122"><path
               id="path124"
               style="fill:#ffffff;fill-opacity:0.684146;fill-rule:nonzero;stroke:none"
               d="M 0,0 C -54.2602,-68.6317 33.0641,-159.1255 103.8342,-107.698 169.7858,-53.7667 118.972,28.7068 57.9714,28.7189 38.5286,28.7229 18.0627,20.3496 0,0 Z" /></g><g
             transform="translate(1313.5365,1104.2656)"
             id="g126"><path
               id="path128"
               style="fill:#ffffff;fill-opacity:0.684146;fill-rule:nonzero;stroke:none"
               d="M 0,0 C -76.5557,-76.4874 34.693,-193.0683 114.6068,-119.1165 173.9666,-59.813 120.4084,23.5994 56.1018,23.6034 37.4734,23.6074 17.9503,16.6102 0,0 Z" /></g><g
             transform="translate(581.8152,652.7122)"
             id="g130"><path
               id="path132"
               style="fill:#000000;fill-opacity:1;fill-rule:nonzero;stroke:none"
               d="m 0,0 c -1.1,-2.8456 -0.4775,-5.8781 0.5623,-8.6406 1.0064,-2.8092 2.0105,-5.6266 3.1174,-8.4003 -3.0442,1.3218 -4.9173,4.5562 -8.2149,5.283 -1.5433,0.4478 -2.6095,-1.6829 -1.3205,-2.6444 1.6181,-1.3176 3.298,-2.5103 5.1244,-3.5254 1.9755,-1.9607 3.858,-4.0305 5.6512,-6.1697 -1.2505,-6.1161 -0.5684,-14.2982 5.0955,-18.0275 1.7731,-1.229 4.2525,-1.1393 6.0445,-0.0093 1.9859,-3.5557 4.1647,-7.2569 8.2876,-8.5377 0.9479,-0.4598 2.0777,-0.3124 2.968,0.2232 0.748,-1.0992 1.6639,-2.7356 3.239,-2.0474 0.8477,0.3594 1.2969,1.3086 1.0625,2.1953 -0.4558,1.8266 -1.2137,3.5408 -2.1028,5.195 -0.1203,2.4203 -0.224,4.9625 -1.354,7.1684 -1.483,2.4587 -2.4749,5.3123 -3.3482,7.8925 2.4464,0.9307 3.4069,4.3197 1.6995,6.3574 -2.7794,3.3882 -5.6039,6.7333 -8.4499,10.0635 C 15.649,-9.4256 12.7632,3.7085 5.9377,-1.2988 4.9257,-0.1602 4.1236,1.8224 2.3726,1.7693 1.3285,1.7693 0.2897,1.1387 0,0 Z m 4.1884,-18.2991 c 0.1455,-0.3573 0.2915,-0.715 0.4385,-1.0727 -0.1805,0.2085 -0.3619,0.4166 -0.5439,0.6239 0.0593,0.1455 0.0941,0.2968 0.1054,0.4488 z" /></g><g
             transform="translate(573.2643,661.8902)"
             id="g134"><path
               id="path136"
               style="fill:#000000;fill-opacity:1;fill-rule:nonzero;stroke:none"
               d="m 0,0 c -9.5419,-9.1683 -4.7381,-24.2115 5.9966,-30.0716 1.2378,-5.566 5.1123,-10.1769 7.2604,-15.4277 -2.7078,-4.6403 0.3609,-10.2721 1.3094,-15.0711 0.9992,-7.6117 6.3984,-16.3551 14.3504,-9.4973 6.2556,-1.7529 12.2562,4.5986 10.477,10.7861 -1.1467,4.3527 -3.3041,8.2994 -4.8095,12.539 8.5256,5.8 6.1637,16.8714 2.7264,24.937 C 34.7756,-5.0179 16.257,14.9424 0,0 Z" /></g><g
             transform="translate(1483.8567,615.6932)"
             id="g138"><path
               id="path140"
               style="fill:#000000;fill-opacity:1;fill-rule:nonzero;stroke:none"
               d="m 0,0 c -0.4683,-0.7347 -0.8297,-1.5437 -1.146,-2.3748 -0.5267,-0.9067 -1.0895,-1.7951 -1.6642,-2.676 -7.2189,0.2861 -10.4122,-6.7146 -13.0814,-12.2746 -4.819,0.6871 -9.3312,-2.5315 -11.0884,-6.9057 -9.1044,-2.4616 -8.3683,-11.6122 -9.3777,-19.1015 -2.2935,-1.8773 -3.9066,-4.5731 -4.2712,-7.5932 -0.2477,-2.0657 -0.3518,-4.152 -0.4342,-6.2398 -3.7767,-6.5106 -3.673,-17.1761 1.2074,-23.0566 6.1129,-6.3737 16.9912,-2.2538 18.8435,5.9513 8.9796,-3.4007 18.0745,1.7752 24.9543,7.3356 -1.1331,-3.4944 0.1379,-7.9238 3.6563,-9.4188 0.097,-1.9609 1.0223,-3.7121 1.9094,-5.4311 0.0029,0.0018 0.006,0.0035 0.0088,0.0052 3.8065,-6.3155 14.7849,-4.5135 17.229,2.2136 1.9111,4.2541 1.3577,9.6125 -2.4062,12.6651 1.4709,3.6122 0.2158,8.5442 -3.7,9.8929 2.4769,6.2057 2.1116,15.5891 -6.0187,16.8531 -9.2199,0.1204 -17.1578,-9.2268 -24.9173,-12.8277 0.3626,2.3626 0.702,4.7315 1.0349,7.1002 0.1055,0.75 0.2048,1.5008 0.3008,2.2527 3.7354,3.5967 4.6766,9.1236 6.7796,13.7029 3.2637,2.1746 3.9187,6.6034 5.3532,10.0209 1.2986,3.3354 2.7596,7.3762 0.6777,10.6871 0.6268,2.2647 1.9146,4.2761 2.5956,6.5041 C 7.5906,1.1247 2.0052,3.5001 0,0 Z" /></g><g
             transform="translate(1564.8118,725.0085)"
             id="g142"><path
               id="path144"
               style="fill:#000000;fill-opacity:1;fill-rule:nonzero;stroke:none"
               d="m 0,0 c -13.0098,-0.2175 -25.9504,-6.4232 -34.5352,-16.1643 -5.3579,-6.0067 -7.9936,-13.726 -11.5351,-20.8281 -1.8399,-3.937 -3.0302,-8.1196 -4.9004,-12.0435 -2.7987,-3.6792 -3.6426,-9.2453 2.3225,-9.8514 6.3091,0.43 2.4402,7.5103 12.6169,13.284 13.3091,8.8882 29.7461,14.5227 45.7771,14.55 9.9419,-17.4022 -9.8845,-36.8935 -15.3239,-53.2165 -1.3477,-3.1054 -2.5078,-6.3047 -3.7888,-9.441 -2.0198,-4.5168 4.5256,-8.3898 7.4802,-4.3676 6.8115,8.7876 13.1784,17.8904 19.7344,26.8672 3.2382,4.5235 6.375,9.3086 8.2815,14.5703 2.5427,7.6348 4.4423,15.5096 5.6516,23.4684 C 34.3982,-14.4829 18.4749,1.1669 0,0 Z" /></g><g
             transform="translate(1580.6936,705.4489)"
             id="g146"><path
               id="path148"
               style="fill:#000000;fill-opacity:1;fill-rule:nonzero;stroke:none"
               d="m 0,0 c -0.7461,-1.2695 -0.5273,-2.9297 0.5117,-3.9687 0.5789,-0.5788 1.3245,-0.8911 2.0933,-0.9388 3.8974,-11.1245 -2.3831,-23.089 -5.4756,-33.7543 -2.7285,-7.9043 -6.8169,-15.2185 -10.5242,-22.6859 -1.4848,-3.8083 -5.665,-8.5748 -2.0544,-12.3436 4.9253,-4.0791 8.2053,0.8115 10.7383,4.7382 5.0539,7.388 10.2756,14.7563 13.7817,23.039 3.7053,9.5237 7.875,24.0961 5.6987,34.1601 -0.3828,2.5019 -2.4238,6.5482 -5.2827,3.9798 -0.8613,2.365 -1.8628,4.6928 -3.425,6.6787 C 5.6667,1.8401 1.4192,2.6031 0,0 Z" /></g></g></g></g><g
       transform="matrix(1,0,0,-1,0,2100)"
       id="g150"><g
         id="g152"><g
           clip-path="url(#clipPath158)"
           id="g154"><g
             transform="translate(770.0842,1047.1299)"
             id="g160"><path
               id="path162"
               style="fill:#000000;fill-opacity:1;fill-rule:nonzero;stroke:none"
               d="m 0,0 c -40.0313,-11.6055 -80.1641,-22.9727 -119.8984,-35.5742 -9.0703,-2.8711 -18.1368,-5.7422 -27.1875,-8.6836 -1.7227,-0.5586 -2.7852,-2.3672 -2.2618,-4.1602 0.504,-1.7031 2.4375,-2.8359 4.1602,-2.2617 48.6445,15.9766 97.8984,30.0586 146.8906,44.8672 3.4102,0.9688 2.3125,5.9648 -0.75,5.9648 C 0.6523,0.1523 0.332,0.1055 0,0 Z" /></g><g
             transform="translate(1474.0725,1069.5123)"
             id="g164"><path
               id="path166"
               style="fill:#000000;fill-opacity:1;fill-rule:nonzero;stroke:none"
               d="m 0,0 c -42.4297,-5.1836 -84.9336,-10.3203 -127.2617,-16.2188 -6.6289,-0.871 -13.2266,-1.9492 -19.8399,-2.7695 -1.7578,-0.1914 -3.707,-0.3828 -4.8711,-1.8437 -1.8632,-2.4024 1.2852,-5.7422 3.8086,-4.1602 34.7578,3.4102 69.5157,7.5352 104.2891,11.0195 15.1055,1.5313 30.1602,3.1329 45.2852,4.7657 5.6835,0.8476 4.75,9.2656 -0.6211,9.2656 C 0.5352,0.0586 0.2734,0.0391 0,0 Z" /></g><g
             transform="translate(1333.967,1011.7661)"
             id="g168"><path
               id="path170"
               style="fill:#000000;fill-opacity:1;fill-rule:nonzero;stroke:none"
               d="m 0,0 c -2.0234,0 -3.0273,-1.5156 -3.0273,-3.0469 0.0156,-1.582 1.0976,-3.1484 3.2382,-3.0468 43.6836,-8.6836 85.9766,-23.461 129.4688,-33.2071 17.8047,-4.3828 35.6094,-8.7539 53.414,-13.0703 6.5977,-1.6367 9.3125,8.4609 2.5938,10.2188 -33.6758,7.3789 -67.4258,14.5664 -100.875,22.6757 C 56.5469,-13.3164 28.8398,-3.3086 0.0703,0 0.0469,0 0.0234,0 0,0 Z" /></g><g
             transform="translate(611.2874,1100.1964)"
             id="g172"><path
               id="path174"
               style="fill:#000000;fill-opacity:1;fill-rule:nonzero;stroke:none"
               d="m 0,0 c -1.7578,-4.3164 3.8984,-4.1758 6.6836,-4.5781 32.7891,-5.2891 65.0742,-11.7813 97.9336,-16.2188 26.957,-3.4804 53.9883,-6.25 81,-9.1562 5.3242,-0.5899 6.4375,7.5898 0.9922,8.25 C 144.5937,-18.0469 102.4766,-15 60.8438,-7.9883 41.6133,-5.0469 22.4688,-1.2695 3.168,1.2188 2.8984,1.3164 2.6211,1.3594 2.3398,1.3594 1.4023,1.3594 0.4687,0.8477 0,0 Z" /></g><g
             transform="translate(1547.2256,694.4578)"
             id="g176"><path
               id="path178"
               style="fill:#000000;fill-opacity:1;fill-rule:nonzero;stroke:none"
               d="m 0,0 c -4.2404,-3.1636 -7.7004,-6.8149 -10.4974,-11.2971 -0.9049,-1.4433 -1.5994,-3.1129 -2.017,-4.8488 -13.8169,-13.7468 -32.7792,-33.6142 -25.2544,-54.6635 1.2367,-4.5524 6.7798,-7.3689 6.8306,-12.0265 -5.7696,-20.1093 -13.8678,-39.2276 -20.5579,-59.0248 -4.5913,-3.0076 -4.7631,-9.0189 -7.755,-13.2631 0.0352,0 0.0546,0 0.0897,0 -3.3197,-5.196 4.2559,-10.9655 8.5313,-6.4288 1.8608,1.8062 3.6006,3.823 5.2662,5.8398 3.6864,1.061 5.3911,4.9541 6.7291,8.188 5.7188,13.9029 10.7393,28.0866 15.8144,42.2157 2.5394,8.5352 7.3534,17.2069 5.9605,26.296 -0.9557,6.7798 -8.149,9.924 -10.0254,16.2162 0,0 0.121,-0.0859 0.121,-0.0859 -0.2457,13.6611 10.7237,25.0439 19.5358,34.0472 5.0049,-2.5902 10.7041,0 13.6767,4.3808 1.7203,-0.6593 3.6163,-0.9363 5.4768,-0.8153 16.3526,-14.4451 35.9236,8.6873 20.9947,23.4445 C 29.2881,1.8256 23.8813,3.0778 18.8608,3.1129 16.614,3.9243 14.3203,4.33 12.0498,4.33 7.7744,4.33 3.5889,2.8867 0,0 Z" /></g><g
             transform="translate(541.9829,698.0388)"
             id="g180"><path
               id="path182"
               style="fill:#000000;fill-opacity:1;fill-rule:nonzero;stroke:none"
               d="m 0,0 c -17.5698,-2.7112 -22.6956,-22.7853 -17.3786,-37.6127 -2.4693,-5.2662 -3.1129,-11.3672 -1.3575,-17.2576 3.8775,-12.916 8.1022,-25.6563 12.6897,-38.3265 14.3397,-33.977 32.5375,-69.1398 61.9972,-92.323 10.5325,-11.1059 22.9569,-20.7529 37.6282,-25.6914 28.8005,-5.8904 41.3498,24.0374 31.4765,47.3805 -3.9633,9.924 -10.2204,18.5996 -16.4423,27.2011 -6.9515,9.5767 -14.4607,18.7517 -21.0143,28.625 C 80.4407,-97.1563 70.4115,-84.2949 55.8611,-86.694 46.062,-70.1502 39.056,-52.0889 32.1903,-34.1721 27.244,-19.5748 22.009,0.3433 4.2286,0.3472 2.8906,0.3472 1.4862,0.234 0,0 Z" /></g><g
             transform="translate(1472.6829,541.4404)"
             id="g184"><path
               id="path186"
               style="fill:#000000;fill-opacity:1;fill-rule:nonzero;stroke:none"
               d="m 0,0 c -0.3667,0 -0.6982,-0.1404 -0.9244,-0.3823 -0.0157,0 -0.0157,0 -0.0157,0 -0.9908,-0.905 -1.7203,-2.1923 -2.4848,-3.2885 -1.338,-1.9114 -2.6761,-3.8033 -3.9986,-5.6485 -7.4741,-10.3218 -15.6582,-20.0741 -24.2793,-29.3544 -9.093,-9.5924 -18.7555,-18.5293 -28.7302,-26.8539 -6.7096,-5.5081 -13.5596,-10.8445 -20.6319,-15.8845 -7.006,-5.0049 -14.1994,-9.7328 -21.221,-14.2189 -7.4391,-4.6382 -14.9288,-9.21 -22.6487,-13.3996 -7.5053,-4.0843 -15.1706,-7.8565 -22.9569,-11.4531 -11.6988,-5.3521 -23.5185,-10.5325 -35.5802,-15.1199 -12.2684,-4.6773 -24.6968,-8.8824 -36.2903,-12.4791 -14.878,-4.486 -29.8614,-8.621 -44.9814,-12.2722 -14.3905,-3.4758 -28.9721,-6.2415 -43.5733,-8.742 -1.3028,-0.2263 -2.6058,-0.4369 -3.9282,-0.6593 -14.6869,-2.3639 -29.4402,-4.3456 -44.2519,-5.668 -14.8781,-1.338 -29.7719,-2.1377 -44.4588,-2.6604 -16.1458,-0.4486 -32.3112,-0.4681 -48.4728,0.0702 -16.4072,0.5734 -32.7794,1.7749 -47.677,3.3041 -29.5806,3.1987 -58.9702,8.028 -87.9266,14.8937 -13.349,3.2494 -26.6121,6.8812 -39.7348,11.0201 -12.7052,4.014 -25.2701,8.4454 -37.3161,12.9666 -0.2419,0.1014 -0.4838,0.1911 -0.7295,0.2926 0,0 -0.1365,0.0546 -0.1365,0.0546 -10.4662,4.0647 -20.8231,8.3597 -31.0084,13.0681 -9.803,4.5718 -19.3797,9.5962 -28.7654,14.6518 -15.4164,8.4143 -30.4154,17.6243 -44.092,27.4117 -7.7902,5.6837 -15.3306,11.695 -22.7697,17.8311 -3.3898,2.797 -6.7446,5.6329 -10.0643,8.5157 -1.8257,1.6189 -3.6669,3.425 -5.8748,4.5368 -0.3979,0.2262 -0.7997,0.4525 -1.2327,0.5929 -0.4369,0.3472 -0.8543,0.71 -1.2717,1.0064 -0.0507,0.0508 -0.1209,0.1054 -0.1716,0.1405 -0.0351,0.0156 -0.0507,0.0351 -0.0858,0.0507 0,0 0.0156,0 0.0156,0 -0.3121,0.2263 -0.6086,0.433 -0.9207,0.6085 -0.0155,0.593 -0.2106,1.182 -0.4876,1.7203 -0.0155,0.0352 -0.0155,0.0547 -0.0155,0.0352 0,0.0195 -0.0196,0.035 -0.0196,0.0507 -0.156,0.3159 -0.3277,0.5734 -0.5188,0.8542 -0.1404,0.2419 -0.2809,0.4526 -0.4876,0.6242 -1.182,1.1664 -2.9881,1.4239 -4.3612,0.4174 -1.3927,-1.0064 -1.8959,-3.2338 -0.749,-4.6226 0.3316,-0.4174 0.6592,-0.6943 0.7295,-0.749 0.2613,-0.2067 0.5032,-0.3822 0.7489,-0.5383 0.0536,-0.0283 0.0995,-0.0668 0.1049,-0.0723 0,0 0.1019,-0.0642 0.1019,-0.0642 0.0195,0 0.0195,-0.0195 0.0351,-0.0195 0.5227,-0.3316 1.1118,-0.5735 1.7398,-0.6242 0.1911,-0.3822 0.3979,-0.7138 0.6241,-1.061 -0.0155,0 -0.0155,0 -0.0155,0 0.0155,0 0.0155,-0.0195 0.0311,-0.0351 0.0547,-0.0702 0.0898,-0.156 0.1054,-0.1756 0.3315,-0.5032 0.6943,-0.9362 1.0259,-1.4043 0.1405,-0.3823 0.3121,-0.749 0.5033,-1.1508 0.0194,-0.0312 0.0351,-0.0663 0.0194,-0.0507 0.0508,-0.0858 0.1015,-0.1911 0.1015,-0.2262 0.784,-1.5643 1.9465,-2.8828 3.0973,-4.2208 1.7554,-2.0714 3.6317,-4.0687 5.5081,-6.0503 5.1453,-5.4223 10.4974,-10.6183 16.0757,-15.6076 11.4218,-10.236 23.4835,-19.8127 36.0483,-28.5898 6.4482,-4.5017 12.9667,-8.9175 19.6411,-13.072 6.7759,-4.2403 13.7664,-8.1529 20.8192,-11.9563 14.5153,-7.8213 29.3037,-15.2097 44.5329,-21.5526 31.6988,-13.2085 64.6031,-23.1012 98.1275,-30.4349 32.6429,-7.127 65.945,-11.3829 99.2978,-13.1227 17.7258,-0.9011 35.5062,-1.217 51.812,-0.7294 17.4488,0.5227 34.7962,1.6501 52.1396,3.5108 16.9105,1.8256 33.7898,4.2949 50.5247,7.3181 16.6179,3.0076 33.0603,6.7447 49.3622,11.1566 16.5125,4.4666 32.8496,9.5417 48.8746,15.5569 15.6075,5.8396 30.9187,12.479 46.0073,19.606 7.5093,3.5615 14.9132,7.3688 22.2119,11.3478 7.2128,3.9125 14.2344,8.1528 21.2755,12.3775 14.4764,8.6874 28.5704,17.9364 41.9895,28.192 13.1227,10.0253 25.6525,20.784 37.4722,32.3424 9.0385,8.8317 17.6946,18.0925 25.7772,27.8097 4.0141,4.8138 7.8721,9.7679 11.5585,14.843 1.7554,2.4342 3.5109,4.8683 5.1961,7.3532 0.8698,1.2834 1.7358,2.5551 2.5706,3.858 0.4876,0.7646 1.0454,1.5799 1.338,2.4498 C 1.58,-0.9401 0.9011,-0.0351 0.0508,0 0.0312,0 0.0156,0 0,0 Z" /></g><g
             transform="translate(1443.2896,518.113)"
             id="g188"><path
               id="path190"
               style="fill:#000000;fill-opacity:1;fill-rule:nonzero;stroke:none"
               d="m 0,0 c -0.5891,-0.5891 -0.9011,-1.3887 -0.9558,-2.2079 -1.7359,-1.5799 -3.6824,-2.953 -5.4924,-4.3964 -2.3445,-1.8919 -4.7084,-3.7527 -7.0724,-5.5081 -0.1054,-0.0702 -0.2262,-0.156 -0.3316,-0.2262 -0.9363,-0.6944 -1.8919,-1.3927 -2.8321,-2.087 0,0 0,0 0.0156,0 -5.5782,-4.0648 -11.297,-7.8721 -16.9806,-11.8003 -6.7252,-4.6577 -13.4855,-9.2296 -20.4564,-13.5401 -13.0681,-8.1178 -26.226,-16.0951 -39.6607,-23.5498 -12.0968,-6.6745 -24.3183,-13.1578 -36.8129,-19.0326 -13.0369,-6.1166 -26.3663,-11.6793 -38.6386,-16.5125 -23.464,-9.1594 -47.4819,-16.7194 -71.886,-22.836 -25.4106,-6.2064 -51.1333,-10.4817 -77.0821,-13.3997 -16.4931,-1.7241 -33.0408,-2.992 -49.604,-3.6863 -17.2929,-0.7295 -34.6206,-0.3979 -50.7705,0.0156 -18.1081,0.5422 -36.1849,1.7398 -54.2267,3.5108 -17.9364,1.7554 -35.7519,4.4861 -53.6024,6.9007 -7.1075,0.9753 -14.215,1.9817 -21.2912,3.1286 0,0 -1.1821,0.2106 -1.1821,0.2106 -16.8246,2.8165 -33.4386,6.8656 -49.76,11.7847 -5.2467,1.615 -10.513,3.1948 -15.7636,4.7786 -16.8052,5.2155 -33.1617,11.7496 -49.2022,18.9975 -17.207,7.872 -33.8405,16.8597 -50.0761,24.2286 -3.5109,1.6501 -6.8461,3.6668 -10.3063,5.4222 -2.9529,1.4785 -5.8045,3.1637 -8.6366,4.884 -4.5719,2.8828 -8.8473,6.2375 -13.384,9.21 -3.9985,2.5902 -7.7355,5.6134 -11.2971,8.4845 -3.1831,2.5863 -6.2765,5.2663 -9.3349,7.9774 -2.2937,2.0129 -4.4821,4.1701 -6.8656,6.1166 -2.1026,1.7398 -3.9087,3.8073 -5.7694,5.3014 -2.7814,2.3132 -5.3872,4.9541 -7.9267,7.5795 -0.0351,0.0312 -0.0507,0.0858 -0.0858,0.1209 -0.9557,1.0922 -1.9466,2.1377 -2.953,3.1792 -0.4018,0.4681 -0.8192,0.9207 -1.3068,1.2874 -1.6501,1.2522 -4.135,0.9206 -5.5081,-0.5735 -1.5291,-1.654 -1.494,-4.3963 0.1911,-5.9099 0.0351,-0.0507 0.0703,-0.0858 0.121,-0.1209 1.0454,-1.1469 2.087,-2.3133 3.1987,-3.4094 0.8855,-0.9908 1.7749,-1.9817 2.5552,-2.797 1.7046,-1.7905 3.4054,-3.581 5.0399,-5.4066 1.81,-2.0324 3.8073,-3.8737 5.7188,-5.8397 5.3169,-5.6992 11.5077,-10.7392 17.3824,-15.8689 3.4055,-2.9881 6.932,-5.8397 10.2868,-8.9136 3.9282,-3.6318 8.3089,-6.7291 11.8705,-9.5768 2.6955,-2.1923 5.3559,-4.4314 7.9968,-6.6745 3.0076,-2.5745 6.1362,-5.0048 9.2296,-7.4741 2.0674,-1.7398 4.0842,-3.4952 6.2025,-5.1609 3.1831,-2.5044 6.4833,-4.8332 9.8576,-7.0919 7.4741,-5.0049 15.3267,-9.4363 23.2377,-13.7312 16.1615,-8.7927 33.0057,-16.3214 50.0215,-23.3431 7.8369,-3.2299 15.6582,-6.5184 23.6707,-9.3154 8.1178,-2.8515 16.3566,-5.4222 24.5758,-7.9617 16.809,-5.1961 33.7702,-9.8693 50.8406,-14.1096 9.2451,-2.2977 18.6815,-3.8775 28.1022,-5.3014 8.8473,-1.338 17.7452,-2.3288 26.6628,-3.1636 18.5605,-1.7203 37.1952,-2.5746 55.826,-2.5746 18.5957,0.0195 37.1095,1.2717 55.6192,2.9374 18.0067,1.5993 35.8728,3.9828 53.6689,7.1113 35.8416,6.3078 71.2619,15.5023 105.8825,26.694 17.5736,5.668 34.8859,12.2215 51.9173,19.3095 15.7285,6.538 31.0084,14.0277 46.1284,21.8841 14.7025,7.6302 28.9214,16.1108 42.7384,25.2702 13.6102,9.0228 26.417,19.1886 38.8297,29.7718 6.4482,5.4925 12.479,11.4726 18.4747,17.4332 2.3795,2.3639 4.6928,4.7981 7.0724,7.1816 2.1572,2.1532 4.174,4.447 6.3117,6.5691 0.0506,0.0507 0.0858,0.0858 0.1366,0.1365 0.9556,0.0196 1.8801,0.4369 2.59,1.147 1.303,1.2872 1.1314,3.5302 -0.1716,4.7279 C 4.1038,0.7841 3.3041,1.061 2.5199,1.061 1.5994,1.061 0.6787,0.6788 0,0 Z" /></g><g
             transform="translate(1451.8403,513.6308)"
             id="g192"><path
               id="path194"
               style="fill:#000000;fill-opacity:1;fill-rule:nonzero;stroke:none"
               d="m 0,0 c -10.9304,-13.8522 -26.7993,-22.5083 -41.4862,-31.8237 -29.686,-19.5904 -61.0767,-36.1537 -92.8107,-52.1435 -2.4341,-1.1469 -0.7138,-5.04 1.8062,-3.858 22.282,11.141 44.7903,21.8997 65.9605,35.0731 21.1352,14.4802 44.6304,26.2961 63.1753,44.1467 C -1.58,-6.3975 7.0216,1.0416 1.5642,2.4849 0.2964,2.4498 -0.4838,1.0767 0,0 Z" /></g><g
             transform="translate(1437.2587,504.9044)"
             id="g196"><path
               id="path198"
               style="fill:#000000;fill-opacity:1;fill-rule:nonzero;stroke:none"
               d="m 0,0 c -12.323,-10.3218 -24.525,-20.8036 -36.653,-31.3556 -0.784,-0.6748 -1.0103,-1.8061 -0.351,-2.6565 0.6085,-0.7997 1.8802,-1.0259 2.6799,-0.3472 8.4454,7.1582 17.1016,14.4607 25.3754,21.7398 3.7683,3.6162 8.2544,6.694 11.6443,10.5325 C 3.269,-0.8816 2.1572,0.3745 1.0026,0.3745 0.6593,0.3745 0.3082,0.2614 0,0 Z" /></g><g
             transform="translate(1436.0962,500.196)"
             id="g200"><path
               id="path202"
               style="fill:#000000;fill-opacity:1;fill-rule:nonzero;stroke:none"
               d="m 0,0 c -0.8192,-0.5227 -1.6345,-0.9908 -2.4692,-1.498 -0.433,-0.2418 -0.6944,-0.6943 -0.7295,-1.1624 -9.4363,-7.8214 -19.3954,-14.9132 -29.2881,-22.126 -0.6748,-0.4876 -0.7802,-1.5136 -0.277,-2.1533 0.5383,-0.6983 1.4785,-0.7646 2.1572,-0.2809 7.5249,5.2662 15.0849,10.4818 22.1923,16.2863 3.4602,3.0934 7.7862,5.6134 10.5325,9.2998 0.273,0.9674 -0.5539,1.849 -1.42,1.849 C 0.4603,0.2145 0.2185,0.1482 0,0 Z" /></g><g
             transform="translate(1429.3516,494.4929)"
             id="g204"><path
               id="path206"
               style="fill:#000000;fill-opacity:1;fill-rule:nonzero;stroke:none"
               d="m 0,0 c -5.9607,-5.1258 -12.5298,-9.9239 -18.2329,-15.2253 -9.5066,-6.967 -19.1886,-13.6415 -28.9019,-20.3003 -1.2365,-0.9207 0.2575,-2.9179 1.5097,-1.9271 C -42.797,-35.1122 11.1683,0.0039 0.2925,0.0078 0.1989,0.0078 0.1014,0.0078 0,0 Z" /></g><g
             transform="translate(1426.7964,493.5216)"
             id="g208"><path
               id="path210"
               style="fill:#000000;fill-opacity:1;fill-rule:nonzero;stroke:none"
               d="m 0,0 c -6.8148,-7.0919 -16.5281,-11.9251 -22.5785,-19.45 -7.2986,-5.8045 -15.6232,-10.1346 -23.5303,-15.0692 -0.9245,0.6241 -2.1416,0.4681 -2.992,-0.2965 -2.5551,-2.1533 -5.2467,-4.135 -8.0125,-6.0113 -3.9632,-2.8672 -9.9746,-4.0335 -12.5492,-8.2933 -10.6886,-7.2284 -22.6643,-11.9212 -34.8469,-16.0055 -11.0006,-5.0244 -22.3328,-9.7523 -33.8405,-13.8365 -3.46,-1.1976 -8.9526,-1.8569 -8.3439,-6.7408 0.2613,-2.4186 2.7813,-4.3105 5.0946,-3.9985 10.7391,0.6944 21.8294,2.0324 31.0941,7.9267 4.3612,3.5108 12.7209,3.2651 14.5465,9.1905 5.317,1.9505 10.6028,4.1545 15.3307,7.2674 1.8763,1.3381 4.7083,2.5903 4.7083,5.2156 8.2582,6.257 18.5293,8.6366 26.733,14.9288 0.6788,0.6241 0.9206,1.5994 0.7294,2.4849 8.0125,3.8229 15.2098,9.1086 22.4577,14.1837 10.1501,6.1869 18.3537,15.7792 27.5287,23.4445 0.6593,0.628 1.4238,1.2366 1.966,1.9817 C 4.8137,-1.3614 3.2651,0.6944 1.5721,0.6944 1.0338,0.6944 0.4799,0.4876 0,0 Z" /></g><g
             transform="translate(617.9727,526.89)"
             id="g212"><path
               id="path214"
               style="fill:#000000;fill-opacity:1;fill-rule:nonzero;stroke:none"
               d="m 0,0 c -1.1469,-1.1469 -1.1313,-3.0388 0,-4.1857 12.6,-12.8106 25.3052,-25.4652 38.9662,-37.0743 33.3529,-28.071 70.5832,-52.3503 111.3751,-68.0437 4.1545,-1.4433 6.0308,4.884 1.6188,5.8748 C 113.3567,-89.0384 78.541,-65.7656 46.6823,-40.0624 31.8744,-27.2869 17.9208,-13.9029 4.2052,0 3.6318,0.5734 2.8672,0.8621 2.1026,0.8621 1.338,0.8621 0.5734,0.5734 0,0 Z" /></g><g
             transform="translate(637.4032,515.9753)"
             id="g216"><path
               id="path218"
               style="fill:#000000;fill-opacity:1;fill-rule:nonzero;stroke:none"
               d="m 0,0 c -1.1469,-1.4745 -0.8153,-3.5616 0.5929,-4.728 7.9072,-6.534 15.8339,-13.068 23.897,-19.3953 19.9025,-15.6583 40.0117,-31.0084 60.71,-45.5705 16.8754,-11.0747 34.2578,-21.3614 52.2645,-30.5208 1.8763,-0.9557 4.1895,-0.5032 5.3013,1.3888 1.5643,2.5044 -0.4876,5.352 -2.9374,6.0659 -35.5607,17.2927 -67.6106,40.5305 -98.6542,64.8293 C 28.9409,-18.5255 16.8948,-8.898 4.7279,0.5929 4.1349,1.061 3.4133,1.2873 2.6916,1.2873 1.6735,1.2873 0.6592,0.8426 0,0 Z" /></g><g
             transform="translate(683.9684,478.1403)"
             id="g220"><path
               id="path222"
               style="fill:#000000;fill-opacity:1;fill-rule:nonzero;stroke:none"
               d="m 0,0 c -0.6982,-0.9752 -0.5227,-2.5395 0.5383,-3.1988 8.6562,-5.3715 17.2733,-10.7236 25.7578,-15.9547 13.7312,-8.7459 28.2933,-16.2707 42.1299,-24.7669 0.749,-0.8543 2.1728,-0.7841 2.9179,0.0156 2.1221,3.0778 -3.1793,4.5719 -5.0907,5.9606 -8.2739,4.6928 -16.93,9.6626 -24.9581,14.5465 C 28.5703,-15.471 15.8651,-7.4937 3.1949,0.5383 2.7775,0.8036 2.3055,0.9401 1.8373,0.9401 1.1391,0.9401 0.4564,0.632 0,0 Z" /></g><g
             transform="translate(684.6432,478.7995)"
             id="g224"><path
               id="path226"
               style="fill:#000000;fill-opacity:1;fill-rule:nonzero;stroke:none"
               d="m 0,0 c -0.3823,-0.5383 -0.2769,-1.4082 0.316,-1.7749 21.5682,-14.094 43.3782,-27.911 65.1414,-41.7125 -0.3823,-1.5448 2.8827,-2.7267 3.7527,-1.5643 0.4525,0.4525 0.4369,1.2873 -0.0703,1.7203 -2.0479,1.9115 -4.4821,3.3197 -6.8305,4.8138 C 46.6862,-28.816 31.184,-18.9116 15.7831,-8.8629 11.106,-5.8241 6.4326,-2.7657 1.775,0.2965 1.5487,0.4447 1.2874,0.5227 1.0298,0.5227 0.6398,0.5227 0.2536,0.3472 0,0 Z" /></g><g
             transform="translate(700.5122,466.2151)"
             id="g228"><path
               id="path230"
               style="fill:#000000;fill-opacity:1;fill-rule:nonzero;stroke:none"
               d="m 0,0 c -0.4525,-0.8855 -0.0858,-1.9114 0.749,-2.399 17.1874,-10.1151 34.5699,-20.0547 51.8626,-29.9123 0.593,-2.048 4.0492,-1.8256 4.1896,0.4174 0.1054,2.52 -3.2143,2.9023 -4.8332,4.1896 C 35.3189,-18.4747 18.8922,-8.7927 2.399,0.749 2.1572,0.8933 1.8842,0.9596 1.6111,0.9596 0.9635,0.9596 0.3082,0.5851 0,0 Z" /></g><g
             transform="translate(679.2561,484.1165)"
             id="g232"><path
               id="path234"
               style="fill:#000000;fill-opacity:1;fill-rule:nonzero;stroke:none"
               d="m 0,0 c -0.433,-0.589 -0.2964,-1.494 0.3316,-1.9114 6.0308,-4.135 12.0616,-8.2895 18.0924,-12.444 15.5725,-11.2463 32.5025,-20.5617 47.8837,-32.0148 -2.1728,-1.6501 1.2679,-2.9881 2.7619,-2.6955 2.1923,0.6982 0.4525,3.2846 -0.7295,4.174 C 52.8379,-33.0564 35.5256,-23.7566 19.7269,-12.2684 13.7819,-8.0827 7.8564,-3.8736 1.931,0.3316 1.6852,0.4993 1.4044,0.5812 1.1274,0.5812 0.6905,0.5812 0.2653,0.3823 0,0 Z" /></g><g
             transform="translate(670.2021,487.6117)"
             id="g236"><path
               id="path238"
               style="fill:#000000;fill-opacity:1;fill-rule:nonzero;stroke:none"
               d="m 0,0 c -0.749,-1.061 -0.4876,-2.5746 0.5734,-3.3197 21.1508,-15.4866 43.4875,-29.2685 66.4795,-41.8373 5.4417,-3.0232 10.9147,-5.9606 16.4072,-8.9331 1.4941,-0.8153 3.425,-0.2067 4.2247,1.3029 0.7996,1.498 0.1911,3.425 -1.3029,4.2247 -23.308,12.3932 -46.7018,24.9073 -68.621,39.6294 C 12.9471,-5.7694 8.1334,-2.6058 3.3197,0.554 2.8906,0.8387 2.4069,0.9792 1.9271,0.9792 1.1937,0.9792 0.472,0.6515 0,0 Z" /></g><g
             transform="translate(643.001,516.0455)"
             id="g240"><path
               id="path242"
               style="fill:#000000;fill-opacity:1;fill-rule:nonzero;stroke:none"
               d="m 0,0 c -1.3029,-0.7997 -1.8607,-2.6955 -0.9752,-4.0336 3.6708,-5.4378 7.3727,-10.8601 11.4375,-15.9703 26.7486,-31.4414 60.0155,-57.0431 96.0093,-77.0509 3.1832,-1.7359 5.9294,3.3041 2.6449,4.9893 C 76.2668,-74.527 46.6667,-50.907 21.6384,-23.464 15.2604,-16.2161 9.4714,-8.465 3.8073,-0.6436 3.2846,0.0703 2.4225,0.4252 1.5604,0.4252 1.0143,0.4252 0.4642,0.2848 0,0 Z" /></g><g
             transform="translate(651.6727,503.3246)"
             id="g244"><path
               id="path246"
               style="fill:#000000;fill-opacity:1;fill-rule:nonzero;stroke:none"
               d="m 0,0 c -4.0648,-3.4757 6.9866,-10.7431 8.9331,-14.0433 23.8658,-25.1336 52.1943,-47.0177 83.6552,-61.6696 2.1532,-0.7294 3.1285,2.5747 0.6787,2.6449 C 69.0189,-61.3536 47.084,-44.5289 27.6185,-25.984 19.1184,-18.0066 11.6091,-9.0735 3.8775,-0.3823 3.3002,0.2653 2.5005,0.6203 1.7008,0.6203 1.1039,0.6203 0.5071,0.4213 0,0 Z" /></g><g
             transform="translate(651.6923,504.2803)"
             id="g248"><path
               id="path250"
               style="fill:#000000;fill-opacity:1;fill-rule:nonzero;stroke:none"
               d="m 0,0 c -4.0336,-3.6669 6.2219,-10.0137 8.149,-13.3333 11.8393,-12.9316 24.4392,-25.1648 38.1705,-36.064 5.2818,-3.6162 34.7415,-27.4429 38.619,-20.6124 0.2614,1.1819 -0.5734,2.2937 -1.7554,2.4497 0,0 -0.0351,-0.0156 -0.0351,-0.0156 -23.0817,9.1243 -41.7125,27.9657 -59.0599,45.118 -2.243,2.4147 -4.5523,4.8684 -6.7954,7.283 C 12.8418,-10.2555 8.4454,-5.3365 4.0296,-0.4174 3.4289,0.2535 2.598,0.6163 1.7632,0.6163 1.1469,0.6163 0.5305,0.4174 0,0 Z" /></g><g
             transform="translate(647.7094,507.1475)"
             id="g252"><path
               id="path254"
               style="fill:#000000;fill-opacity:1;fill-rule:nonzero;stroke:none"
               d="m 0,0 c -4.8644,-3.7371 2.1377,-8.6912 4.0687,-12.2177 12.791,-17.3473 30.6573,-29.8771 48.0553,-42.2001 12.8302,-8.4494 25.2741,-17.9559 39.5241,-23.9009 1.7554,-0.7295 2.5902,2.1221 0.749,2.3289 -13.9068,5.8396 -26.1049,15.0887 -38.4475,23.6551 -14.4957,11.262 -29.3543,22.6487 -40.2184,37.6282 -3.0427,4.4159 -5.8046,9.0034 -8.7068,13.505 C 4.3183,-0.0936 3.1051,0.5344 1.8763,0.5344 1.2327,0.5344 0.5851,0.3628 0,0 Z" /></g><g
             transform="translate(647.8342,510.1707)"
             id="g256"><path
               id="path258"
               style="fill:#000000;fill-opacity:1;fill-rule:nonzero;stroke:none"
               d="m 0,0 c -8.6405,-5.2467 9.1398,-20.4915 12.7716,-25.707 22.4576,-22.1416 48.4572,-42.4927 76.7544,-55.9977 0,0 -0.0195,0.0156 -0.0195,0.0351 3.2339,0.3979 2.4537,5.5237 -0.7646,4.9191 C 62.8633,-62.5707 38.9312,-43.347 20.0546,-20.6983 15.4672,-14.3398 11.418,-7.5756 6.8617,-1.182 5.9333,0.1092 4.3612,0.7451 2.793,0.7451 1.8062,0.7451 0.8231,0.4954 0,0 Z" /></g></g></g></g></g></svg>