<?xml version="1.0" encoding="UTF-8" standalone="no"?>
<svg
   xmlns:dc="http://purl.org/dc/elements/1.1/"
   xmlns:cc="http://creativecommons.org/ns#"
   xmlns:rdf="http://www.w3.org/1999/02/22-rdf-syntax-ns#"
   xmlns:svg="http://www.w3.org/2000/svg"
   xmlns="http://www.w3.org/2000/svg"
   viewBox="0 0 2800 2800"
   height="2800"
   width="2800"
   xml:space="preserve"
   id="svg2"
   version="1.1"><metadata
     id="metadata8"><rdf:RDF><cc:Work
         rdf:about=""><dc:format>image/svg+xml</dc:format><dc:type
           rdf:resource="http://purl.org/dc/dcmitype/StillImage" /></cc:Work></rdf:RDF></metadata><defs
     id="defs6"><clipPath
       id="clipPath20"
       clipPathUnits="userSpaceOnUse"><path
         id="path18"
         d="M 41.4023,35.9453 H 2062.4 V 746.258 H 41.4023 Z" /></clipPath><clipPath
       id="clipPath34"
       clipPathUnits="userSpaceOnUse"><path
         id="path32"
         d="M 50.4883,273.785 H 2021.67 V 2063.57 H 50.4883 Z" /></clipPath><clipPath
       id="clipPath108"
       clipPathUnits="userSpaceOnUse"><path
         id="path106"
         d="M 299.765,1090.16 H 1855.88 v 408.87 H 299.765 Z" /></clipPath><clipPath
       id="clipPath126"
       clipPathUnits="userSpaceOnUse"><path
         id="path124"
         d="M 230.834,1176.31 H 1927.8 v 266.57 H 230.834 Z" /></clipPath></defs><g
     transform="matrix(1.3333333,0,0,-1.3333333,0,2800)"
     id="g10"><g
       transform="matrix(1,0,0,-1,0,2100)"
       id="g12"><g
         id="g14"><g
           clip-path="url(#clipPath20)"
           id="g16"><g
             transform="translate(175.3203,637.4961)"
             id="g22"><path
               id="path24"
               style="fill:#ffffff;fill-opacity:1;fill-rule:nonzero;stroke:none"
               d="m 0,0 c 0.25,-0.2109 0.5,-0.4258 0.75,-0.6406 -3.2656,-1.2578 -6.5391,-3.1485 -9.7695,-5.7539 -0.211,0.5547 -0.4258,1.1054 -0.6367,1.6601 -1.7422,5.1367 -3.5,10.6289 -5.4375,16.1524 C -9.9531,7.7539 -4.9375,3.9492 0,0 Z m 1882.1602,47.0195 c 4.6718,33.3633 -22.5899,61.4922 -55.211,61.4922 -1.1953,0 -2.3867,-0.0351 -3.5937,-0.1133 -24.0742,-0.4023 -48.0196,-11.8867 -63.9024,-29.9101 -9.914,-11.1133 -14.789,-25.3985 -21.3437,-38.5391 -3.3125,-7.0859 -5.4844,-14.6015 -8.7891,-21.6875 -1.4219,-1.6992 -2.7734,-3.414 -4.0234,-5.1601 -0.8086,-1.0977 -1.6563,-2.1094 -2.3321,-2.918 -0.098,-0.0977 -0.1914,-0.1914 -0.3281,-0.2891 0,0 -0.094,-0.125 -0.094,-0.125 -2.8828,-3.0429 -5.793,-6.0508 -8.5391,-9.2578 -2.5625,-2.9101 -5.0469,-5.9179 -7.668,-8.7695 -1.2617,-1.2891 -2.6211,-2.457 -3.8515,-3.7852 -0.2266,-0.2226 -0.4531,-0.414 -0.6758,-0.6172 -3.7578,-3.2656 -3.2383,-9.5078 0.4805,-12.5156 2.4531,-2 5.664,-2.3008 8.3672,-1.2031 -15.0586,-22.6094 -27.9258,-46.9688 -36.7657,-66.9766 -0.1172,-0.164 -0.2265,-0.3359 -0.3281,-0.5156 -0.8672,-1.3594 -1.5391,-2.8555 -2.1211,-4.3945 -0.9766,-1.6758 -2.0156,-3.3203 -3.082,-4.9492 -13.3555,0.5273 -19.2656,-12.4258 -24.2031,-22.7149 -8.918,1.2734 -17.2657,-4.6836 -20.5157,-12.7773 -15.9922,-4.3242 -15.5742,-19.793 -17.0937,-33.2071 -3.6094,0.6289 -7.5469,-1.1836 -9.0235,-4.6836 -0.3554,-0.8085 -0.6523,-1.6562 -0.9414,-2.496 -4.2382,-11.0313 -8.6054,-22.0313 -12.2265,-33.3555 -3.9805,-12.457 -7.1875,-25.0781 -9.3555,-37.9883 -2.0312,-12.0039 -2.5898,-24.5273 -0.4805,-36.5586 0.4453,-2.5664 1.086,-5.125 1.918,-7.6172 -0.9844,-0.7539 -1.9727,-1.4961 -2.957,-2.2265 -0.1953,-0.1289 -0.418,-0.2891 -0.6133,-0.418 -1.7344,-1.2852 -3.5,-2.5781 -5.2422,-3.8633 0,0 0,0 0.031,0 -10.3243,-7.5195 -20.9024,-14.5625 -31.4219,-21.832 -12.4414,-8.6172 -24.9531,-17.0781 -37.8516,-25.0547 -24.1797,-15.0195 -48.5234,-29.7813 -73.3828,-43.5742 -22.3828,-12.3516 -45,-24.3477 -68.1172,-35.2188 -24.1211,-11.3164 -48.7851,-21.6094 -71.4961,-30.5508 -43.414,-16.9492 -87.8554,-30.9375 -133.0117,-42.2539 -47.0156,-11.4843 -94.6133,-19.3945 -142.6289,-24.7968 -30.5156,-3.1875 -61.1328,-5.5352 -91.7813,-6.8204 -32,-1.3476 -64.0586,-0.7343 -93.9414,0.0313 -33.5078,1 -66.957,3.2187 -100.3398,6.4961 -33.1875,3.2461 -66.1524,8.3008 -99.1797,12.7656 -13.1523,1.8047 -26.3047,3.668 -39.3984,5.7891 0,0 -2.1875,0.3906 -2.1875,0.3906 -31.1289,5.2109 -61.8711,12.7031 -92.0703,21.8047 -9.711,2.9883 -19.4532,5.9141 -29.168,8.8437 -31.0977,9.6485 -61.3633,21.7422 -91.043,35.1524 -26.082,11.9336 -51.4531,25.2539 -76.293,37.1758 -20.1835,10.9336 -40.2343,22.1367 -59.8554,34.0117 -17.2227,12.582 -34.1719,25.5586 -50.961,38.6992 -4.3125,3.3125 -8.6093,6.6445 -12.8984,9.9844 -1.0977,0.9687 -2.207,1.9219 -3.3437,2.8476 -2.5313,2.0938 -4.8321,4.4493 -7.0782,6.5977 0.4883,0.9648 0.9453,1.9297 1.3711,2.8945 3.2071,7.2149 5.3086,14.7578 6.5977,22.5235 2.2344,13.5156 2.0742,27.6875 -0.4805,41.1875 -0.0976,0.5468 -0.1953,1.0664 -0.2891,1.6171 0.2227,0.6446 0.3829,1.3204 0.4532,2.0352 0.414,3.4648 -1.2657,7.0195 -4.0782,9.0273 -2.0351,2.6797 -5.914,3.5 -8.9804,2.1954 -6.6914,12.1992 -14.8867,23.5507 -23.0508,34.8359 -12.8594,17.7227 -26.7578,34.6992 -38.8828,52.9687 -8.7188,13.211 -19.7344,28.0352 -33.9258,35.3594 -0.2344,3.582 -0.6992,7.1953 -2.3516,10.418 -0.5117,0.8476 -0.9921,1.7226 -1.4453,2.6133 12.7852,11.1132 8.5547,30.1406 2.5547,44.2187 -0.3047,2.0156 -0.7344,4.0547 -1.2812,6.0977 0.0547,0.0078 0.1093,0.0156 0.164,0.0273 0.9414,-0.2305 1.9063,-0.3555 2.9493,-0.3945 5.5976,-0.0977 10.414,4.6914 11.0312,10.0664 0.1328,0.7148 0.1602,1.457 0.1328,2.168 0.4805,1.2617 0.8086,2.6211 0.9649,4.0742 0.3945,3.625 -0.3868,6.8906 -1.7149,10.2929 -1.418,3.6211 -4.5586,6.8594 -7.0156,9.8633 C 58.3633,-0.9453 53.4492,4.3633 48.5273,9.6367 38.4961,20.3164 27.4961,29.9531 16.0781,39.1133 9.9922,43.9688 3.5234,48.3359 -3.0469,52.5078 c -6.4726,4.0742 -13.1992,7.9297 -20.1914,10.9727 -7.3125,3.1679 -14.6562,5.789 -22.3515,7.8593 -6.379,1.7149 -13.0469,2.5547 -19.6758,2.5547 -9.6719,0 -19.3828,-1.8125 -28.2461,-5.5664 -16.7266,-7.082 -28.0196,-22.6797 -33.9414,-39.375 -2.8828,-8.1523 -4.211,-16.7265 -5.2422,-25.3008 -0.9727,-7.8632 -0.6172,-16.0156 -0.2578,-23.914 0.3828,-8.0821 1.5508,-16.1094 2.7461,-24.1328 4.5664,-30.418 15.375,-59.6368 27.4375,-87.7813 6.0507,-14.1719 13.3632,-27.8906 20.9336,-41.289 7.0546,-12.3907 14.5976,-24.6563 22.7851,-36.3047 8.8281,-12.5508 17.8906,-24.875 27.6914,-36.6563 9.7383,-11.707 20.0274,-22.875 30.7696,-33.6836 6.4101,-6.4062 13.1992,-12.4843 20.1953,-18.2773 0.6015,-0.5039 1.1953,-0.9727 1.3867,-1.1367 11.7812,-9.7383 24.2969,-19.1797 37.9219,-26.1758 20.289,-10.3828 43.6797,-19.3438 66.6875,-13.1992 5.4765,1.4843 10.5234,3.6992 15.2187,6.6484 0.8867,-0.7617 1.7774,-1.5234 2.668,-2.2812 10.2851,-8.6563 20.7734,-17.1211 31.457,-25.3477 13.6563,-12.2188 27.8984,-23.9414 42.6641,-34.8945 15.7578,-13.2032 32.0976,-25.7344 48.9218,-37.4883 11.9336,-8.332 23.9961,-16.5 36.3438,-24.1875 12.5391,-7.8477 25.4727,-15.086 38.5234,-22.125 26.8594,-14.4727 54.2227,-28.1406 82.3985,-39.8789 58.6562,-24.4414 119.539,-42.7461 181.5703,-56.3164 60.3984,-13.1875 122.0195,-21.0586 183.7344,-24.2813 32.7968,-1.664 65.6992,-2.25 95.8671,-1.3476 32.2891,0.9648 64.3868,3.0507 96.4766,6.4961 31.2891,3.3789 62.5235,7.9453 93.4883,13.539 30.75,5.5664 61.1719,12.4805 91.3359,20.6446 30.5547,8.2656 60.7852,17.6562 90.4336,28.7851 28.8789,10.8047 57.211,23.0899 85.1289,36.2774 13.8946,6.5898 27.5938,13.6367 41.1016,20.996 13.3437,7.2422 26.3359,15.086 39.3672,22.9063 26.7851,16.0742 52.8633,33.1875 77.6914,52.1641 24.2812,18.5507 47.4687,38.457 69.3359,59.8437 7.7539,7.5742 15.3555,15.3203 22.7696,23.2461 7.6406,-4.3984 17.0234,-5.5391 25.9023,-4.7656 9.0938,0.8125 17.6406,4.1797 25.9844,7.7383 4.625,2.0039 9.2851,4.4961 13.5898,7.1484 9.125,5.6328 17.961,11.6484 26.3711,18.3828 16.6602,13.3594 32.3828,28.0156 46.6875,43.5469 17.1485,18.6015 33.586,37.8906 48.5313,58.3047 15.5664,21.2539 29.9609,43.1328 43.3242,65.8125 6.9922,11.9101 13.3047,24.2031 19.4492,36.5273 5.8203,11.6172 11.1289,23.6211 15.6289,35.3672 0.098,0.2578 0.1914,0.5195 0.1914,0.5195 0.066,0.2227 0.1641,0.4532 0.2617,0.711 0.8086,2.0703 1.5821,4.2031 1.7422,4.5937 0,0 0.4844,1.2656 0.4844,1.2656 3.1719,8.2852 6.0039,16.7852 8.3164,25.3946 0.3281,0.7304 0.6484,1.4648 0.9609,2.2031 5.7579,14.7891 12.1172,36.1563 11.6289,53.6523 0.3633,2.0352 0.6993,4.0743 1.0079,6.1172 z" /></g></g></g></g><g
       transform="matrix(1,0,0,-1,0,2100)"
       id="g26"><g
         id="g28"><g
           clip-path="url(#clipPath34)"
           id="g30"><g
             transform="translate(1135.9238,1328.4917)"
             id="g36"><path
               id="path38"
               style="fill:#000000;fill-opacity:1;fill-rule:nonzero;stroke:none"
               d="m 0,0 c -18.707,-3.7539 -35.679,-14.322 -47.9185,-28.8962 -2.4292,-2.8706 -4.6691,-5.8992 -6.6882,-9.0852 -3.3437,-0.0317 -6.593,-0.221 -9.7793,-0.7889 -3.2805,-0.599 -6.4983,-1.6086 -9.6843,-3.3437 -8.0128,-4.3534 -14.1643,-11.7981 -16.9087,-20.4734 -5.7417,-18.328 4.7949,-38.4545 23.0918,-44.1962 16.6877,-5.2682 35.2056,2.9657 42.5552,18.8332 3.9751,8.5492 4.322,18.5489 0.9465,27.3507 -1.6086,4.2901 -4.1008,8.2018 -7.2239,11.5457 -1.7983,1.9242 -3.7856,3.5329 -5.8991,4.9844 0.1892,0.2837 0.3784,0.5991 0.5993,0.8831 1.7979,2.3974 3.6597,4.6687 5.6153,6.9402 2.4289,2.4289 4.8896,4.7003 7.445,6.9399 2.0188,1.5776 4.0694,3.0918 6.1831,4.5112 2.0821,1.23 4.1953,2.3973 5.836,3.3438 2.9021,1.3249 5.7727,2.5554 8.8012,3.5962 2.9336,0.8833 5.8672,1.5776 8.8645,2.1137 1.9241,0.221 3.8169,0.3787 4.9842,0.4729 0.2837,0.0318 0.5678,0.0318 0.8203,0.0318 0,0 0.0312,0 0.0312,0 1.5459,0 3.0601,-0.0632 4.1956,-0.1577 2.2715,-0.221 4.5427,-0.6311 5.7417,-1.0096 0.7883,-0.2204 1.5771,-0.5046 2.3657,-0.757 1.041,-0.4414 2.0188,-0.9148 3.0286,-1.4195 0.4101,-0.2527 0.7888,-0.5046 1.23,-0.757 0.6311,-0.4737 1.2622,-0.9781 1.8613,-1.5145 0.4101,-0.4101 0.8203,-0.8515 1.199,-1.2932 0.4733,-0.6311 0.9462,-1.2934 1.3881,-1.956 0.8516,-1.3877 1.6402,-2.8391 2.3973,-4.3218 2.3029,-4.4163 8.0759,-6.0565 12.4292,-3.6909 4.4162,2.3974 5.9939,7.9809 3.6909,12.3977 -2.3343,4.4795 -6.3091,8.2651 -10.284,11.262 -8.5803,6.4982 -19.1801,9.59 -29.8425,9.59 C 7.3499,1.1357 3.6274,0.7571 0,0 Z" /></g><g
             transform="translate(1089.5195,1266.1563)"
             id="g40"><path
               id="path42"
               style="fill:#000000;fill-opacity:1;fill-rule:nonzero;stroke:none"
               d="m 0,0 c 14.6562,5.832 2.418,23.7578 -1.5078,33.4492 0,0.0078 -0.0039,0.0156 -0.0078,0.0235 -1.9688,4.0312 -4.2891,7.7968 -6.918,11.2812 -0.4648,0.6172 -0.9414,1.2266 -1.4297,1.8281 -0.6015,0.7539 -1.2265,1.4922 -1.8633,2.2188 -0.8515,0.9726 -1.7304,1.918 -2.6328,2.8398 -0.914,0.9297 -1.8515,1.836 -2.8086,2.711 -0.9492,0.8672 -1.9179,1.707 -2.9101,2.5234 -2.9922,2.4531 -6.1758,4.6641 -9.5117,6.6211 -0.3086,0.1836 -0.6211,0.3633 -0.9375,0.5391 -0.8086,0.4609 -1.625,0.9062 -2.4493,1.332 -0.3789,0.2031 -0.7617,0.3945 -1.1484,0.5859 -0.3867,0.1953 -0.7734,0.3828 -1.1602,0.5664 -0.7773,0.375 -1.5625,0.7344 -2.3515,1.0743 -0.6172,0.2695 -1.2383,0.5312 -1.8633,0.7851 -0.3125,0.1289 -0.6289,0.2578 -0.9453,0.3789 -9.1289,3.582 -18.9961,5.461 -28.9961,5.461 -0.9766,0 -1.9492,-0.0157 -2.9258,-0.0547 -4.9531,-0.0625 -10.2539,-0.6602 -15.0156,-2.1758 -1.7461,-0.25 -3.1055,-0.9453 -4.1055,-1.9141 -0.2305,-0.2226 -0.4414,-0.4609 -0.6328,-0.7109 -3.5039,-4.5547 -0.7227,-13.168 6.3281,-12.5742 0.2305,0.0234 0.4688,0.0507 0.711,0.0898 5.1953,1.7539 10.3632,2.5664 15.4101,2.5664 0.3125,0 0.6211,-0.0039 0.9297,-0.0117 0.1289,0 0.2539,-0.0039 0.375,-0.0078 0.582,-0.0156 1.1602,-0.043 1.7344,-0.0781 0.0742,-0.0039 0.1445,-0.0118 0.2148,-0.0157 0.2852,-0.0195 0.5703,-0.0429 0.8555,-0.0664 0.3398,-0.0312 0.6797,-0.0625 1.0195,-0.1015 0.3399,-0.0352 0.6797,-0.0743 1.0157,-0.1211 0.3203,-0.0391 0.6406,-0.086 0.9609,-0.1328 0.4258,-0.0664 0.8516,-0.1368 1.2695,-0.211 0.2617,-0.0469 0.5235,-0.0937 0.7852,-0.1484 0.3164,-0.0586 0.6328,-0.125 0.9492,-0.1953 0.0547,-0.0078 0.1055,-0.0196 0.1562,-0.0313 0.2969,-0.0664 0.5899,-0.1328 0.8829,-0.2031 0.332,-0.0781 0.6601,-0.1602 0.9882,-0.2461 0.3282,-0.0859 0.6524,-0.1719 0.9766,-0.2656 0.0898,-0.0235 0.1758,-0.0469 0.2617,-0.0742 0.5625,-0.1602 1.1211,-0.3321 1.6797,-0.5157 0.3203,-0.1015 0.6445,-0.2109 0.9649,-0.3242 0.6406,-0.2187 1.2734,-0.4531 1.9062,-0.7031 0.3008,-0.1133 0.6016,-0.2344 0.8984,-0.3594 0.0157,-0.0039 0.0313,-0.0117 0.043,-0.0195 0.6289,-0.2539 1.25,-0.5274 1.8672,-0.8125 1.5469,-0.7031 3.0625,-1.4844 4.543,-2.336 11.2695,-6.4453 20.6172,-16.8359 26.4179,-28.8984 2.5704,-5.332 4.4454,-10.9922 5.4844,-16.7852 C -11.043,1.5156 -5.207,-1.5469 0,0 Z" /></g><g
             transform="translate(644.3099,1145.1777)"
             id="g44"><path
               id="path46"
               style="fill:#000000;fill-opacity:1;fill-rule:nonzero;stroke:none"
               d="m 0,0 c -11.7037,-0.8519 -23.7544,-4.1013 -34.5112,-8.991 -16.846,-10.0946 -6.9718,-37.0346 12.4287,-33.7857 66.0893,-17.7287 136.2474,-25.8993 193.0621,-67.4139 38.9595,-30.0949 86.0892,22.9972 51.4199,57.6978 -9.0533,8.1074 -18.7066,16.1832 -29.7165,21.609 C 145.79,-7.0616 92.9855,1.6439 40.5795,1.6444 26.9879,1.6444 13.4275,1.0585 0,0 Z" /></g><g
             transform="translate(1447.6931,1141.3922)"
             id="g48"><path
               id="path50"
               style="fill:#000000;fill-opacity:1;fill-rule:nonzero;stroke:none"
               d="m 0,0 c -53.1235,-5.8044 -106.4995,-23.9121 -148.6763,-57.3192 -17.1611,-14.8583 -41.3886,-30.2843 -41.2624,-55.553 0.0315,-20.1576 19.3691,-36.751 39.3379,-33.3122 24.7954,5.8676 44.6059,24.0697 67.3195,35.0474 38.4861,20.6626 82.493,21.8299 123.5657,34.0699 18.8015,5.2049 30.8521,24.8267 27.9497,43.9119 C 63.7891,-5.6211 40.4045,0.9495 16.8562,0.9495 11.158,0.9495 5.4517,0.5651 0,0 Z" /></g><g
             transform="translate(213.5078,707.8477)"
             id="g52"><path
               id="path54"
               style="fill:#000000;fill-opacity:1;fill-rule:nonzero;stroke:none"
               d="m 0,0 c -12.6055,27.2617 -24.0195,54.9844 -34.4063,83.2578 -2.3125,6.7695 -4.5546,13.5508 -6.7343,20.3477 2.1758,-6.8047 4.4218,-13.5977 6.7343,-20.3789 C -24.0234,54.9531 -12.6133,27.25 0,0 Z" /></g><g
             transform="translate(588.5352,545.832)"
             id="g56"><path
               id="path58"
               style="fill:#000000;fill-opacity:1;fill-rule:nonzero;stroke:none"
               d="M 0,0 C 6.0937,12.3828 12.4648,24.6211 18.9336,36.8086 12.4609,24.6367 6.0937,12.4141 0,0.0352 -10.5039,-21.2617 -20.4102,-42.9023 -31.9531,-63.625 c -21.9258,-38.0781 -44.8594,-75.6484 -67.8555,-113.125 -9.7187,7.2852 -19.2773,14.7617 -28.7422,22.3984 -30.9453,25.8985 -60.2187,53.4688 -88.1367,82.6485 -19.4922,21.1875 -37.9922,43.0859 -55.6758,65.7187 17.6758,-22.6445 36.1797,-44.539 55.6758,-65.75 27.918,-29.1484 57.1914,-56.7187 88.1367,-82.6484 9.4649,-7.6367 19.0235,-15.082 28.7422,-22.3984 22.9961,37.4765 45.9297,75.0781 67.8555,113.1249 C -20.4102,-42.9023 -10.5039,-21.2617 0,0 Z" /></g><g
             transform="translate(1053.4922,855.5547)"
             id="g60"><path
               id="path62"
               style="fill:#000000;fill-opacity:1;fill-rule:nonzero;stroke:none"
               d="M 0,0 C 1.7031,4.0352 3.4102,8.0742 5.1445,12.1758 3.4102,8.1055 1.7031,4.0664 0,0.0312 -6.8437,-16.1211 -13.6875,-32.2734 -20.5977,-48.3633 -26.4961,-62.1797 -32.4609,-75.9648 -38.3281,-89.75 c -2.1289,-4.9688 -4.2383,-9.9219 -6.3594,-14.8789 2.1211,4.9492 4.2305,9.8789 6.3594,14.8476 5.8672,13.8165 11.832,27.5704 17.7304,41.3868 C -13.6875,-32.3047 -6.8437,-16.1523 0,0 Z" /></g><g
             transform="translate(1163.5898,869.4336)"
             id="g64"><path
               id="path66"
               style="fill:#000000;fill-opacity:1;fill-rule:nonzero;stroke:none"
               d="M 0,0 C 0.4727,1.0508 0.9414,2.1797 1.4844,3.2891 0.9414,2.1914 0.4727,1.0703 0,0.0312 -7.3203,-15.5195 -13.8164,-31.4531 -20.7891,-47.1602 -28.1094,-63.5977 -35.3945,-80.0313 -42.6523,-96.5 c -3.5313,-8.0117 -7.0977,-16.0547 -10.629,-24.1016 -0.8203,-1.8476 -1.6406,-3.6992 -2.4609,-5.5586 0.8203,1.8516 1.6406,3.6954 2.4609,5.5274 3.5313,8.0781 7.0977,16.0898 10.629,24.1015 7.2578,16.4688 14.5429,32.9336 21.8632,49.3399 C -13.8164,-31.4844 -7.3203,-15.5195 0,0 Z" /></g><g
             transform="translate(1323.6563,666.9062)"
             id="g68"><path
               id="path70"
               style="fill:#000000;fill-opacity:1;fill-rule:nonzero;stroke:none"
               d="m 0,0 c 0,0 -0.0352,0.0312 -0.0352,0.0312 -28.4765,1.3282 -56.9179,2.9375 -85.3007,5.4922 0.0312,0 0.0664,0 0.0976,0 -0.1914,0.0313 -0.3789,0.0313 -0.5703,0.0625 -0.2812,0.0313 -0.5664,0.0313 -0.8203,0.0625 0.0312,0 0.0976,0 0.1601,0 -3.6914,0.3477 -7.3828,0.6953 -11.0742,1.0391 3.6914,-0.375 7.3828,-0.6914 11.0742,-1.0703 0.1875,0 0.4415,0 0.6602,-0.0625 0.1914,0 0.3789,0 0.5703,-0.0625 C -56.8789,2.9687 -28.457,1.3281 0,0 Z" /></g><g
             transform="translate(1354.9805,664.8906)"
             id="g72"><path
               id="path74"
               style="fill:#000000;fill-opacity:1;fill-rule:nonzero;stroke:none"
               d="M 0,0 C 10.3789,-0.6328 20.7578,-1.2656 31.1367,-1.8945 20.7578,-1.2656 10.3789,-0.6016 0,0.0312 c -5.0156,0.3125 -10.0664,0.6915 -15.1133,1.1329 -0.789,0.0312 -1.5742,0.0976 -2.3945,0.1289 0,0 0.0312,0 0.0625,0 -0.3477,0.0312 -0.6641,0.0312 -0.9805,0.0625 -0.0312,0 -0.0937,0 -0.125,0 -4.1015,0.2187 -8.2344,0.3789 -12.3359,0.6601 4.1015,-0.3125 8.2344,-0.4414 12.3359,-0.6914 0.0313,0 0.0938,0 0.125,0 0.3164,0 0.6328,0 0.9805,-0.0625 0.789,0 1.5781,-0.0664 2.332,-0.1289 C -10.0664,0.6914 -5.0156,0.3125 0,0 Z" /></g><g
             transform="translate(1483.5,650.5664)"
             id="g76"><path
               id="path78"
               style="fill:#000000;fill-opacity:1;fill-rule:nonzero;stroke:none"
               d="M 0,0 C 1.8438,-0.3555 3.6172,-0.8203 5.3203,-1.3984 3.6172,-0.8125 1.8438,-0.3398 0,0.0312 c -7.6992,1.5157 -15.5234,2.8086 -23.2813,3.9766 -13.9765,2.082 -27.8242,4.668 -41.3593,6.875 -1.2617,0.0625 -2.5235,0.1289 -3.7852,0.2227 1.2617,-0.1289 2.5235,-0.1914 3.7852,-0.2539 13.5351,-2.2071 27.3828,-4.793 41.3593,-6.875 C -15.5234,2.8398 -7.6992,1.5156 0,0 Z" /></g><g
             transform="translate(1519.1758,600.9141)"
             id="g80"><path
               id="path82"
               style="fill:#000000;fill-opacity:1;fill-rule:nonzero;stroke:none"
               d="M 0,0 C -0.1875,0.7266 -0.3477,1.4805 -0.5352,2.207 -7.8867,14.3203 -14.8906,26.6563 -22.0195,38.9258 -14.9219,26.6563 -7.918,14.3203 -0.5664,2.207 -0.3789,1.4805 -0.1875,0.7266 0,0 Z" /></g><g
             transform="translate(1778.8945,531.2578)"
             id="g84"><path
               id="path86"
               style="fill:#000000;fill-opacity:1;fill-rule:nonzero;stroke:none"
               d="M 0,0 C 24.1719,30.0156 46.8125,60.9688 67.9414,93.1523 46.8047,61 24.1719,30.043 0,0.0352 -27.3516,-32.8203 -56.3906,-63.8359 -87.2617,-93.3633 -56.3906,-63.8672 -27.3516,-32.8203 0,0 Z" /></g><g
             transform="translate(1936.3438,813.3437)"
             id="g88"><path
               id="path90"
               style="fill:#000000;fill-opacity:1;fill-rule:nonzero;stroke:none"
               d="m 0,0 c -0.0039,0.0039 -0.0039,0.0039 -0.0039,0.0078 -7.1641,-22.7031 -15.082,-45.125 -23.8477,-67.2305 -5.8984,-14.7968 -12.207,-29.4023 -18.7382,-43.914 -4.7305,-9.6211 -10.379,-18.7383 -15.8672,-27.8867 -5.3711,-8.9688 -10.8125,-17.8985 -15.3477,-25.2735 4.5352,7.3555 9.9805,16.2735 15.3477,25.2422 5.4882,9.1485 11.1367,18.2969 15.8672,27.8867 6.5312,14.5117 12.8398,29.1485 18.7382,43.9141 C -15.082,-45.1094 -7.1641,-22.7109 0,0 Z" /></g><g
             transform="translate(983.8084,2024.4607)"
             id="g92"><path
               id="path94"
               style="fill:#c7c7c7;fill-opacity:1;fill-rule:nonzero;stroke:none"
               d="m 0,0 c -33.3127,-3.2175 -66.1837,-8.5803 -98.9915,-15.1418 -26.5935,-5.8045 -53.0606,-12.1768 -79.3067,-19.4327 -25.6156,-7.1294 -50.7893,-15.3943 -75.8998,-24.1013 -18.1393,-6.8767 -36.152,-13.8801 -53.9438,-21.5774 -17.7919,-7.76 -35.2367,-16.0881 -52.6189,-24.6687 -22.0192,-11.5459 -43.6911,-23.5334 -64.9848,-36.4043 -20.6943,-12.5554 -40.7258,-25.9936 -60.537,-39.8745 -29.1801,-21.5141 -57.9503,-43.7854 -84.575,-68.3918 -2.7759,-2.5867 -6.9717,-6.4983 -11.1987,-10.4099 -26.9405,-25.0476 -52.3979,-52.8081 -76.7202,-81.4522 -23.7226,-29.2114 -45.6787,-59.4324 -66.026,-90.9783 -17.5709,-28.9594 -33.5648,-58.5498 -47.9184,-89.2126 -16.4037,-36.7827 -30.568,-74.3225 -42.8708,-112.6194 -6.341,-21.3884 -12.3032,-42.7766 -17.5397,-64.4172 -4.7952,-20.0633 -8.6436,-40.2525 -12.366,-60.5681 -2.9652,-18.9275 -5.9309,-37.8555 -7.7921,-56.9091 -1.7035,-17.8551 -3.0912,-35.6473 -4.1325,-53.5652 -1.4826,-41.2626 -0.6623,-82.3353 2.1453,-123.5347 2.0188,-22.587 4.3846,-45.1108 7.7605,-67.5714 3.3754,-22.1452 7.5707,-44.1645 12.1766,-66.1204 8.5172,-36.0261 18.6751,-71.3576 30.6312,-106.4367 14.669,-39.9371 31.3885,-78.739 50.6313,-116.7205 19.8739,-37.1611 41.7987,-72.8081 65.8684,-107.3198 23.7855,-32.4291 49.0542,-63.344 76.2467,-92.9344 27.9181,-29.1487 57.1932,-56.7198 88.1398,-82.6507 9.4635,-7.6339 19.0223,-15.0791 28.7384,-22.3978 22.9973,37.4771 45.9307,75.08 67.8556,113.1243 11.5456,20.7574 21.4514,42.3977 31.9561,63.6598 9.9054,20.1264 20.5363,39.8744 31.1359,59.6222 5.9938,11.1042 11.8931,22.2713 17.729,33.4388 5.552,10.5364 10.3472,23.7228 22.9341,27.3191 6.3406,1.7662 13.1546,1.2617 19.6529,1.1985 4.101,0 8.1707,-0.063 12.24,-0.063 66.5934,-0.505 133.1558,-0.9464 199.718,-1.4514 0.0633,0.063 2.3658,0.1892 4.7004,0.3158 1.1989,0.063 2.429,0.126 3.6279,0.126 0.3154,1.1989 0.6307,2.3974 0.9464,3.5331 4.7004,17.2872 10.1891,34.3852 15.6154,51.4199 5.5518,17.4765 11.293,34.827 16.9715,52.2402 5.6784,17.3506 11.4196,34.7638 17.1611,52.1775 2.7128,8.1387 5.4892,16.3409 8.3284,24.4799 1.4509,4.1638 2.902,8.3278 4.4478,12.492 0.7572,2.0821 1.5142,4.1642 2.3342,6.2462 0.6627,1.7664 1.5142,3.4071 2.8391,4.7948 1.5775,1.6408 3.502,2.4606 5.7101,2.9025 3.6279,0.8198 7.6973,-1.3249 9.5583,-4.4167 1.9877,-3.2806 1.9561,-7.6972 2.4607,-11.4196 0.4102,-3.1545 0.8516,-6.309 1.2934,-9.464 0.9148,-6.3089 1.8294,-12.618 2.7447,-18.9275 2.5551,-17.35 5.3627,-34.6372 8.0126,-51.9878 1.3882,-9.0221 2.8075,-17.9811 4.1008,-27.0033 0.5995,-4.2906 1.1358,-8.5175 1.672,-12.745 0.7255,1.7669 1.4509,3.5336 2.208,5.3 2.8393,6.6247 5.6469,13.1862 8.486,19.811 5.8677,13.817 11.8298,27.5712 17.7292,41.3882 6.9084,16.0887 13.7541,32.2402 20.5993,48.3918 1.7034,4.0377 3.407,8.0758 5.1421,12.1768 0.8516,2.0188 1.7351,4.1008 2.5867,6.183 0.9465,2.2085 1.672,5.0472 3.5964,6.6247 1.0096,0.8203 2.208,1.2617 3.4385,1.2617 1.3251,0 2.6499,-0.5046 3.6909,-1.5142 1.0723,-1.0092 1.6403,-2.4606 1.9871,-3.9117 0.8835,-3.9116 1.7351,-7.8864 2.6189,-11.8613 0.2204,-0.9464 0.5989,-2.5867 0.9463,-4.1642 5.8989,-26.1201 12.3977,-52.7448 18.3913,-79.4328 0.031,-0.1261 0.1892,-0.82 0.347,-1.5143 2.1137,-9.4008 4.1953,-18.9275 5.9936,-28.5175 0.8831,-4.732 1.7664,-9.464 2.7444,-14.1328 0.1265,0.3158 0.2524,0.6311 0.4102,0.9464 1.6401,3.7224 3.281,7.4452 4.9211,11.1043 3.5332,8.0758 7.0979,16.0884 10.6309,24.1013 7.2558,16.4669 14.5429,32.9342 21.8615,49.3379 6.972,15.7102 13.47,31.6725 20.7888,47.193 1.6407,3.6595 3.2811,8.265 7.9498,9.6532 5.4257,1.6402 10.4414,-2.0821 11.798,-7.3186 0.7889,-3.0918 1.199,-6.2462 1.7034,-9.4008 0.5364,-3.281 1.1043,-6.5615 1.7036,-9.8425 2.429,-13.3124 5.1739,-26.6248 8.1075,-39.811 1.3566,-5.9938 2.9653,-13.5018 4.6054,-20.9469 3.155,-13.943 6.5305,-29.59 9.5274,-45.2997 2.7126,-14.3853 4.7002,-28.8965 5.9304,-43.4706 0.4101,-4.3535 1.104,-10.0319 1.6091,-15.647 0.031,-0.1261 0.031,-0.2525 0.031,-0.3785 -0.1574,-0.6311 -0.2837,-1.3251 -0.3469,-2.0189 -0.0942,-1.7035 0.1895,-3.2811 0.7888,-4.732 0,-0.5046 0,-1.0725 -0.0317,-1.5775 -0.0315,-1.2617 -0.126,-2.4602 -0.2207,-3.6591 1.3564,0.126 2.6814,0.2525 4.0381,0.3786 0.0944,0 0.1892,0 0.2837,0 1.4829,-0.9464 3.1865,-1.5775 5.0476,-1.7667 3.6909,-0.3787 7.3816,-0.694 11.0727,-1.0725 0.1892,0 0.4414,0 0.6624,-0.063 0.1892,0 0.3784,0 0.5676,-0.063 28.3599,-2.5239 56.7832,-4.1642 85.2378,-5.4892 0,0 -0.0315,0.032 -0.0315,0.032 0.0315,0 0.0942,0 0.126,-0.032 0.0315,0 0.0315,0 0.0315,0 0.0944,0 0.1894,0 0.2522,0 0.0315,0 0.0315,0 0.0632,0 4.1008,-0.3153 8.2334,-0.4417 12.3347,-0.6938 0.0313,0 0.0945,0 0.1262,0 0.3152,0 0.6306,0 0.9778,-0.063 0.7883,0 1.5772,-0.063 2.3342,-0.1261 5.0474,-0.4418 10.0948,-0.8203 15.1109,-1.1357 10.3786,-0.6311 20.7571,-1.2622 31.1357,-1.8928 6.7825,-0.4418 13.5332,-0.8836 20.3157,-1.1357 2.9026,-0.063 5.7729,-0.1265 8.6438,-0.1892 1.2617,-0.1265 2.5237,-0.1894 3.7854,-0.2526 13.5334,-2.2081 27.3818,-4.7948 41.3569,-6.8768 7.76,-1.1358 15.5838,-2.4607 23.281,-3.9749 3.2806,-0.6311 6.3406,-1.6091 9.1482,-2.9652 1.5142,-2.5871 2.9969,-5.2054 4.5113,-7.7605 7.0976,-12.2716 14.101,-24.6059 21.4514,-36.7198 0.1892,-0.7255 0.3784,-1.4826 0.5676,-2.2082 1.1675,-4.1008 2.6184,-8.139 4.1643,-12.1134 0.978,-2.2086 2.082,-4.3534 3.2493,-6.4355 8.4856,-14.6373 17.8235,-28.8333 26.8769,-43.1548 9.022,-14.1328 17.8238,-28.3287 26.0257,-42.9661 2.208,-3.7224 6.4983,-9.5899 10.1894,-15.8363 4.4795,-7.5706 8.8013,-15.1418 14.0696,-22.1452 4.5427,-5.8044 9.1482,-11.6088 13.6592,-17.4132 3.281,-4.2902 8.6753,-11.3569 13.8174,-18.6755 2.3025,-3.2177 4.8581,-6.435 7.0029,-9.7793 3.06,-4.8581 5.2683,-10.1579 5.9309,-15.773 14.9211,12.1771 29.8425,25.0477 44.48,38.4233 31.9878,30.3471 62.0195,62.3349 90.2534,96.2155 29.3689,36.4673 56.467,74.3224 81.3572,114.0707 4.9211,7.9492 11.3252,18.4228 17.6343,28.9592 5.489,9.1483 11.1357,18.2965 15.8671,27.8865 6.5306,14.5113 12.8396,29.1486 18.7388,43.9124 8.7698,22.1453 16.6878,44.5426 23.8489,67.2561 -0.0632,0.063 0.0315,0.4414 0.126,0.82 3.281,17.7922 8.8012,35.6473 12.3347,54.0071 2.1765,12.997 4.0061,26.0568 6.2143,39.0539 2.5555,14.9527 4.9212,29.9057 6.7195,44.9216 3.7224,30.8521 6.656,61.767 8.2966,92.7452 1.6087,36.0887 1.5455,72.2407 -0.978,108.203 0,0 -0.3157,4.0381 -0.3157,4.0381 -1.4509,14.5112 -3.5329,28.77 -6.5297,42.9655 -6.1514,28.3915 -11.5457,56.8462 -17.5396,85.2378 -9.7793,43.4072 -21.7981,85.9944 -36.5305,128.0134 -16.751,45.8055 -36.688,90.0328 -59.0859,133.3772 0,0 -0.2837,0.5047 -0.2837,0.5047 -0.1892,0.3784 -0.3785,0.7571 -0.5994,1.1357 -8.5803,16.2776 -17.855,33.5647 -28.0447,50.2842 -10.4414,17.0979 -21.4509,33.8174 -32.9336,50.3474 -22.4294,31.0415 -46.436,60.7578 -72.2724,89.0862 -27.5078,29.4639 -56.7198,57.0984 -87.6663,82.9663 0,0 -0.0315,0.0628 -0.0315,0.0628 -0.5364,0.3786 -1.0412,0.8205 -1.5776,1.2622 -26.719,21.5141 -55.3948,42.5871 -85.6157,61.767 -33.8807,20.9463 -68.7073,39.8111 -104.7015,56.783 -38.0444,17.2874 -76.8462,32.1768 -116.6889,44.7324 -37.1294,11.167 -74.5747,20.2525 -112.7139,27.3819 C 183.8823,-4.9211 144.7333,-0.4412 105.206,1.8296 92.5383,2.3528 79.8896,2.6221 67.2507,2.6221 44.8281,2.6221 22.4344,1.7754 0,0 Z m 18.3285,-686.3474 c 4.7632,1.5141 10.063,2.1448 15.0159,2.1765 29.2429,1.104 57.8238,-13.9746 70.8526,-40.6626 12.271,14.5425 29.2114,25.1106 47.9184,28.8645 3.6275,0.7571 7.3499,1.1357 11.0725,1.1357 10.6624,0 21.2622,-3.0917 29.8426,-9.59 3.9748,-2.9969 7.9497,-6.7825 10.2839,-11.262 2.303,-4.4168 0.7253,-10.0002 -3.6909,-12.3977 -4.3533,-2.3656 -10.1262,-0.7253 -12.4292,3.6909 -0.7571,1.4827 -1.5457,2.9341 -2.3972,4.3218 -0.4419,0.6626 -0.9148,1.3249 -1.3882,1.956 -0.3787,0.4417 -0.7888,0.8831 -1.199,1.2933 -0.5991,0.5363 -1.2302,1.0407 -1.8613,1.5144 -0.4412,0.2524 -0.8199,0.5044 -1.23,0.757 -1.0098,0.5047 -1.9876,0.9781 -3.0286,1.4195 -0.7885,0.2524 -1.5774,0.5366 -2.3657,0.7571 -1.199,0.3784 -3.4702,0.7885 -5.7417,1.0095 -1.1355,0.0945 -2.6497,0.1577 -4.1956,0.1577 0,0 -0.0312,0 -0.0312,0 -0.2524,0 -0.5366,0 -0.8203,-0.0317 -1.1673,-0.0943 -3.0601,-0.252 -4.9841,-0.4729 -2.9974,-0.5362 -5.931,-1.2305 -8.8645,-2.1138 -3.0286,-1.0408 -5.8992,-2.2713 -8.8013,-3.5962 -1.6406,-0.9465 -3.7539,-2.1138 -5.836,-3.3438 -2.1137,-1.4194 -4.1643,-2.9336 -6.1831,-4.5112 -2.5554,-2.2396 -5.0161,-4.511 -7.445,-6.9399 -1.9556,-2.2715 -3.8174,-4.5428 -5.6153,-6.9402 -0.2209,-0.284 -0.4101,-0.5994 -0.5993,-0.8831 2.1135,-1.4515 4.1008,-3.0602 5.8991,-4.9843 3.1231,-3.344 5.6153,-7.2557 7.2239,-11.5458 3.3755,-8.8018 3.0286,-18.8015 -0.9465,-27.3507 -7.3496,-15.8675 -25.8674,-24.1014 -42.5552,-18.8332 -18.2969,5.7417 -28.8335,25.8682 -23.0918,44.1962 2.7444,8.6753 8.8959,16.12 16.9087,20.4734 3.186,1.7351 6.4038,2.7447 9.6843,3.3437 -12.0188,24.9534 -39.1799,42.7452 -67.0984,33.3128 -0.4846,-0.0801 -0.9513,-0.1184 -1.3986,-0.1184 -8.551,0 -10.1966,13.9087 -0.9039,15.1975 z m -392.3699,-201.9265 c 10.7885,4.8584 22.8391,8.139 34.5112,8.9909 65.2374,5.1418 133.6608,-0.8835 192.6835,-30.8837 11.0094,-5.4258 20.6627,-13.5016 29.7161,-21.6091 34.7009,-34.7005 -12.4605,-87.7927 -51.3883,-57.6977 -56.8458,41.5145 -126.9728,49.6852 -193.0622,67.4138 -1.0927,-0.183 -2.1557,-0.2701 -3.1848,-0.2701 -17.2437,-5e-4 -25.1425,24.5002 -9.2755,34.0559 z M 273.946,-995.9718 c -0.1262,25.2998 24.1013,40.7258 41.2624,55.5525 42.1768,33.4387 95.5528,51.5464 148.6763,57.3192 27.9812,2.902 62.7139,1.0724 68.2341,-33.1551 2.9024,-19.0853 -9.1482,-38.7071 -27.9497,-43.912 -41.0727,-12.2084 -85.0796,-13.4073 -123.5656,-34.0382 -22.7137,-10.9778 -42.5242,-29.1799 -67.3196,-35.0791 -1.7757,-0.306 -3.5484,-0.4532 -5.3011,-0.4532 -17.9558,-8e-4 -34.008,15.4292 -34.0368,33.7659 z" /></g><g
             transform="translate(1969.3125,1149.293)"
             id="g96"><path
               id="path98"
               style="fill:#ffffff;fill-opacity:1;fill-rule:nonzero;stroke:none"
               d="m 0,0 c 2.2695,-34.7266 2.2695,-69.5938 0.7187,-104.4023 -1.332,-25.168 -3.5195,-50.2969 -6.289,-75.3633 -0.6367,-5.793 -1.3086,-11.586 -2.0078,-17.3789 -0.4492,-3.75 -0.9336,-7.4961 -1.4492,-11.2383 -1.543,-11.2539 -3.3555,-22.4688 -5.2696,-33.6836 -2.207,-12.9961 -4.0351,-26.0586 -6.2148,-39.0547 -0.3321,-1.7226 -0.6797,-3.4375 -1.043,-5.1523 -3.5039,-16.5547 -8.3164,-32.7305 -11.2891,-48.8555 -0.0429,-0.1797 -0.0898,-0.3594 -0.121,-0.5039 -0.0157,-0.0899 -0.0274,-0.168 -0.0274,-0.2149 0,-0.039 0.0078,-0.0625 0.0234,-0.0703 -0.0039,-0.008 -0.0039,-0.0117 -0.0039,-0.0195 -0.0039,-0.004 0,-0.008 0.0039,-0.0117 -7.164,-22.711 -15.082,-45.1094 -23.8515,-67.2539 -5.8985,-14.7656 -12.207,-29.4024 -18.7383,-43.9141 -4.7305,-9.5898 -10.3789,-18.7383 -15.8672,-27.8867 -5.914,-9.875 -11.914,-19.6953 -16.6953,-27.4336 -0.3164,-0.5156 -0.6289,-1.0234 -0.9375,-1.5234 -1.5547,-2.4844 -3.1211,-4.961 -4.6914,-7.4297 -23.5937,-37.0469 -49.1328,-72.4571 -76.668,-106.6446 -27.3515,-32.8203 -56.3906,-63.8671 -87.2617,-93.3632 -0.9961,-0.9532 -1.9922,-1.9024 -2.9922,-2.8516 -11.8906,-10.8672 -23.9726,-21.4023 -36.0859,-31.5 -2.7969,-2.332 -5.5938,-4.6406 -8.3906,-6.9219 -0.6641,5.6133 -2.8711,10.9141 -5.9336,15.7735 -0.1328,0.2109 -0.2696,0.4218 -0.4063,0.6289 -2.0586,3.1211 -4.4375,6.1367 -6.5976,9.1484 -4.8203,6.8633 -9.8633,13.5039 -13.1758,17.8399 -0.2188,0.289 -0.4336,0.5703 -0.6406,0.8359 -3.9493,5.0781 -7.9688,10.1601 -11.9532,15.2383 -0.5703,0.7265 -1.1406,1.4492 -1.707,2.1758 -0.3281,0.4414 -0.6562,0.8828 -0.9766,1.3242 -4.832,6.6289 -8.8945,13.7226 -13.0898,20.8203 -1.7305,2.9297 -3.5938,5.7734 -5.3125,8.3515 -1.9453,2.9219 -3.707,5.504 -4.8789,7.4844 -4.6133,8.2344 -9.418,16.3281 -14.3438,24.3555 -3.832,6.2383 -7.7343,12.4297 -11.6796,18.6133 -4.5274,7.1601 -9.125,14.289 -13.6524,21.457 -4.5273,7.168 -8.9844,14.375 -13.2266,21.6953 -1.1679,2.082 -2.2695,4.2266 -3.25,6.4375 -1.3515,3.4766 -2.6328,7.0039 -3.7148,10.5781 -0.1523,0.5118 -0.3008,1.0235 -0.4492,1.5352 -0.1875,0.7266 -0.3789,1.4805 -0.5664,2.207 -7.3516,12.1133 -14.3555,24.4492 -21.4531,36.7188 -1.1329,1.9179 -2.254,3.8711 -3.379,5.8164 -0.375,0.6484 -0.7539,1.2969 -1.1328,1.9453 -0.6992,0.3398 -1.4179,0.6562 -2.1523,0.9453 -0.5469,0.2188 -1.1055,0.4258 -1.6719,0.6211 -1.7031,0.5781 -3.4765,1.043 -5.3203,1.3984 -7.6992,1.5157 -15.5234,2.8399 -23.2812,3.9766 -13.9766,2.082 -27.8243,4.668 -41.3594,6.875 -1.2617,0.0625 -2.5235,0.125 -3.7852,0.2539 -2.8711,0.0625 -5.7422,0.125 -8.6445,0.1875 -6.7813,0.2539 -13.5313,0.6953 -20.3125,1.1367 -10.3789,0.6289 -20.7578,1.2617 -31.1367,1.8946 -5.0157,0.3125 -10.0664,0.6914 -15.1133,1.1328 -0.7539,0.0625 -1.543,0.1289 -2.332,0.1289 -0.3477,0.0625 -0.6641,0.0625 -0.9805,0.0625 -0.0313,0 -0.0938,0 -0.125,0 -4.1016,0.25 -8.2344,0.3789 -12.3359,0.6914 -0.0313,0 -0.0313,0 -0.0625,0 -0.0625,0 -0.1563,0 -0.25,0 0,0 0,0 -0.0313,0 -0.0234,0.0234 -0.0625,0.0273 -0.0937,0.0312 -0.0118,0 -0.0235,0 -0.0352,0 0,0 0.0352,-0.0312 0.0352,-0.0312 -28.4571,1.3281 -56.879,2.9687 -85.2383,5.4922 -0.1914,0.0625 -0.3789,0.0625 -0.5703,0.0625 -0.2188,0.0625 -0.4727,0.0625 -0.6602,0.0625 -3.6914,0.3789 -7.3828,0.6953 -11.0742,1.0703 -0.6992,0.0703 -1.3711,0.2031 -2.0235,0.3945 -1.082,0.3125 -2.0976,0.7813 -3.0234,1.375 -0.0937,0 -0.1914,0 -0.2851,0 -1.3555,-0.1289 -2.6797,-0.2539 -4.0352,-0.3789 0,0.0117 0,0.0195 0.004,0.0313 0,0 -0.004,0 -0.004,0 0.0469,0.6015 0.0937,1.1992 0.1328,1.8046 0.0391,0.6016 0.0703,1.211 0.0859,1.8243 0.0313,0.5234 0.0313,1.0507 0.0313,1.5742 -0.3945,0.9609 -0.6523,1.9765 -0.7539,3.0469 -0.0547,0.5468 -0.0664,1.1132 -0.0352,1.6875 0,0.0117 0,0.0195 0,0.0312 0.0625,0.6953 0.1914,1.3516 0.3477,2.0156 0,0 0,0.004 0,0.004 0,0.125 0,0.2188 -0.0313,0.3477 -0.4101,4.5859 -0.9453,9.1758 -1.3515,13.0859 -0.0938,0.8946 -0.1797,1.75 -0.2578,2.5586 -0.6172,7.2852 -1.4219,14.5586 -2.4102,21.8086 -0.9883,7.2422 -2.1641,14.4649 -3.5195,21.6641 -2.9961,15.707 -6.3711,31.3555 -9.5274,45.2969 -0.207,0.9336 -0.4101,1.8671 -0.6132,2.8007 -0.7149,3.25 -1.4141,6.4766 -2.086,9.543 -0.6719,3.0703 -1.3125,5.9805 -1.9062,8.6055 -2.9336,13.1836 -5.6797,26.4961 -8.1094,39.8086 -0.5977,3.2812 -1.1641,6.5625 -1.7031,9.8437 -0.5039,3.1563 -0.9141,6.3086 -1.7032,9.4024 -0.8164,3.1484 -2.9609,5.7539 -5.7187,6.9687 -1.8242,0.8047 -3.918,1 -6.0781,0.3477 -1.3125,-0.3907 -2.3868,-1.0352 -3.2891,-1.8399 -0.0977,-0.0898 -0.1953,-0.1836 -0.293,-0.2773 -0.5781,-0.5625 -1.082,-1.1914 -1.5273,-1.8555 -0.1484,-0.2226 -0.293,-0.4492 -0.4336,-0.6758 0,0 0,-0.004 0,-0.004 -0.9727,-1.6172 -1.6875,-3.3984 -2.4063,-5 -7.3203,-15.5195 -13.8164,-31.4843 -20.789,-47.1914 -7.3203,-16.4062 -14.6055,-32.8711 -21.8633,-49.3398 -3.5312,-8.0117 -7.0977,-16.0235 -10.6289,-24.1016 -0.8203,-1.832 -1.6406,-3.6758 -2.4609,-5.5273 -0.8204,-1.8555 -1.6407,-3.7188 -2.461,-5.5782 -0.1562,-0.3125 -0.2851,-0.6289 -0.4101,-0.9453 -0.1211,0.586 -0.2422,1.1758 -0.3633,1.7618 -0.2383,1.1679 -0.4727,2.3398 -0.6992,3.5156 -0.5743,2.9453 -1.1289,5.8945 -1.6797,8.8554 -0.6758,3.5977 -1.3906,7.1875 -2.1328,10.7657 -0.9883,4.7656 -2.0235,9.5078 -3.0743,14.2226 -0.2617,1.1797 -0.5234,2.3555 -0.789,3.5313 -0.1563,0.6914 -0.3164,1.3867 -0.3477,1.5117 -0.375,1.6719 -0.75,3.3398 -1.1289,5.0078 -4.9179,21.6719 -10.125,43.2891 -15.0234,64.6094 -0.7539,3.2812 -1.5,6.5508 -2.2383,9.8164 -0.043,0.1992 -0.0859,0.4023 -0.1328,0.6016 -0.3086,1.3828 -0.6211,2.7382 -0.8125,3.5625 -0.4414,1.9882 -0.875,3.9765 -1.3086,5.957 0,0 0,0.004 0,0.008 -0.4375,1.9766 -0.8711,3.9453 -1.3125,5.8984 -0.3438,1.4493 -0.9141,2.9024 -1.9844,3.9102 -0.5859,0.5664 -1.2617,0.9766 -1.9765,1.2266 -0.1602,0.0546 -0.3204,0.1015 -0.4805,0.1406 -0.4063,0.0976 -0.8203,0.1484 -1.2344,0.1484 -0.3086,0 -0.6133,-0.0273 -0.914,-0.082 -0.9024,-0.1641 -1.7657,-0.5625 -2.5235,-1.1797 -1.4414,-1.1836 -2.2148,-3.0742 -2.9062,-4.875 -0.2344,-0.6055 -0.4532,-1.1992 -0.6914,-1.75 -0.8516,-2.082 -1.7344,-4.1641 -2.586,-6.1836 -1.7344,-4.1016 -3.4414,-8.1406 -5.1445,-12.1758 -6.8438,-16.1523 -13.6875,-32.3047 -20.5977,-48.3945 -5.8984,-13.8164 -11.8632,-27.5703 -17.7304,-41.3867 -2.1289,-4.9688 -4.2383,-9.8985 -6.3594,-14.8477 -0.707,-1.6523 -1.4141,-3.3086 -2.125,-4.9648 -0.7578,-1.7657 -1.4844,-3.5313 -2.207,-5.2969 -0.1368,1.0625 -0.2696,2.125 -0.4063,3.1875 -0.4062,3.168 -0.8164,6.3437 -1.2656,9.5547 -0.4883,3.3828 -0.9883,6.7617 -1.5039,10.1406 -0.8516,5.6172 -1.7305,11.2266 -2.5977,16.8633 -2.6523,17.3516 -5.457,34.6367 -8.0117,51.9883 -0.918,6.3086 -1.832,12.6172 -2.7461,18.9258 -0.1094,0.789 -0.2226,1.5781 -0.332,2.3671 -0.3281,2.3555 -0.6524,4.7266 -0.961,7.0977 -0.2343,1.7383 -0.3554,3.6406 -0.6171,5.5039 -0.3008,2.1094 -0.7891,4.1758 -1.8438,5.918 -1.8633,3.0898 -5.9297,5.2343 -9.5586,4.414 -2.207,-0.4414 -4.1328,-1.2617 -5.7109,-2.9023 -0.082,-0.0859 -0.168,-0.1719 -0.2422,-0.2617 -0.9492,-1.0664 -1.6445,-2.2657 -2.2031,-3.5508 -0.1407,-0.3203 -0.2696,-0.6484 -0.3946,-0.9805 -0.8203,-2.082 -1.5742,-4.164 -2.332,-6.2461 -1.3555,-3.6445 -2.6328,-7.2851 -3.9023,-10.9297 -0.1836,-0.5195 -0.3672,-1.0429 -0.5469,-1.5625 -0.711,-2.0351 -1.418,-4.0742 -2.1172,-6.1132 -2.1055,-6.125 -4.1758,-12.2657 -6.2109,-18.3672 -1.4375,-4.3555 -2.8711,-8.7071 -4.3047,-13.0586 -4.3047,-13.0586 -8.5977,-26.1055 -12.8555,-39.1211 -3.5508,-10.8828 -7.125,-21.7461 -10.6602,-32.6211 -2.1211,-6.5274 -4.2304,-13.0625 -6.3125,-19.6172 -5.4257,-17.0352 -10.914,-34.1328 -15.6132,-51.418 -0.1563,-0.5664 -0.3165,-1.1484 -0.4727,-1.7343 0,-0.004 0,-0.008 0,-0.008 -0.1602,-0.5937 -0.3203,-1.1953 -0.4766,-1.7929 -0.8984,0 -1.8164,-0.0352 -2.7226,-0.0781 -0.3008,-0.0157 -0.6055,-0.0313 -0.9024,-0.0469 -2.3359,-0.1289 -4.6406,-0.2539 -4.7031,-0.3164 -66.5625,0.5039 -133.125,0.9453 -199.7187,1.4531 -4.0664,0 -8.1368,0.0625 -12.2383,0.0625 -3.5039,0.0352 -7.0977,0.1953 -10.6641,0.0625 -0.5469,-0.0195 -1.0898,-0.0469 -1.6328,-0.0859 -0.2148,-0.0157 -0.4297,-0.0313 -0.6445,-0.0469 -0.2539,-0.0195 -0.5039,-0.043 -0.7578,-0.0664 -0.25,-0.0235 -0.5039,-0.0508 -0.7539,-0.0781 -0.25,-0.0274 -0.5,-0.0586 -0.75,-0.0938 -1,-0.1289 -1.9961,-0.3008 -2.9805,-0.5234 -0.4922,-0.1094 -0.9805,-0.2305 -1.4688,-0.3672 -0.3945,-0.1133 -0.7773,-0.2305 -1.1562,-0.3633 -7.9453,-2.7461 -12.6524,-9.457 -16.5352,-16.6719 -1.8476,-3.4375 -3.5078,-6.9922 -5.2422,-10.2851 -5.8359,-11.168 -11.7343,-22.336 -17.7304,-33.4375 -2.6485,-4.9375 -5.3008,-9.875 -7.9414,-14.8164 -7.9258,-14.8321 -15.7657,-29.711 -23.1953,-44.8086 -10.504,-21.2618 -20.4102,-42.9024 -31.9532,-63.6563 -21.9258,-38.0469 -44.8593,-75.6484 -67.8554,-113.125 -9.7188,7.3164 -19.2774,14.7617 -28.7422,22.3985 -30.9453,25.9296 -60.2188,53.5 -88.1367,82.6484 -25.4961,27.7422 -49.2969,56.6484 -71.7696,86.8711 -1.4961,2.0156 -2.9883,4.0351 -4.4765,6.0625 -1.5039,2.1601 -3,4.3203 -4.4883,6.4883 -20.8281,30.3203 -40.0196,61.5312 -57.6328,93.8828 -1.2578,2.3125 -2.5078,4.6289 -3.75,6.9492 -4.211,8.3086 -8.2969,16.6602 -12.2696,25.0508 -14.1914,29.9648 -26.9023,60.4726 -38.3593,91.6719 -4.1094,12.0585 -8.0079,24.1445 -11.6993,36.2812 -7.0468,23.1641 -13.3437,46.5078 -18.9336,70.1523 -3.4531,16.4688 -6.6757,32.9688 -9.496,49.5469 -0.9415,5.5196 -1.836,11.043 -2.6797,16.5742 -0.6328,4.211 -1.2305,8.4258 -1.7969,12.6407 -2.4531,18.2578 -4.3242,36.5742 -5.9649,54.9336 -2.8085,41.1875 -3.6289,82.246 -2.1445,123.5312 0,0.0117 0,0.0234 0,0.0352 1.043,17.9179 2.4297,35.707 4.1328,53.5625 1.8594,19.0547 4.8282,37.9804 7.793,56.9101 3.7227,20.2852 7.5703,40.5039 12.3633,60.5664 4.582,18.9336 9.7187,37.6758 15.1836,56.3672 0.7773,2.6758 1.5664,5.3477 2.3593,8.0195 1.1524,3.5938 2.3243,7.1797 3.5079,10.7579 11.4687,34.6015 24.4961,68.5585 39.3593,101.8945 10.7657,22.9922 22.4532,45.3711 35.0391,67.3359 4.1914,7.3242 8.4883,14.6016 12.8828,21.8438 0.6367,0.9883 1.2734,1.9726 1.9102,2.957 18.5273,28.5391 38.3867,55.9727 59.6875,82.5352 1.4648,1.8359 2.9414,3.664 4.4257,5.4882 1.5196,1.793 3.0469,3.5821 4.5743,5.3633 22.9375,26.7696 46.8906,52.6055 72.1484,76.1172 4.2266,3.8828 8.4219,7.8242 11.1953,10.3789 26.625,24.6406 55.3985,46.9102 84.5781,68.3945 2.4766,1.7344 4.9571,3.4649 7.4414,5.1836 17.3868,12.0469 34.9844,23.7344 53.0938,34.7188 21.293,12.875 42.9648,24.8594 64.9844,36.4062 17.3828,8.5821 34.8281,16.9102 52.6211,24.6368 17.789,7.7304 35.8047,14.7343 53.9414,21.5781 25.1133,8.707 50.2851,16.9726 75.9023,24.1015 26.2461,7.2852 52.711,13.6602 79.3047,19.4649 32.8086,6.5625 65.6797,11.9219 98.9922,15.1094 35.0781,2.8086 70.0625,3.3125 105.207,1.8281 39.5274,-2.2383 78.6758,-6.7188 116.9102,-13.2461 38.1367,-7.0977 75.582,-16.2148 112.7109,-27.3516 39.8438,-12.5859 78.6446,-27.4453 116.6914,-44.7656 35.9922,-16.9726 70.8203,-35.8359 104.6992,-56.7812 3.7774,-2.3985 7.5313,-4.8243 11.2618,-7.2774 26.0976,-17.1719 50.9765,-35.6328 74.3554,-54.4609 0.5352,-0.4375 1.043,-0.8828 1.5782,-1.293 0,0 0.0312,-0.0312 0.0312,-0.0312 29.0117,-24.25 56.5,-50.0547 82.4883,-77.4883 1.7305,-1.8281 3.457,-3.6641 5.1758,-5.5078 6.4609,-7.0821 12.8086,-14.25 19.039,-21.5039 1.5625,-1.8125 3.1133,-3.6289 4.6563,-5.4532 0,0 0,0 0,-0.004 15.4492,-18.2343 30.2109,-37.0039 44.3555,-56.3164 1.414,-1.9297 2.8203,-3.8672 4.2226,-5.8086 0.7188,-1.0312 1.4336,-2.0664 2.1484,-3.1015 9.9961,-14.461 19.625,-29.0977 28.8204,-44.0391 0.6562,-1.0664 1.3125,-2.1367 1.9648,-3.207 0.6367,-1.043 1.2734,-2.0899 1.8984,-3.1407 9.4493,-15.707 18.1016,-31.8554 26.1485,-47.1132 0.2187,-0.3789 0.4101,-0.7578 0.5976,-1.1328 0,0 0.2852,-0.5391 0.2852,-0.5391 1.4023,-2.707 2.793,-5.4219 4.1719,-8.1367 20.707,-40.7149 39.207,-82.2657 54.914,-125.2071 13.3477,-38.082 24.4727,-76.625 33.7227,-115.8515 0.9531,-4.0586 1.8906,-8.1211 2.8086,-12.1953 0.75,-3.5469 1.4883,-7.0977 2.2226,-10.6485 5.1328,-24.8359 9.9336,-49.7422 15.3164,-74.5586 0.75,-3.5586 1.4414,-7.1132 2.0782,-10.6796 1.4414,-8.0235 2.6132,-16.0704 3.5664,-24.1797 0.3164,-2.6954 0.6132,-5.3946 0.8828,-8.1055 0,0 0.3164,-4.0352 0.3164,-4.0352 C -0.168,2.5586 -0.082,1.2773 0,0 Z m 48.8281,-133.8633 c 2.461,29.086 3.2813,58.2656 2.8711,87.4453 -0.3789,29.7774 -2.4922,59.4961 -3.5351,89.3047 -0.5039,14.7031 -1.0703,29.3711 -2.461,44.0391 -1.4804,15.8047 -4.2265,31.4219 -7.1601,47.0351 -5.836,31.043 -13.7539,61.8008 -22.9024,92.0508 -18.1054,59.9688 -43.5312,118.1719 -73.6289,173.0938 -31.1015,56.6875 -69.9687,109.2773 -111.6094,158.6445 -40.3164,47.793 -85.3632,91.4844 -133.9453,130.793 -49.2422,39.8086 -101.7968,75.2031 -157.1601,105.8984 -56.2461,31.168 -115.9649,55.7422 -177.2266,75.1445 -59.1797,18.7383 -120.1914,30.8203 -181.8008,38.168 -37.7265,4.4805 -75.8984,6.2773 -114.039,6.2773 -25.3946,0 -50.7891,-0.7851 -76.0235,-2.1132 -31.8945,-1.7032 -63.6601,-4.8243 -95.2695,-9.4961 -32.2734,-4.7617 -64.1328,-12.2383 -95.5234,-20.9766 -64.2266,-17.8555 -125.8672,-43.5664 -185.0157,-74.1328 -60.1914,-31.1055 -115.8398,-70.3164 -167.9843,-113.4102 -49.6836,-41.0703 -94.4805,-88.2656 -134.8907,-138.3906 -41.0742,-50.914 -76.8476,-106.0273 -108.6757,-163.125 -32.2071,-57.793 -57.8868,-118.7383 -77.7305,-181.832 -20.3164,-64.668 -32.4922,-131.6406 -39.211,-199.0547 -3.2187,-32.1445 -4.4804,-64.7656 -3.8476,-97.0352 0.6601,-34.3867 3.2812,-68.457 7.0664,-102.6523 3.7539,-34.1328 10.6914,-67.9492 18.1992,-101.4531 6.9102,-30.9141 16.1211,-61.2617 25.9961,-91.3555 20.6289,-62.8398 48.8633,-123.8828 82.1758,-180.9805 33,-56.5312 71.2305,-109.5898 114.0703,-159.0546 43.5977,-50.379 93.25,-95.5547 146.25,-135.8672 8.2656,-6.2813 16.5938,-12.3985 25.0469,-18.3594 0.031,0.0625 0.062,0.0937 0.094,0.1562 2.3985,3.5313 4.8282,7.0977 7.2266,10.6289 8.2617,12.1485 16.7812,24.1016 25.3945,35.9961 0.2813,1.3868 0.8164,2.711 1.6055,3.9102 0.2226,1.0742 0.6328,2.1133 1.168,3.0937 3.914,6.7813 8.0468,13.4063 12.3046,19.9688 -0.1601,0.125 -0.3476,0.25 -0.5039,0.3437 14.2266,23.379 28.3907,46.8165 42.6172,70.1915 13.6602,22.4609 28.3282,44.3242 41.2305,67.2265 12.0195,21.3242 23.25,43.1211 34.1328,65.0469 13.4063,26.9414 25.8359,54.3242 38.9922,81.3906 0.2187,0 0.4727,0 0.7227,0 0.7578,0 1.5468,0.0313 2.2734,0.0625 1.6719,-0.0976 3.375,-0.0976 5.1094,-0.0976 4.3554,-0.0313 8.707,-0.0625 13.0625,-0.0938 31.164,-0.2187 62.332,-0.4414 93.5,-0.6601 19.6523,-0.1602 39.3086,-0.2852 58.9922,-0.4415 4.4804,-0.0351 8.957,-0.0351 13.4375,-0.0351 11.8632,0 23.7539,0.0351 35.6171,-0.6914 25.9922,-1.6406 52.0196,-1.6406 78.043,-2.4297 22.1133,-0.6953 44.2305,-1.5469 66.3438,-2.1758 18.0429,-0.5078 36.0234,-1.9258 54.0703,-2.1445 14.7304,-0.1602 29.4609,-0.4102 44.1953,-0.9805 1.168,0.3164 2.4297,0.4727 3.6914,0.4727 0.4414,0 0.8516,0 1.293,-0.0313 4.9531,-0.4414 9.8711,-0.914 14.8242,-1.4179 0.3789,-0.0313 0.789,-0.0313 1.168,-0.0625 20.2851,-1.2618 40.6328,-3.1563 60.8828,-5.1446 1.9257,-0.1875 3.8515,-0.4101 5.7734,-0.6289 9.7188,-1.4844 19.3086,-3.5664 28.8984,-5.6797 2.8047,-0.3476 5.6133,-0.7226 8.3907,-1.0703 7.2539,-0.918 14.4804,-1.832 21.7343,-2.7148 17.9805,-1.0703 35.961,-2.1133 53.9454,-3.1211 14.9843,-0.8203 30.0312,-1.1367 45.0468,-1.7383 20.0938,-0.7539 40.2227,-1.5117 60.3477,-2.1445 7.5703,-0.25 14.5117,-2.586 20.0312,-7.8868 0.7891,-0.0625 1.5782,-0.0937 2.3672,-0.125 1.1016,-1.0703 2.2071,-2.1445 3.3125,-3.1875 3.1836,-3.1835 6.4336,-6.2773 9.6524,-9.4296 3.0273,-3.1563 5.9922,-6.5313 8.7382,-9.9063 2.0821,-2.8398 3.9102,-5.8672 5.6797,-8.8945 7.8516,-13.6914 15.2657,-27.7305 22.836,-41.6406 2.0195,-2.8399 3.8515,-5.836 5.6484,-8.7735 3.375,-5.4258 6.6875,-10.8828 9.9688,-16.3398 21.3242,-35.6133 42.2695,-71.4492 63.4062,-107.1602 3.4727,-5.8359 6.9102,-11.6406 10.3477,-17.5078 0.9765,-1.6719 1.957,-3.3437 2.9336,-5.0156 8.9296,-15.1446 17.7929,-30.3477 26.5625,-45.586 2.2695,-3.9726 4.5429,-7.9492 6.8125,-11.957 29.9687,24.293 58.4257,50.4766 85.332,77.9531 45.7734,46.7813 86.5312,98.2969 121.5156,153.6289 24.0391,37.9805 45.0508,77.9805 62.6836,119.3047 3.7852,8.8008 7.0977,17.793 10.5352,26.7539 0.0937,0.2188 0.1914,0.4414 0.2851,0.6914 0.1563,0.2852 0.3164,0.5704 0.4414,0.8868 0,0 0.2852,0.6289 0.2852,0.6289 0.2187,0.4726 0.4414,0.9765 0.6601,1.4492 0.0313,0.0312 0.0313,0.0664 0.0625,0.0976 0.3477,0.7891 0.6953,1.5743 1.0743,2.3633 0.3476,0.7578 0.6953,1.5469 1.039,2.336 0.0977,0.1562 0.1602,0.2851 0.2227,0.4414 5.8047,12.9336 11.3554,25.9922 16.625,39.1797 3.375,8.3906 6.6562,16.8789 9.7461,25.3945 0.1289,0.3164 0.2226,0.6328 0.3164,0.9453 5.1094,13.9766 9.875,28.0781 14.3554,42.2734 2.1133,6.75 5.0782,13.1875 7.2852,19.9375 3.9453,11.8946 7.3828,23.9414 11.0078,35.8985 3.5977,11.4843 7.3516,22.8711 10.3164,34.5429 3.1563,12.3672 5.6172,24.9219 8.0469,37.4141 5.6758,29.0547 9.7148,58.2031 12.207,87.6992 z" /></g></g></g></g><g
       transform="matrix(1,0,0,-1,0,2100)"
       id="g100"><g
         id="g102"><g
           clip-path="url(#clipPath108)"
           id="g104"><g
             transform="translate(400.4172,1445.634)"
             id="g110"><path
               id="path112"
               style="fill:#ffffff;fill-opacity:0.684146;fill-rule:nonzero;stroke:none"
               d="M 0,0 C -100.4023,-126.9922 61.1758,-294.4336 192.125,-199.2773 314.1602,-99.4844 220.1367,53.1172 107.2656,53.1406 71.2891,53.1484 33.4219,37.6523 0,0 Z" /></g><g
             transform="translate(1533.7336,1447.6458)"
             id="g114"><path
               id="path116"
               style="fill:#ffffff;fill-opacity:0.684146;fill-rule:nonzero;stroke:none"
               d="M 0,0 C -141.6562,-141.5273 64.1914,-357.2383 212.0586,-220.4062 321.8945,-110.6719 222.793,43.668 103.8047,43.6758 69.3359,43.6836 33.2109,30.7344 0,0 Z" /></g></g></g></g><g
       transform="matrix(1,0,0,-1,0,2100)"
       id="g118"><g
         id="g120"><g
           clip-path="url(#clipPath126)"
           id="g122"><g
             transform="translate(528.1663,1341.9248)"
             id="g128"><path
               id="path130"
               style="fill:#000000;fill-opacity:1;fill-rule:nonzero;stroke:none"
               d="m 0,0 c -74.0742,-21.4727 -148.332,-42.5039 -221.8555,-65.8242 -16.7812,-5.3125 -33.5586,-10.625 -50.3047,-16.0664 -3.1875,-1.0352 -5.1523,-4.3789 -4.1835,-7.6992 0.9296,-3.1485 4.5078,-5.2461 7.6953,-4.1836 90.0117,29.5625 181.1445,55.6171 271.7968,83.0195 C 9.4609,-8.9609 7.4297,0.2852 1.7617,0.2852 1.207,0.2852 0.6133,0.1953 0,0 Z" /></g><g
             transform="translate(1830.7756,1383.3428)"
             id="g132"><path
               id="path134"
               style="fill:#000000;fill-opacity:1;fill-rule:nonzero;stroke:none"
               d="m 0,0 c -78.5078,-9.5937 -157.1523,-19.0977 -235.4766,-30.0117 -12.2656,-1.6133 -24.4726,-3.6055 -36.707,-5.125 -3.2539,-0.3555 -6.8594,-0.7071 -9.0156,-3.4102 -3.4453,-4.4453 2.3789,-10.625 7.0469,-7.6992 64.3164,6.3125 128.6289,13.9414 192.9687,20.3906 27.9531,2.8321 55.8086,5.7969 83.793,8.8164 10.5195,1.5704 8.789,17.1446 -1.1485,17.1446 C 0.9922,0.1055 0.5078,0.0703 0,0 Z" /></g><g
             transform="translate(1571.5334,1276.4912)"
             id="g136"><path
               id="path138"
               style="fill:#000000;fill-opacity:1;fill-rule:nonzero;stroke:none"
               d="m 0,0 c -3.7422,0 -5.6016,-2.8047 -5.6016,-5.6367 0.0313,-2.9297 2.0313,-5.8281 5.9922,-5.6367 80.8321,-16.0704 159.086,-43.4141 239.5625,-61.4454 32.9453,-8.1093 65.8867,-16.1992 98.8321,-24.1835 12.2109,-3.0313 17.2304,15.6523 4.8007,18.9062 -62.3125,13.6523 -124.7617,26.9531 -186.6523,41.957 C 104.6328,-24.6406 53.3633,-6.1211 0.1328,0 0.0898,0 0.0469,0 0,0 Z" /></g><g
             transform="translate(234.3381,1440.1162)"
             id="g140"><path
               id="path142"
               style="fill:#000000;fill-opacity:1;fill-rule:nonzero;stroke:none"
               d="m 0,0 c -3.2539,-7.9844 7.2109,-7.7266 12.3672,-8.4687 60.668,-9.7891 120.4062,-21.8008 181.207,-30.0118 49.8828,-6.4414 99.8985,-11.5625 149.8789,-16.9414 9.8516,-1.0937 11.9102,14.043 1.836,15.2656 -77.7422,6.7657 -155.6758,12.4024 -232.7071,25.3751 C 76.9961,-9.3359 41.5742,-2.3477 5.8594,2.2578 5.3633,2.4375 4.8477,2.5156 4.3281,2.5156 2.5937,2.5156 0.8672,1.5703 0,0 Z" /></g></g></g></g></g></svg>