<svg xmlns="http://www.w3.org/2000/svg" viewBox="-247 358 80 80" fill="#fff">
    <path
        d="M-209.2,391.5c-3.8,0-6.9,3.1-6.9,7c0,3.8,3.1,7,6.9,7c3.8,0,6.9-3.1,6.9-7C-202.3,394.6-205.4,391.5-209.2,391.5z   M-209.2,403.1c-2.6,0-4.6-2.1-4.6-4.7s2.1-4.7,4.6-4.7c2.6,0,4.6,2.1,4.6,4.7S-206.6,403.1-209.2,403.1z M-204.3,418.7  c2.4-8.1,12.4-9.4,16-8.1V380c-5.1-5.8-12.5-9.5-20.9-9.5c-15.4,0-27.8,12.5-27.8,28c0,15.4,12.5,28,27.8,28c1.8,0,3.5-0.2,5.2-0.5  C-205.1,423.9-204.7,420.1-204.3,418.7z M-209.2,412.4c-7.7,0-13.9-6.3-13.9-14c0-7.7,6.2-14,13.9-14c7.7,0,13.9,6.3,13.9,14  C-195.3,406.1-201.6,412.4-209.2,412.4z M-175.6,387.7c-1.7-2.2-3.7-4.8-6.2-7.3c-2.8-2.8-1.5-7.1-1.9-9.9h-2.3v43.2  c-1-1-3.5-1.2-5.5-1.2c-4.5,0-10.7,4.6-10.7,9.1c0,2.9,2.6,4.9,5.7,4.9c4.6,0,12.9-1.8,12.9-9.2v-31.2c3.1,0.2,5,2.5,7.1,5.2  c1.9,2.4,2.3,5.8,2.4,8.8c0.2,5.3-2.4,9.4-3.7,12.4h1c1.9-3.2,4.8-9,4.8-14.8C-172,394.1-173.3,390.5-175.6,387.7z" />
</svg>