<?xml version="1.0" encoding="UTF-8" standalone="no"?>
<svg
   xmlns:dc="http://purl.org/dc/elements/1.1/"
   xmlns:cc="http://creativecommons.org/ns#"
   xmlns:rdf="http://www.w3.org/1999/02/22-rdf-syntax-ns#"
   xmlns:svg="http://www.w3.org/2000/svg"
   xmlns="http://www.w3.org/2000/svg"
   viewBox="0 0 2800 2800"
   height="2800"
   width="2800"
   xml:space="preserve"
   id="svg2"
   version="1.1"><metadata
     id="metadata8"><rdf:RDF><cc:Work
         rdf:about=""><dc:format>image/svg+xml</dc:format><dc:type
           rdf:resource="http://purl.org/dc/dcmitype/StillImage" /></cc:Work></rdf:RDF></metadata><defs
     id="defs6"><clipPath
       id="clipPath20"
       clipPathUnits="userSpaceOnUse"><path
         id="path18"
         d="M 41.4019,35.9445 H 2062.4 V 746.26 H 41.4019 Z" /></clipPath><clipPath
       id="clipPath46"
       clipPathUnits="userSpaceOnUse"><path
         id="path44"
         d="M 50.4893,273.783 H 2021.67 V 2063.58 H 50.4893 Z" /></clipPath><clipPath
       id="clipPath80"
       clipPathUnits="userSpaceOnUse"><path
         id="path78"
         d="M 299.765,1090.16 H 1855.88 v 408.87 H 299.765 Z" /></clipPath><clipPath
       id="clipPath98"
       clipPathUnits="userSpaceOnUse"><path
         id="path96"
         d="M 230.834,1176.31 H 1927.8 v 266.57 H 230.834 Z" /></clipPath></defs><g
     transform="matrix(1.3333333,0,0,-1.3333333,0,2800)"
     id="g10"><g
       transform="matrix(1,0,0,-1,0,2100)"
       id="g12"><g
         id="g14"><g
           clip-path="url(#clipPath20)"
           id="g16"><g
             transform="translate(1998.6757,745.8961)"
             id="g22"><path
               id="path24"
               style="fill:#ffffff;fill-opacity:1;fill-rule:nonzero;stroke:none"
               d="m 0,0 c -24.0742,-0.4023 -48.0195,-11.8867 -63.9023,-29.9102 -9.9141,-11.1132 -14.7891,-25.3984 -21.3438,-38.539 -3.3125,-7.086 -5.4844,-14.6016 -8.7891,-21.6875 -1.4218,-1.6992 -2.7734,-3.4141 -4.0234,-5.1602 -0.8086,-1.0976 -1.6562,-2.1094 -2.332,-2.9179 -0.0977,-0.0977 -0.1914,-0.1915 -0.3282,-0.2891 0,0 -0.0937,-0.125 -0.0937,-0.125 -2.8828,-3.043 -5.793,-6.0508 -8.5391,-9.2578 -2.5625,-2.9102 -5.0468,-5.918 -7.6679,-8.7696 -1.2618,-1.289 -2.6211,-2.457 -3.8516,-3.7851 -0.2266,-0.2227 -0.4531,-0.4141 -0.6758,-0.6172 -3.7578,-3.2656 -3.2383,-9.5078 0.4805,-12.5156 2.4531,-2 5.6641,-2.3008 8.3672,-1.2031 -15.0586,-22.6094 -27.9258,-46.9688 -36.7656,-66.9766 -0.1172,-0.1641 -0.2266,-0.3359 -0.3282,-0.5156 -0.8672,-1.3594 -1.539,-2.8555 -2.1211,-4.3946 -0.9765,-1.6757 -2.0156,-3.3203 -3.082,-4.9492 -13.3555,0.5274 -19.2656,-12.4258 -24.2031,-22.7148 -8.918,1.2734 -17.2656,-4.6836 -20.5156,-12.7774 -15.9922,-4.3242 -15.5743,-19.7929 -17.0938,-33.207 -3.6094,0.6289 -7.5469,-1.1836 -9.0234,-4.6836 -0.3555,-0.8086 -0.6524,-1.6562 -0.9414,-2.4961 -4.2383,-11.0312 -8.6055,-22.0312 -12.2266,-33.3555 -3.9805,-12.457 -7.1875,-25.0781 -9.3555,-37.9882 -2.0312,-12.0039 -2.5898,-24.5274 -0.4804,-36.5586 1.3203,-7.6055 4.3359,-15.1094 9.0859,-21.1953 8.2188,-10.418 21.8125,-13.1719 34.3945,-12.0743 9.0938,0.8125 17.6407,4.1797 25.9844,7.7383 4.625,2.0039 9.2852,4.4961 13.5899,7.1485 9.125,5.6328 17.9609,11.6484 26.371,18.3828 16.6602,13.3593 32.3829,28.0156 46.6875,43.5468 17.1485,18.6016 33.586,37.8907 48.5313,58.3047 15.5664,21.2539 29.9609,43.1328 43.3242,65.8125 6.9922,11.9102 13.3047,24.2032 19.4492,36.5274 5.8203,11.6172 11.1289,23.6211 15.6289,35.3672 0.0977,0.2578 0.1914,0.5195 0.1914,0.5195 0.0665,0.2227 0.1641,0.4531 0.2618,0.7109 0.8086,2.0703 1.582,4.2032 1.7422,4.5938 0,0 0.4843,1.2656 0.4843,1.2656 3.1719,8.2852 6.0039,16.7852 8.3164,25.3945 0.3282,0.7305 0.6485,1.4649 0.961,2.2032 5.7579,14.789 12.1173,36.1562 11.629,53.6523 0.3633,2.0352 0.6992,4.0742 1.0078,6.1172 C 63.4777,-28.0168 36.2137,0.11 3.5928,0.1135 2.3999,0.1136 1.2059,0.0762 0,0 Z m -24.5,-64.7461 c 0.8477,0.4375 1.6992,0.8672 2.5508,1.2891 11.3711,3.3437 23.0781,5.3906 34.7265,5.8828 0.2735,-0.1797 0.543,-0.3594 0.8164,-0.5156 0.3946,-0.3243 0.7813,-0.6446 1.168,-0.9415 0.3242,-0.3203 0.6133,-0.6445 0.9414,-0.9648 0.2891,-0.3945 0.5782,-0.75 0.8399,-1.1367 0.4531,-0.7735 0.875,-1.5508 1.2617,-2.332 0.3555,-0.9063 0.7109,-1.8086 1.0312,-2.7149 0.4219,-1.582 0.8086,-3.1719 1.1368,-4.7539 0.3828,-2.9453 0.6445,-5.8945 0.8359,-8.832 0,-0.625 -0.0039,-1.25 -0.0156,-1.875 -7.9883,10.664 -19.9219,17.6523 -35.8008,17.6562 -3,0 -6.1328,-0.25 -9.4141,-0.7695 -0.0273,0.0039 -0.0508,0.0039 -0.0781,0.0078 z" /></g><g
             transform="translate(81.8082,705.8241)"
             id="g26"><path
               id="path28"
               style="fill:#ffffff;fill-opacity:1;fill-rule:nonzero;stroke:none"
               d="m 0,0 c -16.7266,-7.082 -28.0195,-22.6797 -33.9414,-39.375 -2.8828,-8.1523 -4.2109,-16.7266 -5.2422,-25.3008 -0.9727,-7.8633 -0.6172,-16.0156 -0.2578,-23.914 0.3828,-8.0821 1.5508,-16.1094 2.7461,-24.1329 4.5664,-30.4179 15.375,-59.6367 27.4375,-87.7812 6.0508,-14.1719 13.3633,-27.8906 20.9336,-41.2891 7.0547,-12.3906 14.5976,-24.6562 22.7851,-36.3047 8.8282,-12.5507 17.8907,-24.875 27.6914,-36.6562 9.7383,-11.707 20.0274,-22.875 30.7696,-33.6836 6.4101,-6.4062 13.1992,-12.4844 20.1953,-18.2773 0.6016,-0.5039 1.1953,-0.9727 1.3867,-1.1368 11.7813,-9.7382 24.2969,-19.1796 37.9219,-26.1757 20.289,-10.3829 43.6797,-19.3438 66.6875,-13.1993 7.8906,2.1407 14.8828,5.793 21.2226,10.9727 6.3711,5.1758 11.4571,12.7461 14.7539,20.1875 3.2071,7.2148 5.3086,14.7578 6.5977,22.5234 2.2344,13.5157 2.0742,27.6875 -0.4805,41.1875 -0.0976,0.5469 -0.1953,1.0664 -0.289,1.6172 0.2226,0.6446 0.3828,1.3203 0.4531,2.0352 0.4141,3.4648 -1.2656,7.0195 -4.0781,9.0273 -2.2618,2.9766 -6.8008,3.6602 -9.9688,1.6836 -1.3906,-0.875 -2.3906,-2.168 -2.9765,-3.6211 -1.4258,-1.6562 -2.2657,-3.7578 -2.2266,-6.2461 0.0586,-1.7148 0.5781,-3.3711 1.418,-4.7578 0.0664,-1.2305 0.1328,-2.4258 0.1328,-3.5937 0.125,-5.8555 0.0937,-11.7149 -0.0977,-17.5625 -0.2969,-4.9883 -0.7812,-9.9063 -1.2617,-13.5664 -0.75,-4.0352 -1.6563,-7.9844 -2.6875,-11.9336 -0.9727,-2.9102 -2.043,-5.7618 -3.2656,-8.5782 -0.875,-1.6757 -1.8125,-3.332 -2.8164,-4.9492 -0.711,-1.0625 -1.4922,-2.1015 -2.2696,-3.1054 -0.9648,-1.1641 -2.0039,-2.2618 -3.0742,-3.3321 -0.6445,-0.6172 -1.3203,-1.1953 -2.0351,-1.7148 -1.1954,-0.8399 -2.3946,-1.6485 -2.4922,-1.7461 -1.3594,-0.7774 -2.7852,-1.4531 -4.2383,-2.0391 -1.8125,-0.6484 -3.625,-1.1953 -5.5039,-1.6875 -1.3867,-0.25 -2.7735,-0.4531 -4.1719,-0.6445 -2.4844,-0.1563 -4.9492,-0.2227 -6.0117,-0.1563 -2.4649,0.1563 -4.9219,0.4532 -7.3789,0.8399 -3.1719,0.6172 -6.2813,1.4258 -9.3555,2.3594 -3.6211,1.2343 -7.1484,2.6875 -10.6758,4.1445 -6.2422,3.0742 -12.2617,6.3672 -18.1797,10 -6.2812,4.1719 -12.5234,8.4687 -18.0937,12.9687 -0.3555,0.3243 -0.7109,0.6172 -1.0977,0.9414 -0.0273,0.0313 -0.0664,0.0313 -0.0273,0.0313 -1.6211,1.3594 -3.2383,2.6875 -4.8281,4.0078 -9.5391,8.418 -18.5664,17.2149 -27.3047,26.4375 -10.7109,11.8399 -20.7695,24.2656 -30.2891,37.0508 -13.5547,19.0859 -25.7148,38.9219 -35.9726,57.7187 -4.7617,9.0274 -9.2578,18.1524 -13.5586,27.4024 -4.336,9.3555 -8.2188,18.9609 -12.0391,28.5078 -3.1055,8.6055 -6.0508,17.2148 -8.8672,25.9531 -2.6797,8.3438 -4.5937,17.0469 -6.5976,25.6211 -1.4844,8.2539 -2.7852,16.4727 -3.8828,24.7852 -0.2891,3.914 -0.6172,7.8359 -0.7149,11.7773 -0.0273,3.8516 0.0391,7.7031 0.1367,11.5508 0.3868,3.8242 0.836,7.5703 1.3868,11.3281 0.7148,3.1992 1.5234,6.3399 2.4296,9.4805 0.5469,1.4844 1.1329,2.9414 1.7422,4.3945 0.9727,1.9141 2.0117,3.7578 3.1094,5.5977 0.418,0.5859 0.8711,1.164 1.3242,1.7539 0.75,0.8359 1.5195,1.6758 2.3281,2.4844 0.4922,0.4218 1.0039,0.8476 1.5235,1.2343 0.875,0.5782 1.7461,1.1641 2.6875,1.7149 0.9726,0.4531 1.9375,0.9023 2.9101,1.289 0.7422,0.2618 1.4571,0.4922 2.1993,0.6836 1.6171,0.2891 3.2343,0.5508 4.8906,0.7422 1.6094,0.0664 3.2305,0.0977 4.8476,0.0664 1.9454,-0.1328 3.8243,-0.3554 5.7305,-0.6133 3.1328,-0.6171 6.1758,-1.4257 9.25,-2.2656 4.2774,-1.5234 8.4492,-3.207 12.5899,-5.0195 6.0156,-3.0352 11.8437,-6.3399 17.5664,-9.8672 7.5742,-5.1133 14.8554,-10.5117 21.9765,-16.2031 0.25,-0.211 0.5,-0.4258 0.75,-0.6407 -4.0508,-1.5585 -8.1054,-4.0898 -12.0898,-7.75 -17.6524,-16.9648 -8.7656,-44.8007 11.0976,-55.6445 2.2891,-10.2969 9.461,-18.8281 13.4336,-28.5469 -5.0117,-8.5859 0.668,-19.0039 2.4219,-27.8828 1.8516,-14.0859 11.8398,-30.2656 26.5547,-17.5742 10.3398,-2.8984 20.3008,6.1719 19.9648,16.3008 0.8164,0.8516 1.168,2.1016 0.8516,3.293 -0.8438,3.3789 -2.2461,6.5507 -3.8906,9.6093 -0.2227,4.4805 -0.4141,9.1836 -2.5039,13.2657 -0.5118,0.8476 -0.9922,1.7226 -1.4454,2.6132 12.7852,11.1133 8.5547,30.1407 2.5547,44.2188 -0.3047,2.0156 -0.7343,4.0547 -1.2812,6.0976 0.0547,0.008 0.1094,0.0157 0.164,0.0274 0.9415,-0.2305 1.9063,-0.3555 2.9493,-0.3945 5.5976,-0.0977 10.414,4.6914 11.0312,10.0664 0.1328,0.7148 0.1602,1.457 0.1328,2.1679 0.4805,1.2618 0.8086,2.6211 0.9649,4.0743 0.3945,3.625 -0.3867,6.8906 -1.7149,10.2929 -1.4179,3.6211 -4.5586,6.8594 -7.0156,9.8633 -4.5664,5.5977 -9.4805,10.9063 -14.4023,16.1797 -10.0313,10.6797 -21.0313,20.3164 -32.4493,29.4766 -6.0859,4.8554 -12.5546,9.2226 -19.125,13.3945 -6.4726,4.0742 -13.1992,7.9297 -20.1914,10.9726 C 62.9609,-1.6797 55.6172,0.9414 47.9219,3.0117 41.543,4.7266 34.875,5.5664 28.2461,5.5664 18.5742,5.5664 8.8633,3.7539 0,0 Z" /></g><g
             transform="translate(106.1009,695.9914)"
             id="g30"><path
               id="path32"
               style="fill:#ffffff;fill-opacity:1;fill-rule:nonzero;stroke:none"
               d="m 0,0 c -32.5117,-5.0156 -41.9961,-42.1602 -32.1563,-69.5977 -4.5703,-9.7421 -5.7617,-21.0312 -2.5117,-31.9296 7.1758,-23.9024 14.9922,-47.4727 23.4805,-70.918 26.5312,-62.8672 60.2031,-127.9336 114.7148,-170.8281 19.4883,-20.5508 42.4766,-38.3985 69.625,-47.5391 13.1094,-2.6797 24.3985,-1.3516 33.6993,2.8242 1.9414,-1.6914 3.8945,-3.3711 5.8554,-5.039 10.2852,-8.6563 20.7735,-17.1211 31.4571,-25.3477 13.6562,-12.2187 27.8984,-23.9414 42.664,-34.8945 15.7578,-13.2032 32.0977,-25.7344 48.9219,-37.4883 11.9336,-8.332 23.9961,-16.5 36.3437,-24.1875 12.5391,-7.8477 25.4727,-15.0859 38.5235,-22.125 26.8594,-14.4727 54.2226,-28.1406 82.3984,-39.8789 58.6563,-24.4414 119.5391,-42.7461 181.5703,-56.3164 60.3985,-13.1875 122.0196,-21.0586 183.7344,-24.2813 32.7969,-1.664 65.6992,-2.25 95.8671,-1.3476 32.2891,0.9648 64.3868,3.0508 96.4767,6.4961 31.289,3.3789 62.5234,7.9453 93.4882,13.539 30.75,5.5664 61.1719,12.4805 91.336,20.6446 30.5547,8.2656 60.7851,17.6562 90.4336,28.7851 28.8789,10.8047 57.2109,23.0899 85.1289,36.2774 13.8945,6.5898 27.5937,13.6367 41.1015,20.9961 13.3438,7.2421 26.336,15.0859 39.3672,22.9062 26.7852,16.0742 52.8633,33.1875 77.6914,52.1641 24.2813,18.5507 47.4688,38.457 69.336,59.8437 11.8437,11.5703 23.332,23.5391 34.3359,35.9258 1.5,1.3711 2.9805,2.7656 4.4492,4.1758 2.2149,2.7617 10.2032,9.9453 12.0352,15.1367 6.3125,7.7148 12.4062,15.6172 18.2656,23.6836 3.2461,4.5039 6.4961,9.0078 9.6133,13.6055 1.6094,2.375 3.2109,4.7265 4.7578,7.1367 0.9024,1.4179 1.9336,2.9258 2.4766,4.5351 0.5468,1.543 -0.7071,3.2188 -2.2813,3.2852 -0.039,0 -0.066,0 -0.094,0 -0.6797,0 -1.293,-0.2617 -1.711,-0.7109 -0.031,0 -0.031,0 -0.031,0 -1.832,-1.6719 -3.1836,-4.0547 -4.5977,-6.0821 -2.4765,-3.539 -4.9492,-7.039 -7.3984,-10.4531 -7.4766,-10.3281 -15.3399,-20.3477 -23.5117,-30.0859 -0.6016,-0.375 -1.0625,-0.9414 -1.3282,-1.586 -6.5195,-7.7187 -13.2265,-15.2617 -20.082,-22.6445 -0.6797,-0.7188 -1.3633,-1.4336 -2.0547,-2.1484 -1.25,-1.0274 -2.5117,-2.0391 -3.7851,-3.0352 -0.211,0.2109 -0.4532,0.3906 -0.7188,0.5234 1.6328,1.5274 3.2031,3.1016 4.6602,4.7539 0.9297,1.961 -0.5469,3.9961 -2.3711,4.4571 0.3047,0.3086 0.6133,0.6133 0.918,0.9218 3.9921,3.9844 7.7226,8.2305 11.6796,12.1563 0.094,0.0937 0.1602,0.1562 0.2539,0.25 1.7657,0.0391 3.4766,0.8086 4.793,2.125 2.4102,2.3789 2.0899,6.5312 -0.3203,8.7461 -1.1914,1.0976 -2.668,1.6094 -4.1211,1.6094 -1.7031,0 -3.4062,-0.7071 -4.6601,-1.961 -1.0938,-1.0898 -1.668,-2.5703 -1.7696,-4.0859 -3.2148,-2.9258 -6.8164,-5.4649 -10.164,-8.1367 -4.3399,-3.5 -8.711,-6.9414 -13.086,-10.1914 -0.1953,-0.1289 -0.4179,-0.2891 -0.6133,-0.418 -1.7343,-1.2852 -3.5,-2.5781 -5.2421,-3.8633 0,0 0,0 0.031,0 -10.3242,-7.5195 -20.9023,-14.5625 -31.4219,-21.832 -12.4414,-8.6172 -24.9531,-17.0781 -37.8515,-25.0547 -24.1797,-15.0195 -48.5235,-29.7813 -73.3828,-43.5742 -22.3829,-12.3516 -45,-24.3477 -68.1172,-35.2188 -24.1211,-11.3164 -48.7852,-21.6093 -71.4961,-30.5508 -43.4141,-16.9492 -87.8555,-30.9375 -133.0117,-42.2539 -47.0157,-11.4843 -94.6133,-19.3945 -142.629,-24.7968 -30.5156,-3.1875 -61.1328,-5.5352 -91.7813,-6.8203 -32,-1.3477 -64.0586,-0.7344 -93.9413,0.0312 -33.5078,1 -66.957,3.2188 -100.3399,6.4961 -33.1875,3.2461 -66.1523,8.3008 -99.1796,12.7656 -13.1524,1.8047 -26.3047,3.668 -39.3985,5.7891 0,0 -2.1875,0.3906 -2.1875,0.3906 -31.1289,5.2109 -61.8711,12.7031 -92.0703,21.8047 -9.7109,2.9883 -19.4531,5.9141 -29.168,8.8437 -31.0976,9.6485 -61.3632,21.7422 -91.0429,35.1524 -26.0821,11.9336 -51.4532,25.2539 -76.293,37.1758 -20.1836,10.9336 -40.2344,22.1367 -59.8555,34.0117 -17.2226,12.582 -34.1718,25.5586 -50.9609,38.6992 -4.3125,3.3125 -8.6094,6.6445 -12.8984,9.9844 -1.0977,0.9687 -2.2071,1.9219 -3.3438,2.8476 -2.875,2.3789 -5.4492,5.0899 -7.9883,7.4571 10.7266,17.9531 12.1875,43.1211 2.8789,65.1289 -7.3359,18.3594 -18.9101,34.414 -30.4258,50.3281 -12.8593,17.7227 -26.7578,34.6992 -38.8828,52.9688 -13.2461,20.0703 -31.8007,43.871 -58.7265,39.4296 -18.1289,30.6133 -31.0938,64.0313 -43.7969,97.1836 C 50.4102,-36.2188 40.7227,0.6328 7.8242,0.6406 5.3477,0.6406 2.75,0.4336 0,0 Z" /></g><g
             transform="translate(1966.1338,689.3674)"
             id="g34"><path
               id="path36"
               style="fill:#ffffff;fill-opacity:1;fill-rule:nonzero;stroke:none"
               d="m 0,0 c -7.8437,-5.8555 -14.2461,-12.6133 -19.4219,-20.9063 -1.6758,-2.6679 -2.9609,-5.7578 -3.7304,-8.9687 -25.5665,-25.4375 -60.6524,-62.1992 -46.7305,-101.1484 2.289,-8.4219 12.543,-13.6328 12.6367,-22.2539 -10.6758,-37.2071 -25.6602,-72.5821 -38.0352,-109.2149 -8.496,-5.5625 -8.8164,-16.6875 -14.3515,-24.539 0.0664,0 0.1015,0 0.168,0 -6.1446,-9.6172 7.871,-20.2891 15.7851,-11.8985 3.4414,3.3438 6.6602,7.0742 9.7422,10.8086 6.8203,1.9609 9.9766,9.1641 12.4531,15.1484 10.5821,25.7266 19.8711,51.9688 29.2617,78.1133 4.6993,15.793 13.6055,31.8399 11.0274,48.6563 -1.7656,12.5469 -15.0781,18.3633 -18.5508,30.0078 0,0 0.2266,-0.1602 0.2266,-0.1602 -0.4571,25.2774 19.8398,46.3399 36.1445,63 9.2617,-4.7929 19.8086,0 25.3086,8.1055 3.1836,-1.2227 6.6914,-1.7344 10.1328,-1.5117 30.2578,-26.7266 66.4727,16.0781 38.8477,43.3828 C 54.1953,3.375 44.1914,5.6914 34.9023,5.7578 30.7422,7.2578 26.5,8.0117 22.2969,8.0117 14.3867,8.0117 6.6406,5.3398 0,0 Z" /></g></g></g></g><g
       transform="matrix(1,0,0,-1,0,2100)"
       id="g38"><g
         id="g40"><g
           clip-path="url(#clipPath46)"
           id="g42"><g
             transform="translate(1135.9238,1328.4917)"
             id="g48"><path
               id="path50"
               style="fill:#000000;fill-opacity:1;fill-rule:nonzero;stroke:none"
               d="m 0,0 c -18.707,-3.7539 -35.679,-14.322 -47.9185,-28.8962 -2.4292,-2.8706 -4.6691,-5.8992 -6.6882,-9.0852 -3.3437,-0.0317 -6.593,-0.221 -9.7793,-0.7889 -3.2805,-0.599 -6.4983,-1.6086 -9.6843,-3.3437 -8.0128,-4.3534 -14.1643,-11.7981 -16.9087,-20.4734 -5.7417,-18.328 4.7949,-38.4545 23.0918,-44.1962 16.6877,-5.2682 35.2056,2.9657 42.5552,18.8332 3.9751,8.5492 4.322,18.5489 0.9465,27.3507 -1.6086,4.2901 -4.1008,8.2018 -7.2239,11.5457 -1.7983,1.9242 -3.7856,3.5329 -5.8991,4.9844 0.1892,0.2837 0.3784,0.5991 0.5993,0.8831 1.7979,2.3974 3.6597,4.6687 5.6153,6.9402 2.4289,2.4289 4.8896,4.7003 7.445,6.9399 2.0188,1.5776 4.0694,3.0918 6.1831,4.5112 2.0821,1.23 4.1953,2.3973 5.836,3.3438 2.9021,1.3249 5.7727,2.5554 8.8012,3.5962 2.9336,0.8833 5.8672,1.5776 8.8645,2.1137 1.9241,0.221 3.8169,0.3787 4.9842,0.4729 0.2837,0.0318 0.5678,0.0318 0.8203,0.0318 0,0 0.0312,0 0.0312,0 1.5459,0 3.0601,-0.0632 4.1956,-0.1577 2.2715,-0.221 4.5427,-0.6311 5.7417,-1.0096 0.7883,-0.2204 1.5771,-0.5046 2.3657,-0.757 1.041,-0.4414 2.0188,-0.9148 3.0286,-1.4195 0.4101,-0.2527 0.7888,-0.5046 1.23,-0.757 0.6311,-0.4737 1.2622,-0.9781 1.8613,-1.5145 0.4101,-0.4101 0.8203,-0.8515 1.199,-1.2932 0.4733,-0.6311 0.9462,-1.2934 1.3881,-1.956 0.8516,-1.3877 1.6402,-2.8391 2.3973,-4.3218 2.3029,-4.4163 8.0759,-6.0565 12.4292,-3.6909 4.4162,2.3974 5.9939,7.9809 3.6909,12.3977 -2.3343,4.4795 -6.3091,8.2651 -10.284,11.262 -8.5803,6.4982 -19.1801,9.59 -29.8425,9.59 C 7.3499,1.1357 3.6274,0.7571 0,0 Z" /></g><g
             transform="translate(1017.1528,1340.3213)"
             id="g52"><path
               id="path54"
               style="fill:#000000;fill-opacity:1;fill-rule:nonzero;stroke:none"
               d="m 0,0 c -4.9529,-0.0632 -10.2527,-0.6621 -15.0159,-2.1763 -9.748,-1.3882 -7.4134,-16.7195 2.3025,-15.1108 33.9122,11.4512 66.6884,-17.2241 72.5877,-50.095 1.451,-5.2682 7.2871,-8.3282 12.4925,-6.7823 14.6684,5.836 2.3974,23.7855 -1.5142,33.4703 C 58.2584,-14.8975 31.1319,0.053 2.9237,0.0535 1.9493,0.054 0.9762,0.0364 0,0 Z" /></g><g
             transform="translate(644.3099,1145.1777)"
             id="g56"><path
               id="path58"
               style="fill:#000000;fill-opacity:1;fill-rule:nonzero;stroke:none"
               d="m 0,0 c -11.7037,-0.8519 -23.7544,-4.1013 -34.5112,-8.991 -16.846,-10.0946 -6.9718,-37.0346 12.4287,-33.7857 66.0893,-17.7287 136.2474,-25.8993 193.0621,-67.4139 38.9595,-30.0949 86.0892,22.9972 51.4199,57.6978 -9.0533,8.1074 -18.7066,16.1832 -29.7165,21.609 C 145.79,-7.0616 92.9855,1.6439 40.5795,1.6444 26.9879,1.6444 13.4275,1.0585 0,0 Z" /></g><g
             transform="translate(1447.6931,1141.3922)"
             id="g60"><path
               id="path62"
               style="fill:#000000;fill-opacity:1;fill-rule:nonzero;stroke:none"
               d="m 0,0 c -53.1235,-5.8044 -106.4995,-23.9121 -148.6763,-57.3192 -17.1611,-14.8583 -41.3886,-30.2843 -41.2624,-55.553 0.0315,-20.1576 19.3691,-36.751 39.3379,-33.3122 24.7954,5.8676 44.6059,24.0697 67.3195,35.0474 38.4861,20.6626 82.493,21.8299 123.5657,34.0699 18.8015,5.2049 30.8521,24.8267 27.9497,43.9119 C 63.7891,-5.6211 40.4045,0.9495 16.8562,0.9495 11.158,0.9495 5.4517,0.5651 0,0 Z" /></g><g
             transform="translate(959.5179,2061.2122)"
             id="g64"><path
               id="path66"
               style="fill:#000000;fill-opacity:1;fill-rule:nonzero;stroke:none"
               d="m 0,0 c -31.8929,-1.7034 -63.6599,-4.8269 -95.2692,-9.4956 -32.2714,-4.7634 -64.1328,-12.2398 -95.5211,-20.9778 -64.2278,-17.8552 -125.8688,-43.5652 -185.0179,-74.1335 -60.1896,-31.1043 -115.8369,-70.3164 -167.9828,-113.408 -49.6848,-41.0732 -94.4804,-88.2656 -134.8909,-138.3928 -41.0727,-50.9153 -76.8462,-106.0259 -108.6759,-163.1248 -32.2087,-57.792 -57.887,-118.7392 -77.7298,-181.8313 -20.3157,-64.6694 -32.4924,-131.6414 -39.2116,-199.0553 -3.2178,-32.1455 -4.4794,-64.7644 -3.8488,-97.0359 0.6627,-34.3851 3.281,-68.455 7.0666,-102.651 3.7539,-34.1326 10.6941,-67.95 18.202,-101.452 6.9085,-30.9149 16.1199,-61.2624 25.9941,-91.3575 20.631,-62.8395 48.8649,-123.881 82.1772,-180.9798 32.9974,-56.5305 71.231,-109.5907 114.0705,-159.055 43.5967,-50.379 93.2503,-95.5532 146.2477,-135.8689 8.2651,-6.2778 16.5934,-12.3976 25.0477,-18.3598 0.0312,0.063 0.0628,0.095 0.0944,0.1578 2.3975,3.533 4.8264,7.0977 7.2242,10.6308 8.2652,12.1455 16.7823,24.1013 25.3947,35.9944 0.2837,1.3877 0.8199,2.7127 1.6086,3.9116 0.221,1.0723 0.6311,2.1136 1.1674,3.0916 3.9116,6.7821 8.0442,13.4068 12.3027,19.9684 -0.1577,0.1265 -0.3469,0.2525 -0.5046,0.347 14.2272,23.3757 28.3915,46.8143 42.6186,70.1902 13.6593,22.4606 28.3283,44.3221 41.231,67.2245 12.019,21.3253 23.2493,43.1236 34.1327,65.0481 13.4072,26.9404 25.8364,54.3224 38.9911,81.3889 0.2204,0 0.473,0 0.7254,0 0.7572,0 1.5455,0.032 2.2714,0.063 1.6719,-0.094 3.3755,-0.094 5.1101,-0.094 4.3535,-0.032 8.7069,-0.063 13.0603,-0.095 31.1675,-0.2205 62.335,-0.4413 93.5023,-0.6622 19.6536,-0.1576 39.3066,-0.2841 58.9912,-0.4418 4.4799,-0.032 8.9594,-0.032 13.4389,-0.032 11.8613,0 23.7539,0.032 35.6152,-0.6939 25.9942,-1.6402 52.0194,-1.6402 78.0452,-2.429 22.1136,-0.6939 44.2277,-1.5458 66.3414,-2.1766 18.0445,-0.505 36.0253,-1.9243 54.0698,-2.1452 14.7322,-0.1577 29.4638,-0.4102 44.196,-0.978 1.1675,0.3158 2.429,0.4733 3.6907,0.4733 0.4419,0 0.8521,0 1.2935,-0.032 4.9528,-0.4417 9.874,-0.9148 14.8269,-1.4193 0.3781,-0.032 0.7883,-0.032 1.167,-0.063 20.2839,-1.2617 40.6313,-3.1546 60.8837,-5.1422 1.9246,-0.1894 3.8489,-0.4102 5.7732,-0.6306 9.7161,-1.4831 19.3062,-3.5647 28.8963,-5.6784 2.8076,-0.347 5.615,-0.7256 8.3911,-1.073 7.2559,-0.9147 14.4797,-1.8295 21.7351,-2.7126 17.9814,-1.0724 35.9626,-2.1137 53.9436,-3.123 14.9849,-0.8203 30.0322,-1.1356 45.0483,-1.7351 20.0948,-0.757 40.2212,-1.5142 60.3472,-2.1452 7.5711,-0.2521 14.5112,-2.5867 20.032,-7.8866 0.7888,-0.063 1.5769,-0.094 2.3657,-0.126 1.104,-1.0725 2.2085,-2.1454 3.3128,-3.1862 3.186,-3.1861 6.435,-6.2778 9.6528,-9.4323 3.0283,-3.1546 5.9936,-6.5299 8.7383,-9.9053 2.0822,-2.8392 3.9116,-5.8677 5.6784,-8.8962 7.855,-13.691 15.2681,-27.7288 22.8392,-41.6407 2.0187,-2.8391 3.8488,-5.8359 5.6467,-8.77 3.3755,-5.4259 6.6877,-10.8834 9.9687,-16.3408 21.3247,-35.6154 42.2718,-71.4515 63.4073,-107.1618 3.4702,-5.8359 6.9089,-11.6403 10.3471,-17.508 0.9781,-1.6719 1.9561,-3.3438 2.9341,-5.0161 8.9273,-15.142 17.7918,-30.3472 26.5615,-45.584 2.2713,-3.9749 4.5428,-7.9497 6.814,-11.9558 29.969,24.2903 58.4233,50.4736 85.3323,77.9503 45.7729,46.7828 86.531,98.2976 121.5151,153.6291 24.0381,37.9815 45.0481,77.9819 62.6824,119.3072 3.7856,8.8012 7.0976,17.7922 10.5364,26.7512 0.0944,0.2209 0.1892,0.4418 0.2836,0.6938 0.1578,0.2842 0.3155,0.5679 0.4419,0.8837 0,0 0.2837,0.6306 0.2837,0.6306 0.2207,0.4734 0.4417,0.9781 0.6626,1.451 0.0318,0.032 0.0318,0.063 0.0628,0.095 0.3474,0.7887 0.6943,1.5774 1.073,2.3657 0.3469,0.7571 0.6938,1.5459 1.0407,2.3346 0.095,0.1578 0.1578,0.2837 0.221,0.4418 5.8044,12.9339 11.3567,25.9937 16.625,39.1801 3.3752,8.3911 6.656,16.877 9.7476,25.3946 0.1262,0.3153 0.2204,0.631 0.3154,0.9464 5.1106,13.975 9.8738,28.0757 14.3535,42.2716 2.1133,6.7509 5.0791,13.1864 7.2871,19.9372 3.9434,11.893 7.3819,23.9432 11.0093,35.8995 3.5965,11.4828 7.3504,22.8707 10.3157,34.5429 3.155,12.3659 5.615,24.9211 8.0442,37.4137 5.6782,29.0537 9.7163,58.2022 12.2087,87.6978 2.4603,29.0854 3.2806,58.2657 2.8704,87.4458 -0.3787,29.7793 -2.4919,59.4958 -3.5332,89.3067 -0.5044,14.7005 -1.0723,29.3695 -2.4604,44.0384 -1.4827,15.8046 -4.2271,31.4199 -7.1612,47.0353 -5.8359,31.0414 -13.7541,61.7987 -22.9023,92.0514 -18.1073,59.969 -43.5335,118.1714 -73.6285,173.0933 -31.1042,56.6882 -69.9692,109.2753 -111.6099,158.6447 -40.3156,47.7925 -85.3637,91.4842 -133.9445,130.7901 -49.2435,39.811 -101.7991,75.2058 -157.1626,105.9004 C 492.8444,-86.3101 433.1274,-61.7358 371.8649,-42.335 312.6845,-23.5967 251.6745,-11.5144 190.0651,-4.1641 152.3361,0.3154 114.1655,2.1133 76.0263,2.1133 50.6316,2.1133 25.2369,1.325 0,0 Z m -499.5316,-1669.7329 c -30.9465,25.8993 -60.2217,53.4703 -88.1398,82.6506 -27.1925,29.5589 -52.4612,60.5054 -76.2467,92.9029 -24.0697,34.5433 -45.9945,70.1903 -65.8684,107.3198 -19.2428,37.9814 -35.9623,76.8146 -50.6312,116.7521 -11.9562,35.0474 -22.114,70.379 -30.6313,106.405 -4.6059,21.9559 -8.8012,43.9752 -12.1766,66.1521 -3.3758,22.4289 -5.7417,44.9527 -7.7605,67.5398 -2.8075,41.1993 -3.6279,82.2721 -2.1453,123.5663 1.0413,17.9178 2.429,35.71 4.1325,53.5651 1.8612,19.0536 4.8269,37.9811 7.7921,56.9091 3.7224,20.2841 7.5708,40.5048 12.366,60.568 5.2366,21.6406 11.1987,43.0288 17.5398,64.3857 12.3027,38.3287 26.467,75.8685 42.8707,112.6509 14.3536,30.6629 30.3475,60.2217 47.9185,89.1812 20.3472,31.5771 42.3033,61.7986 66.026,90.9782 24.3222,28.6758 49.7796,56.4046 76.7202,81.4839 4.2269,3.8799 8.4227,7.8233 11.1986,10.3782 26.6247,24.6377 55.3949,46.9094 84.5751,68.3919 19.8111,13.8808 39.8426,27.3508 60.5369,39.906 21.2937,12.8711 42.9656,24.8584 64.9848,36.404 17.3822,8.5808 34.827,16.9087 52.6189,24.6375 17.7919,7.729 35.8045,14.7321 53.9438,21.5774 25.1105,8.707 50.2842,16.9719 75.8998,24.1013 26.2461,7.2871 52.7133,13.6594 79.3068,19.4643 32.8077,6.5616 65.6787,11.9241 98.9914,15.1101 35.0791,2.8077 70.0637,3.3128 105.206,1.8296 39.5274,-2.2397 78.6763,-6.7192 116.9099,-13.249 38.1392,-7.0979 75.5845,-16.2148 112.7139,-27.3506 39.8428,-12.5869 78.6445,-27.4448 116.689,-44.7637 35.9941,-16.9719 70.8208,-35.8366 104.7014,-56.7829 30.2209,-19.1799 58.8967,-40.2212 85.6157,-61.7359 0.5364,-0.4414 1.0413,-0.8833 1.5776,-1.2934 0,0 0.0315,-0.031 0.0315,-0.031 30.9466,-25.8682 60.1585,-53.5025 87.6663,-82.9981 25.8364,-28.3283 49.843,-58.0131 72.2725,-89.0861 11.4826,-16.4986 22.4921,-33.2178 32.9335,-50.3475 10.1897,-16.6877 19.4644,-33.9751 28.0447,-50.2526 0.221,-0.3785 0.4102,-0.7571 0.5994,-1.1358 0,0 0.2837,-0.5361 0.2837,-0.5361 22.3979,-43.313 42.3349,-87.5408 59.0859,-133.3455 14.7324,-42.0193 26.7512,-84.6062 36.5305,-128.0451 5.9939,-28.36 11.3882,-56.8464 17.5396,-85.2062 2.9968,-14.2272 5.0788,-28.486 6.5298,-42.9656 0,0 0.3156,-4.0381 0.3156,-4.0381 2.5235,-35.9939 2.5867,-72.1459 0.9781,-108.2346 -1.6406,-30.9782 -4.5742,-61.8931 -8.2967,-92.7135 -1.7983,-15.0476 -4.164,-30.0006 -6.7194,-44.9533 -2.2083,-12.997 -4.0379,-26.0568 -6.2144,-39.0539 -3.5334,-18.3285 -9.0537,-36.2148 -12.3347,-53.9755 -0.0945,-0.4101 -0.1892,-0.7887 -0.126,-0.8203 -7.1611,-22.7131 -15.0791,-45.1421 -23.8489,-67.2562 -5.8991,-14.7949 -12.2082,-29.4006 -18.7387,-43.912 -4.7315,-9.6216 -10.3782,-18.7382 -15.8672,-27.8868 -6.3091,-10.536 -12.7132,-21.0097 -17.6343,-28.9905 -24.8901,-39.7167 -51.9883,-77.5718 -81.3572,-114.0391 -28.2339,-33.9122 -58.2656,-65.8684 -90.2534,-96.247 -14.6374,-13.344 -29.5588,-26.2463 -44.48,-38.4234 -0.6626,5.6151 -2.8708,10.9149 -5.9309,15.7731 -2.1448,3.3754 -4.7004,6.5615 -7.0029,9.8108 -5.1421,7.2871 -10.5364,14.3854 -13.8174,18.6439 -4.511,5.8361 -9.1164,11.6089 -13.6592,17.4132 -5.2683,7.035 -9.5901,14.6062 -14.0696,22.1769 -3.6911,6.2147 -7.9814,12.0823 -10.1894,15.8047 -8.2019,14.6373 -17.0037,28.8332 -26.0256,42.9972 -9.0535,14.2904 -18.3914,28.4863 -26.877,43.1236 -1.1672,2.1138 -2.2712,4.2586 -3.2493,6.4667 -1.5459,3.9432 -2.9968,8.0131 -4.1643,12.0823 -0.1892,0.7256 -0.3469,1.4826 -0.5361,2.2081 -7.3503,12.1139 -14.3535,24.4482 -21.4829,36.7199 -1.5144,2.5866 -2.9971,5.1733 -4.5112,7.7604 -2.8077,1.3561 -5.8677,2.3342 -9.1482,2.9969 -7.6973,1.5141 -15.521,2.8075 -23.281,3.9748 -13.9751,2.0817 -27.8235,4.6687 -41.357,6.8769 -1.2617,0.063 -2.5237,0.1261 -3.7854,0.2209 -2.8708,0.063 -5.7412,0.1576 -8.6438,0.2208 -6.7824,0.2205 -13.5332,0.694 -20.3156,1.1042 -10.3787,0.6306 -20.7571,1.2933 -31.1358,1.9239 -5.0161,0.3158 -10.0635,0.6943 -15.1108,1.1356 -0.7888,0.032 -1.5769,0.095 -2.3975,0.1266 0,0 0.0317,0 0.0632,0 -0.3471,0.032 -0.6626,0.032 -0.9777,0.063 -0.0318,0 -0.095,0 -0.1263,0 -4.1013,0.2209 -8.2339,0.3785 -12.3347,0.6627 0.1577,0 0.3152,0 0.4734,0 -0.2209,0 -0.4101,0.032 -0.6311,0.032 0.0317,0 0.0632,0 0.0945,0 -0.0628,0 -0.1577,0 -0.2522,0 -0.0315,0 -0.0632,0 -0.126,0 0.0313,0 0.0628,0 0.0945,0 -0.126,0.032 -0.221,0.032 -0.3469,0.032 0.0945,0 0.1577,0 0.2524,-0.032 -28.4863,1.3249 -56.9407,2.9336 -85.332,5.4891 0.031,0 0.0627,0 0.0942,0 -0.1892,0.031 -0.3784,0.031 -0.5676,0.063 -0.2837,0.032 -0.5679,0.032 -0.8201,0.063 0.0313,0 0.0945,0 0.1577,0 -3.6911,0.3469 -7.3818,0.6939 -11.0727,1.0409 -1.8611,0.1892 -3.5647,0.8203 -5.0476,1.7983 -0.0945,-0.032 -0.1892,-0.032 -0.2837,-0.032 -1.3567,-0.1261 -2.6817,-0.2209 -4.0381,-0.3469 0.0947,1.1985 0.1892,2.3973 0.2207,3.6274 0.0317,0.5367 0.0317,1.0729 0.0317,1.6092 -0.5993,1.4193 -0.883,3.0284 -0.7888,4.7319 0.0633,0.694 0.1895,1.3562 0.3469,2.0189 0,0.126 0,0.2209 -0.031,0.347 -0.5051,5.6467 -1.1989,11.2934 -1.6091,15.6785 -1.2302,14.5741 -3.2178,29.0538 -5.9304,43.439 -2.9968,15.7097 -6.3723,31.3567 -9.5274,45.2997 -1.6401,7.4768 -3.2487,14.9531 -4.6054,20.9469 -2.9336,13.2179 -5.6785,26.5303 -8.1074,39.8426 -0.5994,3.2806 -1.1673,6.5616 -1.7037,9.8426 -0.5044,3.1229 -0.9145,6.3089 -1.7033,9.4007 -1.3567,5.205 -6.3723,8.9273 -11.7981,7.287 -4.6687,-1.3882 -6.3091,-5.9936 -7.9497,-9.6216 -7.3189,-15.5521 -13.8169,-31.4832 -20.7888,-47.193 -7.3186,-16.4353 -14.6058,-32.8709 -21.8616,-49.3379 -3.533,-8.0129 -7.0977,-16.0571 -10.6309,-24.1013 -1.6401,-3.6906 -3.281,-7.4134 -4.9211,-11.1358 -0.1577,-0.3153 -0.2837,-0.6307 -0.4102,-0.9464 -0.978,4.7004 -1.8613,9.4007 -2.7444,14.1328 -1.7983,9.5899 -3.8798,19.1484 -5.9936,28.5174 -0.1577,0.6944 -0.3159,1.3882 -0.3469,1.5143 -5.9937,26.7196 -12.4925,53.3444 -18.3914,79.4329 -0.3474,1.6091 -0.7258,3.2177 -0.9463,4.1958 -0.8838,3.9432 -1.7353,7.9181 -2.6189,11.8613 -0.3468,1.451 -0.9148,2.9025 -1.987,3.9116 -1.0411,0.978 -2.3659,1.4827 -3.691,1.4827 -1.2304,0 -2.4289,-0.4414 -3.4384,-1.2301 -1.9245,-1.5775 -2.6499,-4.4479 -3.5965,-6.6564 -0.8515,-2.0821 -1.7351,-4.1326 -2.5866,-6.183 -1.7351,-4.0693 -3.4388,-8.1074 -5.1421,-12.1451 -6.8452,-16.1515 -13.6909,-32.3031 -20.5994,-48.3919 -5.8994,-13.817 -11.8615,-27.6027 -17.7292,-41.3881 -2.8391,-6.6248 -5.6467,-13.2179 -8.4859,-19.8427 -0.7571,-1.7664 -1.4826,-3.5331 -2.2081,-5.2999 -0.5362,4.259 -1.0725,8.4859 -1.6719,12.745 -1.2934,9.0222 -2.7127,18.0128 -4.1009,27.0349 -2.6499,17.319 -5.4575,34.6373 -8.0126,51.9878 -0.9152,6.3091 -1.8299,12.6185 -2.7447,18.9275 -0.4418,3.1234 -0.8832,6.2778 -1.2933,9.4323 -0.5047,3.7224 -0.4731,8.1707 -2.4607,11.4512 -1.8611,3.0918 -5.9305,5.2366 -9.5584,4.4168 -2.2081,-0.4736 -4.1326,-1.2623 -5.7101,-2.9341 -1.3249,-1.3566 -2.1764,-3.0285 -2.8391,-4.7948 -0.8199,-2.0504 -1.577,-4.1326 -2.3342,-6.2146 -1.5458,-4.1642 -2.9968,-8.3599 -4.4478,-12.5237 -2.8392,-8.1389 -5.6156,-16.3096 -8.3283,-24.4799 -5.7416,-17.4137 -11.4828,-34.7953 -17.1612,-52.1775 -5.6784,-17.4132 -11.4196,-34.7636 -16.9715,-52.2086 -5.4263,-17.0663 -10.9149,-34.1327 -15.6154,-51.4199 -0.3156,-1.1672 -0.631,-2.3657 -0.9464,-3.5331 -1.1988,-0.032 -2.4289,-0.095 -3.6279,-0.1576 -2.3346,-0.1266 -4.6371,-0.2525 -4.7003,-0.3158 -66.5623,0.505 -133.1247,0.9464 -199.7181,1.4515 -4.0693,0.031 -8.139,0.063 -12.2399,0.094 -6.4983,0.032 -13.3124,0.5362 -19.653,-1.2301 -12.5869,-3.5647 -17.3821,-16.7827 -22.9341,-27.3191 -5.8359,-11.1674 -11.7352,-22.3346 -17.729,-33.4388 -10.5996,-19.7478 -21.2304,-39.4641 -31.1358,-59.5906 -10.5048,-21.2937 -20.4106,-42.9339 -31.9562,-63.6598 -21.9248,-38.0759 -44.8583,-75.6478 -67.8556,-113.1241 -9.7161,7.287 -19.2749,14.7633 -28.7384,22.3977 z" /></g><g
             transform="translate(983.8084,2024.4607)"
             id="g68"><path
               id="path70"
               style="fill:#c7c7c7;fill-opacity:1;fill-rule:nonzero;stroke:none"
               d="m 0,0 c -33.3127,-3.2175 -66.1837,-8.5803 -98.9915,-15.1418 -26.5935,-5.8045 -53.0606,-12.1768 -79.3067,-19.4327 -25.6156,-7.1294 -50.7893,-15.3943 -75.8998,-24.1013 -18.1393,-6.8767 -36.152,-13.8801 -53.9438,-21.5774 -17.7919,-7.76 -35.2367,-16.0881 -52.6189,-24.6687 -22.0192,-11.5459 -43.6911,-23.5334 -64.9848,-36.4043 -20.6943,-12.5554 -40.7258,-25.9936 -60.537,-39.8745 -29.1801,-21.5141 -57.9503,-43.7854 -84.575,-68.3918 -2.7759,-2.5867 -6.9717,-6.4983 -11.1987,-10.4099 -26.9405,-25.0476 -52.3979,-52.8081 -76.7202,-81.4522 -23.7226,-29.2114 -45.6787,-59.4324 -66.026,-90.9783 -17.5709,-28.9594 -33.5648,-58.5498 -47.9184,-89.2126 -16.4037,-36.7827 -30.568,-74.3225 -42.8708,-112.6194 -6.341,-21.3884 -12.3032,-42.7766 -17.5397,-64.4172 -4.7952,-20.0633 -8.6436,-40.2525 -12.366,-60.5681 -2.9652,-18.9275 -5.9309,-37.8555 -7.7921,-56.9091 -1.7035,-17.8551 -3.0912,-35.6473 -4.1325,-53.5652 -1.4826,-41.2626 -0.6623,-82.3353 2.1453,-123.5347 2.0188,-22.587 4.3846,-45.1108 7.7605,-67.5714 3.3754,-22.1452 7.5707,-44.1645 12.1766,-66.1204 8.5172,-36.0261 18.6751,-71.3576 30.6312,-106.4367 14.669,-39.9371 31.3885,-78.739 50.6313,-116.7205 19.8739,-37.1611 41.7987,-72.8081 65.8684,-107.3198 23.7855,-32.4291 49.0542,-63.344 76.2467,-92.9344 27.9181,-29.1487 57.1932,-56.7198 88.1398,-82.6507 9.4635,-7.6339 19.0223,-15.0791 28.7384,-22.3978 22.9973,37.4771 45.9307,75.08 67.8556,113.1243 11.5456,20.7574 21.4514,42.3977 31.9561,63.6598 9.9054,20.1264 20.5363,39.8744 31.1359,59.6222 5.9938,11.1042 11.8931,22.2713 17.729,33.4388 5.552,10.5364 10.3472,23.7228 22.9341,27.3191 6.3406,1.7662 13.1546,1.2617 19.6529,1.1985 4.101,0 8.1707,-0.063 12.24,-0.063 66.5934,-0.505 133.1558,-0.9464 199.718,-1.4514 0.0633,0.063 2.3658,0.1892 4.7004,0.3158 1.1989,0.063 2.429,0.126 3.6279,0.126 0.3154,1.1989 0.6307,2.3974 0.9464,3.5331 4.7004,17.2872 10.1891,34.3852 15.6154,51.4199 5.5518,17.4765 11.293,34.827 16.9715,52.2402 5.6784,17.3506 11.4196,34.7638 17.1611,52.1775 2.7128,8.1387 5.4892,16.3409 8.3284,24.4799 1.4509,4.1638 2.902,8.3278 4.4478,12.492 0.7572,2.0821 1.5142,4.1642 2.3342,6.2462 0.6627,1.7664 1.5142,3.4071 2.8391,4.7948 1.5775,1.6408 3.502,2.4606 5.7101,2.9025 3.6279,0.8198 7.6973,-1.3249 9.5583,-4.4167 1.9877,-3.2806 1.9561,-7.6972 2.4607,-11.4196 0.4102,-3.1545 0.8516,-6.309 1.2934,-9.464 0.9148,-6.3089 1.8294,-12.618 2.7447,-18.9275 2.5551,-17.35 5.3627,-34.6372 8.0126,-51.9878 1.3882,-9.0221 2.8075,-17.9811 4.1008,-27.0033 0.5995,-4.2906 1.1358,-8.5175 1.672,-12.745 0.7255,1.7669 1.4509,3.5336 2.208,5.3 2.8393,6.6247 5.6469,13.1862 8.486,19.811 5.8677,13.817 11.8298,27.5712 17.7292,41.3882 6.9084,16.0887 13.7541,32.2402 20.5993,48.3918 1.7034,4.0377 3.407,8.0758 5.1421,12.1768 0.8516,2.0188 1.7351,4.1008 2.5867,6.183 0.9465,2.2085 1.672,5.0472 3.5964,6.6247 1.0096,0.8203 2.208,1.2617 3.4385,1.2617 1.3251,0 2.6499,-0.5046 3.6909,-1.5142 1.0723,-1.0092 1.6403,-2.4606 1.9871,-3.9117 0.8835,-3.9116 1.7351,-7.8864 2.6189,-11.8613 0.2204,-0.9464 0.5989,-2.5867 0.9463,-4.1642 5.8989,-26.1201 12.3977,-52.7448 18.3913,-79.4328 0.031,-0.1261 0.1892,-0.82 0.347,-1.5143 2.1137,-9.4008 4.1953,-18.9275 5.9936,-28.5175 0.8831,-4.732 1.7664,-9.464 2.7444,-14.1328 0.1265,0.3158 0.2524,0.6311 0.4102,0.9464 1.6401,3.7224 3.281,7.4452 4.9211,11.1043 3.5332,8.0758 7.0979,16.0884 10.6309,24.1013 7.2558,16.4669 14.5429,32.9342 21.8615,49.3379 6.972,15.7102 13.47,31.6725 20.7888,47.193 1.6407,3.6595 3.2811,8.265 7.9498,9.6532 5.4257,1.6402 10.4414,-2.0821 11.798,-7.3186 0.7889,-3.0918 1.199,-6.2462 1.7034,-9.4008 0.5364,-3.281 1.1043,-6.5615 1.7036,-9.8425 2.429,-13.3124 5.1739,-26.6248 8.1075,-39.811 1.3566,-5.9938 2.9653,-13.5018 4.6054,-20.9469 3.155,-13.943 6.5305,-29.59 9.5274,-45.2997 2.7126,-14.3853 4.7002,-28.8965 5.9304,-43.4706 0.4101,-4.3535 1.104,-10.0319 1.6091,-15.647 0.031,-0.1261 0.031,-0.2525 0.031,-0.3785 -0.1574,-0.6311 -0.2837,-1.3251 -0.3469,-2.0189 -0.0942,-1.7035 0.1895,-3.2811 0.7888,-4.732 0,-0.5046 0,-1.0725 -0.0317,-1.5775 -0.0315,-1.2617 -0.126,-2.4602 -0.2207,-3.6591 1.3564,0.126 2.6814,0.2525 4.0381,0.3786 0.0944,0 0.1892,0 0.2837,0 1.4829,-0.9464 3.1865,-1.5775 5.0476,-1.7667 3.6909,-0.3787 7.3816,-0.694 11.0727,-1.0725 0.1892,0 0.4414,0 0.6624,-0.063 0.1892,0 0.3784,0 0.5676,-0.063 28.3599,-2.5239 56.7832,-4.1642 85.2378,-5.4892 0,0 -0.0315,0.032 -0.0315,0.032 0.0315,0 0.0942,0 0.126,-0.032 0.0315,0 0.0315,0 0.0315,0 0.0944,0 0.1894,0 0.2522,0 0.0315,0 0.0315,0 0.0632,0 4.1008,-0.3153 8.2334,-0.4417 12.3347,-0.6938 0.0313,0 0.0945,0 0.1262,0 0.3152,0 0.6306,0 0.9778,-0.063 0.7883,0 1.5772,-0.063 2.3342,-0.1261 5.0474,-0.4418 10.0948,-0.8203 15.1109,-1.1357 10.3786,-0.6311 20.7571,-1.2622 31.1357,-1.8928 6.7825,-0.4418 13.5332,-0.8836 20.3157,-1.1357 2.9026,-0.063 5.7729,-0.1265 8.6438,-0.1892 1.2617,-0.1265 2.5237,-0.1894 3.7854,-0.2526 13.5334,-2.2081 27.3818,-4.7948 41.3569,-6.8768 7.76,-1.1358 15.5838,-2.4607 23.281,-3.9749 3.2806,-0.6311 6.3406,-1.6091 9.1482,-2.9652 1.5142,-2.5871 2.9969,-5.2054 4.5113,-7.7605 7.0976,-12.2716 14.101,-24.6059 21.4514,-36.7198 0.1892,-0.7255 0.3784,-1.4826 0.5676,-2.2082 1.1675,-4.1008 2.6184,-8.139 4.1643,-12.1134 0.978,-2.2086 2.082,-4.3534 3.2493,-6.4355 8.4856,-14.6373 17.8235,-28.8333 26.8769,-43.1548 9.022,-14.1328 17.8238,-28.3287 26.0257,-42.9661 2.208,-3.7224 6.4983,-9.5899 10.1894,-15.8363 4.4795,-7.5706 8.8013,-15.1418 14.0696,-22.1452 4.5427,-5.8044 9.1482,-11.6088 13.6592,-17.4132 3.281,-4.2902 8.6753,-11.3569 13.8174,-18.6755 2.3025,-3.2177 4.8581,-6.435 7.0029,-9.7793 3.06,-4.8581 5.2683,-10.1579 5.9309,-15.773 14.9211,12.1771 29.8425,25.0477 44.48,38.4233 31.9878,30.3471 62.0195,62.3349 90.2534,96.2155 29.3689,36.4673 56.467,74.3224 81.3572,114.0707 4.9211,7.9492 11.3252,18.4228 17.6343,28.9592 5.489,9.1483 11.1357,18.2965 15.8671,27.8865 6.5306,14.5113 12.8396,29.1486 18.7388,43.9124 8.7698,22.1453 16.6878,44.5426 23.8489,67.2561 -0.0632,0.063 0.0315,0.4414 0.126,0.82 3.281,17.7922 8.8012,35.6473 12.3347,54.0071 2.1765,12.997 4.0061,26.0568 6.2143,39.0539 2.5555,14.9527 4.9212,29.9057 6.7195,44.9216 3.7224,30.8521 6.656,61.767 8.2966,92.7452 1.6087,36.0887 1.5455,72.2407 -0.978,108.203 0,0 -0.3157,4.0381 -0.3157,4.0381 -1.4509,14.5112 -3.5329,28.77 -6.5297,42.9655 -6.1514,28.3915 -11.5457,56.8462 -17.5396,85.2378 -9.7793,43.4072 -21.7981,85.9944 -36.5305,128.0134 -16.751,45.8055 -36.688,90.0328 -59.0859,133.3772 0,0 -0.2837,0.5047 -0.2837,0.5047 -0.1892,0.3784 -0.3785,0.7571 -0.5994,1.1357 -8.5803,16.2776 -17.855,33.5647 -28.0447,50.2842 -10.4414,17.0979 -21.4509,33.8174 -32.9336,50.3474 -22.4294,31.0415 -46.436,60.7578 -72.2724,89.0862 -27.5078,29.4639 -56.7198,57.0984 -87.6663,82.9663 0,0 -0.0315,0.0628 -0.0315,0.0628 -0.5364,0.3786 -1.0412,0.8205 -1.5776,1.2622 -26.719,21.5141 -55.3948,42.5871 -85.6157,61.767 -33.8807,20.9463 -68.7073,39.8111 -104.7015,56.783 -38.0444,17.2874 -76.8462,32.1768 -116.6889,44.7324 -37.1294,11.167 -74.5747,20.2525 -112.7139,27.3819 C 183.8823,-4.9211 144.7333,-0.4412 105.206,1.8296 92.5383,2.3528 79.8896,2.6221 67.2507,2.6221 44.8281,2.6221 22.4344,1.7754 0,0 Z m 18.3285,-686.3474 c 4.7632,1.5141 10.063,2.1448 15.0159,2.1765 29.2429,1.104 57.8238,-13.9746 70.8526,-40.6626 12.271,14.5425 29.2114,25.1106 47.9184,28.8645 3.6275,0.7571 7.3499,1.1357 11.0725,1.1357 10.6624,0 21.2622,-3.0917 29.8426,-9.59 3.9748,-2.9969 7.9497,-6.7825 10.2839,-11.262 2.303,-4.4168 0.7253,-10.0002 -3.6909,-12.3977 -4.3533,-2.3656 -10.1262,-0.7253 -12.4292,3.6909 -0.7571,1.4827 -1.5457,2.9341 -2.3972,4.3218 -0.4419,0.6626 -0.9148,1.3249 -1.3882,1.956 -0.3787,0.4417 -0.7888,0.8831 -1.199,1.2933 -0.5991,0.5363 -1.2302,1.0407 -1.8613,1.5144 -0.4412,0.2524 -0.8199,0.5044 -1.23,0.757 -1.0098,0.5047 -1.9876,0.9781 -3.0286,1.4195 -0.7885,0.2524 -1.5774,0.5366 -2.3657,0.7571 -1.199,0.3784 -3.4702,0.7885 -5.7417,1.0095 -1.1355,0.0945 -2.6497,0.1577 -4.1956,0.1577 0,0 -0.0312,0 -0.0312,0 -0.2524,0 -0.5366,0 -0.8203,-0.0317 -1.1673,-0.0943 -3.0601,-0.252 -4.9841,-0.4729 -2.9974,-0.5362 -5.931,-1.2305 -8.8645,-2.1138 -3.0286,-1.0408 -5.8992,-2.2713 -8.8013,-3.5962 -1.6406,-0.9465 -3.7539,-2.1138 -5.836,-3.3438 -2.1137,-1.4194 -4.1643,-2.9336 -6.1831,-4.5112 -2.5554,-2.2396 -5.0161,-4.511 -7.445,-6.9399 -1.9556,-2.2715 -3.8174,-4.5428 -5.6153,-6.9402 -0.2209,-0.284 -0.4101,-0.5994 -0.5993,-0.8831 2.1135,-1.4515 4.1008,-3.0602 5.8991,-4.9843 3.1231,-3.344 5.6153,-7.2557 7.2239,-11.5458 3.3755,-8.8018 3.0286,-18.8015 -0.9465,-27.3507 -7.3496,-15.8675 -25.8674,-24.1014 -42.5552,-18.8332 -18.2969,5.7417 -28.8335,25.8682 -23.0918,44.1962 2.7444,8.6753 8.8959,16.12 16.9087,20.4734 3.186,1.7351 6.4038,2.7447 9.6843,3.3437 -12.0188,24.9534 -39.1799,42.7452 -67.0984,33.3128 -0.4846,-0.0801 -0.9513,-0.1184 -1.3986,-0.1184 -8.551,0 -10.1966,13.9087 -0.9039,15.1975 z m -392.3699,-201.9265 c 10.7885,4.8584 22.8391,8.139 34.5112,8.9909 65.2374,5.1418 133.6608,-0.8835 192.6835,-30.8837 11.0094,-5.4258 20.6627,-13.5016 29.7161,-21.6091 34.7009,-34.7005 -12.4605,-87.7927 -51.3883,-57.6977 -56.8458,41.5145 -126.9728,49.6852 -193.0622,67.4138 -1.0927,-0.183 -2.1557,-0.2701 -3.1848,-0.2701 -17.2437,-5e-4 -25.1425,24.5002 -9.2755,34.0559 z M 273.946,-995.9718 c -0.1262,25.2998 24.1013,40.7258 41.2624,55.5525 42.1768,33.4387 95.5528,51.5464 148.6763,57.3192 27.9812,2.902 62.7139,1.0724 68.2341,-33.1551 2.9024,-19.0853 -9.1482,-38.7071 -27.9497,-43.912 -41.0727,-12.2084 -85.0796,-13.4073 -123.5656,-34.0382 -22.7137,-10.9778 -42.5242,-29.1799 -67.3196,-35.0791 -1.7757,-0.306 -3.5484,-0.4532 -5.3011,-0.4532 -17.9558,-8e-4 -34.008,15.4292 -34.0368,33.7659 z" /></g></g></g></g><g
       transform="matrix(1,0,0,-1,0,2100)"
       id="g72"><g
         id="g74"><g
           clip-path="url(#clipPath80)"
           id="g76"><g
             transform="translate(400.4172,1445.634)"
             id="g82"><path
               id="path84"
               style="fill:#ffffff;fill-opacity:0.684146;fill-rule:nonzero;stroke:none"
               d="M 0,0 C -100.4023,-126.9922 61.1758,-294.4336 192.125,-199.2773 314.1602,-99.4844 220.1367,53.1172 107.2656,53.1406 71.2891,53.1484 33.4219,37.6523 0,0 Z" /></g><g
             transform="translate(1533.7336,1447.6458)"
             id="g86"><path
               id="path88"
               style="fill:#ffffff;fill-opacity:0.684146;fill-rule:nonzero;stroke:none"
               d="M 0,0 C -141.6562,-141.5273 64.1914,-357.2383 212.0586,-220.4062 321.8945,-110.6719 222.793,43.668 103.8047,43.6758 69.3359,43.6836 33.2109,30.7344 0,0 Z" /></g></g></g></g><g
       transform="matrix(1,0,0,-1,0,2100)"
       id="g90"><g
         id="g92"><g
           clip-path="url(#clipPath98)"
           id="g94"><g
             transform="translate(528.1663,1341.9248)"
             id="g100"><path
               id="path102"
               style="fill:#000000;fill-opacity:1;fill-rule:nonzero;stroke:none"
               d="m 0,0 c -74.0742,-21.4727 -148.332,-42.5039 -221.8555,-65.8242 -16.7812,-5.3125 -33.5586,-10.625 -50.3047,-16.0664 -3.1875,-1.0352 -5.1523,-4.3789 -4.1835,-7.6992 0.9296,-3.1485 4.5078,-5.2461 7.6953,-4.1836 90.0117,29.5625 181.1445,55.6171 271.7968,83.0195 C 9.4609,-8.9609 7.4297,0.2852 1.7617,0.2852 1.207,0.2852 0.6133,0.1953 0,0 Z" /></g><g
             transform="translate(1830.7756,1383.3428)"
             id="g104"><path
               id="path106"
               style="fill:#000000;fill-opacity:1;fill-rule:nonzero;stroke:none"
               d="m 0,0 c -78.5078,-9.5937 -157.1523,-19.0977 -235.4766,-30.0117 -12.2656,-1.6133 -24.4726,-3.6055 -36.707,-5.125 -3.2539,-0.3555 -6.8594,-0.7071 -9.0156,-3.4102 -3.4453,-4.4453 2.3789,-10.625 7.0469,-7.6992 64.3164,6.3125 128.6289,13.9414 192.9687,20.3906 27.9531,2.8321 55.8086,5.7969 83.793,8.8164 10.5195,1.5704 8.789,17.1446 -1.1485,17.1446 C 0.9922,0.1055 0.5078,0.0703 0,0 Z" /></g><g
             transform="translate(1571.5334,1276.4912)"
             id="g108"><path
               id="path110"
               style="fill:#000000;fill-opacity:1;fill-rule:nonzero;stroke:none"
               d="m 0,0 c -3.7422,0 -5.6016,-2.8047 -5.6016,-5.6367 0.0313,-2.9297 2.0313,-5.8281 5.9922,-5.6367 80.8321,-16.0704 159.086,-43.4141 239.5625,-61.4454 32.9453,-8.1093 65.8867,-16.1992 98.8321,-24.1835 12.2109,-3.0313 17.2304,15.6523 4.8007,18.9062 -62.3125,13.6523 -124.7617,26.9531 -186.6523,41.957 C 104.6328,-24.6406 53.3633,-6.1211 0.1328,0 0.0898,0 0.0469,0 0,0 Z" /></g><g
             transform="translate(234.3381,1440.1162)"
             id="g112"><path
               id="path114"
               style="fill:#000000;fill-opacity:1;fill-rule:nonzero;stroke:none"
               d="m 0,0 c -3.2539,-7.9844 7.2109,-7.7266 12.3672,-8.4687 60.668,-9.7891 120.4062,-21.8008 181.207,-30.0118 49.8828,-6.4414 99.8985,-11.5625 149.8789,-16.9414 9.8516,-1.0937 11.9102,14.043 1.836,15.2656 -77.7422,6.7657 -155.6758,12.4024 -232.7071,25.3751 C 76.9961,-9.3359 41.5742,-2.3477 5.8594,2.2578 5.3633,2.4375 4.8477,2.5156 4.3281,2.5156 2.5937,2.5156 0.8672,1.5703 0,0 Z" /></g></g></g></g></g></svg>